<svg width="544" height="452" viewBox="0 0 544 452" fill="none" xmlns="http://www.w3.org/2000/svg">
<path d="M219.57 95.78C178.25 104.64 87.1598 187.67 55.2798 203.45C23.3998 219.23 20.1098 294.12 76.9998 311.39C133.89 328.66 181.21 364.76 313 363.39C444.79 362.02 525.1 303.44 509.17 248.52C493.24 193.6 370.59 153.45 360.88 118.09C351.17 82.73 275.07 83.87 219.57 95.78Z" fill="#FFE500"/>
<path d="M136.65 301.93L132.07 320.59L136.65 340.23" stroke="black" stroke-width="6" stroke-linecap="round" stroke-linejoin="round"/>
<path d="M136.65 301.93L132.07 320.59L136.65 340.23" stroke="#020000" stroke-width="4" stroke-linecap="round" stroke-linejoin="round"/>
<path d="M146.87 299.1L144.94 319.53L147.69 340.63" stroke="black" stroke-width="6" stroke-linecap="round" stroke-linejoin="round"/>
<path d="M146.87 299.1L144.94 319.53L147.69 340.63" stroke="#020000" stroke-width="4" stroke-linecap="round" stroke-linejoin="round"/>
<path d="M135.72 279.19L129.15 271.64L125.27 258.22" stroke="black" stroke-width="6" stroke-linecap="round" stroke-linejoin="round"/>
<path d="M135.72 279.19L129.15 271.64L125.27 258.22" stroke="white" stroke-width="4" stroke-linecap="round" stroke-linejoin="round"/>
<path d="M141.87 173.268C142.266 173.33 142.621 173.546 142.857 173.87C143.093 174.193 143.191 174.597 143.129 174.993L128.922 266.031L125.958 265.569L140.165 174.531C140.226 174.138 140.44 173.786 140.759 173.55C141.078 173.313 141.477 173.212 141.87 173.268Z" fill="#FFE500" stroke="black" stroke-linecap="round" stroke-linejoin="round"/>
<path d="M198.34 217.11C177.73 204.37 157.13 231.88 136.52 211.11C138.387 200.717 140.257 189.957 142.13 178.83C162.73 191.57 183.34 164.06 203.95 184.83C202.083 195.217 200.213 205.977 198.34 217.11Z" fill="white"/>
<path d="M198.34 217.11C177.73 204.37 157.13 231.88 136.52 211.11C138.387 200.717 140.257 189.957 142.13 178.83C162.73 191.57 183.34 164.06 203.95 184.83C202.083 195.217 200.213 205.977 198.34 217.11Z" stroke="black" stroke-linecap="round" stroke-linejoin="round"/>
<path d="M135.72 279.19L129.15 271.64" stroke="black" stroke-width="6" stroke-linecap="round" stroke-linejoin="round"/>
<path d="M135.72 279.19L129.15 271.64" stroke="white" stroke-width="4" stroke-linecap="round" stroke-linejoin="round"/>
<path d="M141.86 274.83C145.417 274.83 148.3 271.947 148.3 268.39C148.3 264.833 145.417 261.95 141.86 261.95C138.303 261.95 135.42 264.833 135.42 268.39C135.42 271.947 138.303 274.83 141.86 274.83Z" fill="white" stroke="black" stroke-linecap="round" stroke-linejoin="round"/>
<path d="M141.86 273.9C144 273.9 146.053 274.75 147.566 276.264C149.08 277.777 149.93 279.83 149.93 281.97V306.56H133.8V282C133.8 279.86 134.65 277.807 136.163 276.294C137.677 274.78 139.729 273.93 141.87 273.93L141.86 273.9Z" fill="white" stroke="black" stroke-linecap="round" stroke-linejoin="round"/>
<path d="M147.69 275.91L141.86 273.12L130.84 258.22" stroke="black" stroke-width="6" stroke-linecap="round" stroke-linejoin="round"/>
<path d="M147.69 275.91L141.86 273.12L130.84 258.22" stroke="white" stroke-width="4" stroke-linecap="round" stroke-linejoin="round"/>
<path d="M147.69 275.91L141.86 273.12" stroke="black" stroke-width="6" stroke-linecap="round" stroke-linejoin="round"/>
<path d="M147.69 275.91L141.86 273.12" stroke="white" stroke-width="4" stroke-linecap="round" stroke-linejoin="round"/>
<path d="M222.78 277.28L229.65 287.39L240.58 285.26" stroke="black" stroke-width="6" stroke-linecap="round" stroke-linejoin="round"/>
<path d="M222.78 277.28L229.65 287.39L240.58 285.26" stroke="white" stroke-width="4" stroke-linecap="round" stroke-linejoin="round"/>
<path d="M210.6 301.93V319.86V340.23" stroke="black" stroke-width="6" stroke-linecap="round" stroke-linejoin="round"/>
<path d="M210.6 301.93V319.86V340.23" stroke="#020000" stroke-width="4" stroke-linecap="round" stroke-linejoin="round"/>
<path d="M220.82 299.1L224.19 319.45L221.64 340.63" stroke="black" stroke-width="6" stroke-linecap="round" stroke-linejoin="round"/>
<path d="M220.82 299.1L224.19 319.45L221.64 340.63" stroke="#020000" stroke-width="4" stroke-linecap="round" stroke-linejoin="round"/>
<path d="M210.65 278.08L205.39 286.6L197.19 283.88" stroke="black" stroke-width="6" stroke-linecap="round" stroke-linejoin="round"/>
<path d="M210.65 278.08L205.39 286.6L197.19 283.88" stroke="white" stroke-width="4" stroke-linecap="round" stroke-linejoin="round"/>
<path d="M210.65 278.08L205.39 286.59" stroke="black" stroke-width="6" stroke-linecap="round" stroke-linejoin="round"/>
<path d="M210.65 278.08L205.39 286.59" stroke="white" stroke-width="4" stroke-linecap="round" stroke-linejoin="round"/>
<path d="M224.12 265.83H206.05L207.9 239.21H225.98L224.12 265.83Z" fill="white" stroke="black" stroke-linecap="round" stroke-linejoin="round"/>
<path d="M215.81 275.32C219.366 275.32 222.25 272.437 222.25 268.88C222.25 265.323 219.366 262.44 215.81 262.44C212.253 262.44 209.37 265.323 209.37 268.88C209.37 272.437 212.253 275.32 215.81 275.32Z" fill="white" stroke="black" stroke-linecap="round" stroke-linejoin="round"/>
<path d="M215.81 273.9C217.95 273.9 220.003 274.75 221.516 276.264C223.03 277.777 223.88 279.83 223.88 281.97V306.56H207.75V282C207.746 280.939 207.952 279.887 208.355 278.905C208.758 277.923 209.351 277.03 210.1 276.278C210.848 275.525 211.738 274.928 212.718 274.52C213.698 274.112 214.749 273.901 215.81 273.9Z" fill="white" stroke="black" stroke-linecap="round" stroke-linejoin="round"/>
<path d="M222.78 277.28L229.65 287.39" stroke="black" stroke-width="6" stroke-linecap="round" stroke-linejoin="round"/>
<path d="M222.78 277.28L229.65 287.39" stroke="white" stroke-width="4" stroke-linecap="round" stroke-linejoin="round"/>
<path d="M336.97 273.9L344.82 265.98L342.84 252.49" stroke="black" stroke-width="6" stroke-linecap="round" stroke-linejoin="round"/>
<path d="M336.97 273.9L344.82 265.98L342.84 252.49" stroke="white" stroke-width="4" stroke-linecap="round" stroke-linejoin="round"/>
<path d="M336.97 273.9L344.82 265.98" stroke="black" stroke-width="6" stroke-linecap="round" stroke-linejoin="round"/>
<path d="M336.97 273.9L344.82 265.98" stroke="white" stroke-width="4" stroke-linecap="round" stroke-linejoin="round"/>
<path d="M325.56 301.93L320.98 320.59L325.56 340.23" stroke="black" stroke-width="6" stroke-linecap="round" stroke-linejoin="round"/>
<path d="M325.56 301.93L320.98 320.59L325.56 340.23" stroke="#020000" stroke-width="4" stroke-linecap="round" stroke-linejoin="round"/>
<path d="M335.78 299.1L333.85 319.53L336.61 340.63" stroke="black" stroke-width="6" stroke-linecap="round" stroke-linejoin="round"/>
<path d="M335.78 299.1L333.85 319.53L336.61 340.63" stroke="#020000" stroke-width="4" stroke-linecap="round" stroke-linejoin="round"/>
<path d="M324.63 276.28L317.31 265.98L318.61 251.02" stroke="black" stroke-width="6" stroke-linecap="round" stroke-linejoin="round"/>
<path d="M324.63 276.28L317.31 265.98L318.61 251.02" stroke="white" stroke-width="4" stroke-linecap="round" stroke-linejoin="round"/>
<path d="M324.63 276.28L317.31 265.98" stroke="black" stroke-width="6" stroke-linecap="round" stroke-linejoin="round"/>
<path d="M324.63 276.28L317.31 265.98" stroke="white" stroke-width="4" stroke-linecap="round" stroke-linejoin="round"/>
<path d="M330.77 272.72C334.326 272.72 337.21 269.837 337.21 266.28C337.21 262.723 334.326 259.84 330.77 259.84C327.213 259.84 324.33 262.723 324.33 266.28C324.33 269.837 327.213 272.72 330.77 272.72Z" fill="white" stroke="black" stroke-linecap="round" stroke-linejoin="round"/>
<path d="M330.77 271C332.91 271 334.963 271.85 336.476 273.364C337.99 274.877 338.84 276.93 338.84 279.07V306.56H322.71V279.06C322.713 276.923 323.563 274.875 325.074 273.364C326.585 271.853 328.633 271.003 330.77 271Z" fill="white" stroke="black" stroke-linecap="round" stroke-linejoin="round"/>
<path d="M349.57 255.39H310.7L305.94 221.49H344.81L349.57 255.39Z" fill="#FFE500" stroke="black" stroke-linecap="round" stroke-linejoin="round"/>
<path d="M261.98 277.28L268.85 287.39L279.77 285.26" stroke="black" stroke-width="6" stroke-linecap="round" stroke-linejoin="round"/>
<path d="M261.98 277.28L268.85 287.39L279.77 285.26" stroke="white" stroke-width="4" stroke-linecap="round" stroke-linejoin="round"/>
<path d="M249.79 301.93V319.86V340.23" stroke="black" stroke-width="6" stroke-linecap="round" stroke-linejoin="round"/>
<path d="M249.79 301.93V319.86V340.23" stroke="#020000" stroke-width="4" stroke-linecap="round" stroke-linejoin="round"/>
<path d="M260.01 299.1L263.39 319.45L260.84 340.63" stroke="black" stroke-width="6" stroke-linecap="round" stroke-linejoin="round"/>
<path d="M260.01 299.1L263.39 319.45L260.84 340.63" stroke="#020000" stroke-width="4" stroke-linecap="round" stroke-linejoin="round"/>
<path d="M249.84 278.08L244.59 286.6L236.39 283.88" stroke="black" stroke-width="6" stroke-linecap="round" stroke-linejoin="round"/>
<path d="M249.84 278.08L244.59 286.6L236.39 283.88" stroke="white" stroke-width="4" stroke-linecap="round" stroke-linejoin="round"/>
<path d="M249.84 278.08L244.59 286.59" stroke="black" stroke-width="6" stroke-linecap="round" stroke-linejoin="round"/>
<path d="M249.84 278.08L244.59 286.59" stroke="white" stroke-width="4" stroke-linecap="round" stroke-linejoin="round"/>
<path d="M255.01 275.32C258.567 275.32 261.45 272.437 261.45 268.88C261.45 265.323 258.567 262.44 255.01 262.44C251.453 262.44 248.57 265.323 248.57 268.88C248.57 272.437 251.453 275.32 255.01 275.32Z" fill="white" stroke="black" stroke-linecap="round" stroke-linejoin="round"/>
<path d="M255 273.9C257.14 273.9 259.193 274.75 260.706 276.264C262.22 277.777 263.07 279.83 263.07 281.97V306.56H246.94V282C246.936 280.939 247.142 279.887 247.545 278.905C247.948 277.923 248.541 277.03 249.289 276.278C250.038 275.525 250.928 274.928 251.908 274.52C252.888 274.112 253.939 273.901 255 273.9Z" fill="white" stroke="black" stroke-linecap="round" stroke-linejoin="round"/>
<path d="M261.98 277.28L268.85 287.39" stroke="black" stroke-width="6" stroke-linecap="round" stroke-linejoin="round"/>
<path d="M261.98 277.28L268.85 287.39" stroke="white" stroke-width="4" stroke-linecap="round" stroke-linejoin="round"/>
<path d="M376.61 301.93L381.19 320.59L376.61 340.23" stroke="black" stroke-width="6" stroke-linecap="round" stroke-linejoin="round"/>
<path d="M376.61 301.93L381.19 320.59L376.61 340.23" stroke="#020000" stroke-width="4" stroke-linecap="round" stroke-linejoin="round"/>
<path d="M366.39 299.1L368.32 319.53L365.57 340.63" stroke="black" stroke-width="6" stroke-linecap="round" stroke-linejoin="round"/>
<path d="M366.39 299.1L368.32 319.53L365.57 340.63" stroke="#020000" stroke-width="4" stroke-linecap="round" stroke-linejoin="round"/>
<path d="M377.55 279.19L382.8 287.7L392.33 283.09" stroke="black" stroke-width="6" stroke-linecap="round" stroke-linejoin="round"/>
<path d="M377.55 279.19L382.8 287.7L392.33 283.09" stroke="white" stroke-width="4" stroke-linecap="round" stroke-linejoin="round"/>
<path d="M377.55 279.19L382.8 287.7" stroke="black" stroke-width="6" stroke-linecap="round" stroke-linejoin="round"/>
<path d="M377.55 279.19L382.8 287.7" stroke="white" stroke-width="4" stroke-linecap="round" stroke-linejoin="round"/>
<path d="M373.74 275.32C377.297 275.32 380.18 272.437 380.18 268.88C380.18 265.323 377.297 262.44 373.74 262.44C370.183 262.44 367.3 265.323 367.3 268.88C367.3 272.437 370.183 275.32 373.74 275.32Z" fill="white" stroke="black" stroke-linecap="round" stroke-linejoin="round"/>
<path d="M379.47 306.56H363.34V281.97C363.34 279.83 364.19 277.777 365.704 276.264C367.217 274.75 369.27 273.9 371.41 273.9C373.55 273.9 375.603 274.75 377.116 276.264C378.63 277.777 379.48 279.83 379.48 281.97V306.56H379.47Z" fill="white" stroke="black" stroke-linecap="round" stroke-linejoin="round"/>
<path d="M365.57 275.91L358.52 265.56L359.34 251.52" stroke="black" stroke-width="6" stroke-linecap="round" stroke-linejoin="round"/>
<path d="M365.57 275.91L358.52 265.56L359.34 251.52" stroke="white" stroke-width="4" stroke-linecap="round" stroke-linejoin="round"/>
<path d="M365.57 275.91L358.52 265.56" stroke="black" stroke-width="6" stroke-linecap="round" stroke-linejoin="round"/>
<path d="M365.57 275.91L358.52 265.56" stroke="white" stroke-width="4" stroke-linecap="round" stroke-linejoin="round"/>
<path d="M307.58 277.51L314.45 287.62L325.37 285.48" stroke="black" stroke-width="6" stroke-linecap="round" stroke-linejoin="round"/>
<path d="M307.58 277.51L314.45 287.62L325.37 285.48" stroke="white" stroke-width="4" stroke-linecap="round" stroke-linejoin="round"/>
<path d="M295.4 302.15V320.08V340.46" stroke="black" stroke-width="6" stroke-linecap="round" stroke-linejoin="round"/>
<path d="M295.4 302.15V320.08V340.46" stroke="#020000" stroke-width="4" stroke-linecap="round" stroke-linejoin="round"/>
<path d="M305.62 299.32L308.99 319.68L306.44 340.85" stroke="black" stroke-width="6" stroke-linecap="round" stroke-linejoin="round"/>
<path d="M305.62 299.32L308.99 319.68L306.44 340.85" stroke="#020000" stroke-width="4" stroke-linecap="round" stroke-linejoin="round"/>
<path d="M295.44 278.31L290.19 286.82L281.99 284.11" stroke="black" stroke-width="6" stroke-linecap="round" stroke-linejoin="round"/>
<path d="M295.44 278.31L290.19 286.82L281.99 284.11" stroke="white" stroke-width="4" stroke-linecap="round" stroke-linejoin="round"/>
<path d="M295.44 278.31L290.19 286.82" stroke="black" stroke-width="6" stroke-linecap="round" stroke-linejoin="round"/>
<path d="M295.44 278.31L290.19 286.82" stroke="white" stroke-width="4" stroke-linecap="round" stroke-linejoin="round"/>
<path d="M300.61 275.55C304.167 275.55 307.05 272.667 307.05 269.11C307.05 265.553 304.167 262.67 300.61 262.67C297.053 262.67 294.17 265.553 294.17 269.11C294.17 272.667 297.053 275.55 300.61 275.55Z" fill="white" stroke="black" stroke-linecap="round" stroke-linejoin="round"/>
<path d="M300.61 274.12C302.75 274.12 304.803 274.97 306.316 276.484C307.83 277.997 308.68 280.05 308.68 282.19V306.78H292.54V282.19C292.54 280.05 293.39 277.997 294.904 276.484C296.417 274.97 298.47 274.12 300.61 274.12Z" fill="white" stroke="black" stroke-linecap="round" stroke-linejoin="round"/>
<path d="M307.58 277.51L314.45 287.62" stroke="black" stroke-width="6" stroke-linecap="round" stroke-linejoin="round"/>
<path d="M307.58 277.51L314.45 287.62" stroke="white" stroke-width="4" stroke-linecap="round" stroke-linejoin="round"/>
<path d="M182.16 303.51L177.77 321.41L182.16 340.25" stroke="black" stroke-width="6" stroke-linecap="round" stroke-linejoin="round"/>
<path d="M182.16 303.51L177.77 321.41L182.16 340.25" stroke="#020000" stroke-width="4" stroke-linecap="round" stroke-linejoin="round"/>
<path d="M191.97 300.8L190.12 320.4L192.76 340.63" stroke="black" stroke-width="6" stroke-linecap="round" stroke-linejoin="round"/>
<path d="M191.97 300.8L190.12 320.4L192.76 340.63" stroke="#020000" stroke-width="4" stroke-linecap="round" stroke-linejoin="round"/>
<path d="M181.27 281.7L176.23 289.87L167.09 285.45" stroke="black" stroke-width="6" stroke-linecap="round" stroke-linejoin="round"/>
<path d="M181.27 281.7L176.23 289.87L167.09 285.45" stroke="white" stroke-width="4" stroke-linecap="round" stroke-linejoin="round"/>
<path d="M181.27 281.7L176.23 289.87" stroke="black" stroke-width="6" stroke-linecap="round" stroke-linejoin="round"/>
<path d="M181.27 281.7L176.23 289.87" stroke="white" stroke-width="4" stroke-linecap="round" stroke-linejoin="round"/>
<path d="M184.92 277.99C188.328 277.99 191.09 275.228 191.09 271.82C191.09 268.412 188.328 265.65 184.92 265.65C181.512 265.65 178.75 268.412 178.75 271.82C178.75 275.228 181.512 277.99 184.92 277.99Z" fill="white" stroke="black" stroke-linecap="round" stroke-linejoin="round"/>
<path d="M187.16 276.63C189.212 276.63 191.181 277.445 192.633 278.897C194.084 280.349 194.9 282.317 194.9 284.37V308H179.43V284.37C179.43 282.319 180.244 280.352 181.693 278.901C183.143 277.449 185.109 276.633 187.16 276.63Z" fill="white" stroke="black" stroke-linecap="round" stroke-linejoin="round"/>
<path d="M192.76 278.56L199.51 268.63L198.74 255.17" stroke="black" stroke-width="6" stroke-linecap="round" stroke-linejoin="round"/>
<path d="M192.76 278.56L199.51 268.63L198.74 255.17" stroke="white" stroke-width="4" stroke-linecap="round" stroke-linejoin="round"/>
<path d="M192.76 278.56L199.51 268.63" stroke="black" stroke-width="6" stroke-linecap="round" stroke-linejoin="round"/>
<path d="M192.76 278.56L199.51 268.63" stroke="white" stroke-width="4" stroke-linecap="round" stroke-linejoin="round"/>
<path d="M233.73 279.88L240.32 289.57L250.8 287.52" stroke="black" stroke-width="6" stroke-linecap="round" stroke-linejoin="round"/>
<path d="M233.73 279.88L240.32 289.57L250.8 287.52" stroke="white" stroke-width="4" stroke-linecap="round" stroke-linejoin="round"/>
<path d="M222.05 303.51V320.71V340.25" stroke="black" stroke-width="6" stroke-linecap="round" stroke-linejoin="round"/>
<path d="M222.05 303.51V320.71V340.25" stroke="#020000" stroke-width="4" stroke-linecap="round" stroke-linejoin="round"/>
<path d="M231.85 300.8L235.08 320.32L232.64 340.63" stroke="black" stroke-width="6" stroke-linecap="round" stroke-linejoin="round"/>
<path d="M231.85 300.8L235.08 320.32L232.64 340.63" stroke="#020000" stroke-width="4" stroke-linecap="round" stroke-linejoin="round"/>
<path d="M222.09 280.64L217.05 288.81L209.19 286.21" stroke="black" stroke-width="6" stroke-linecap="round" stroke-linejoin="round"/>
<path d="M222.09 280.64L217.05 288.81L209.19 286.21" stroke="white" stroke-width="4" stroke-linecap="round" stroke-linejoin="round"/>
<path d="M222.09 280.64L217.05 288.81" stroke="black" stroke-width="6" stroke-linecap="round" stroke-linejoin="round"/>
<path d="M222.09 280.64L217.05 288.81" stroke="white" stroke-width="4" stroke-linecap="round" stroke-linejoin="round"/>
<path d="M227.05 277.99C230.457 277.99 233.22 275.228 233.22 271.82C233.22 268.412 230.457 265.65 227.05 265.65C223.642 265.65 220.88 268.412 220.88 271.82C220.88 275.228 223.642 277.99 227.05 277.99Z" fill="white" stroke="black" stroke-linecap="round" stroke-linejoin="round"/>
<path d="M227 276.63C229.052 276.63 231.021 277.445 232.473 278.897C233.924 280.349 234.74 282.317 234.74 284.37V308H219.31V284.37C219.31 282.326 220.118 280.365 221.559 278.915C223 277.464 224.955 276.643 227 276.63Z" fill="white" stroke="black" stroke-linecap="round" stroke-linejoin="round"/>
<path d="M233.73 279.88L240.32 289.57" stroke="black" stroke-width="6" stroke-linecap="round" stroke-linejoin="round"/>
<path d="M233.73 279.88L240.32 289.57" stroke="white" stroke-width="4" stroke-linecap="round" stroke-linejoin="round"/>
<path d="M294.13 281.57L301.08 274.56L299.32 262.62" stroke="black" stroke-width="6" stroke-linecap="round" stroke-linejoin="round"/>
<path d="M294.13 281.57L301.08 274.56L299.32 262.62" stroke="white" stroke-width="4" stroke-linecap="round" stroke-linejoin="round"/>
<path d="M294.13 281.57L301.08 274.56" stroke="black" stroke-width="6" stroke-linecap="round" stroke-linejoin="round"/>
<path d="M294.13 281.57L301.08 274.56" stroke="white" stroke-width="4" stroke-linecap="round" stroke-linejoin="round"/>
<path d="M284.03 306.37L279.98 322.89L284.03 340.28" stroke="black" stroke-width="6" stroke-linecap="round" stroke-linejoin="round"/>
<path d="M284.03 306.37L279.98 322.89L284.03 340.28" stroke="#020000" stroke-width="4" stroke-linecap="round" stroke-linejoin="round"/>
<path d="M293.08 303.87L291.37 321.96L293.81 340.63" stroke="black" stroke-width="6" stroke-linecap="round" stroke-linejoin="round"/>
<path d="M293.08 303.87L291.37 321.96L293.81 340.63" stroke="#020000" stroke-width="4" stroke-linecap="round" stroke-linejoin="round"/>
<path d="M283.21 283.68L276.73 274.56L277.88 261.32" stroke="black" stroke-width="6" stroke-linecap="round" stroke-linejoin="round"/>
<path d="M283.21 283.68L276.73 274.56L277.88 261.32" stroke="white" stroke-width="4" stroke-linecap="round" stroke-linejoin="round"/>
<path d="M283.21 283.68L276.73 274.56" stroke="black" stroke-width="6" stroke-linecap="round" stroke-linejoin="round"/>
<path d="M283.21 283.68L276.73 274.56" stroke="white" stroke-width="4" stroke-linecap="round" stroke-linejoin="round"/>
<path d="M288.65 280.53C291.798 280.53 294.35 277.978 294.35 274.83C294.35 271.682 291.798 269.13 288.65 269.13C285.502 269.13 282.95 271.682 282.95 274.83C282.95 277.978 285.502 280.53 288.65 280.53Z" fill="white" stroke="black" stroke-linecap="round" stroke-linejoin="round"/>
<path d="M288.65 279C290.543 279 292.359 279.752 293.698 281.091C295.037 282.43 295.79 284.246 295.79 286.14V310.47H281.51V286.14C281.51 284.246 282.262 282.43 283.601 281.091C284.94 279.752 286.756 279 288.65 279Z" fill="white" stroke="black" stroke-linecap="round" stroke-linejoin="round"/>
<path d="M305.29 265.19H270.88L273.29 229.52H302.88L305.29 265.19Z" fill="white" stroke="black" stroke-linecap="round" stroke-linejoin="round"/>
<path d="M349.92 279.88L356.5 289.57L366.98 287.52" stroke="black" stroke-width="6" stroke-linecap="round" stroke-linejoin="round"/>
<path d="M349.92 279.88L356.5 289.57L366.98 287.52" stroke="white" stroke-width="4" stroke-linecap="round" stroke-linejoin="round"/>
<path d="M338.23 303.51V320.71V340.25" stroke="black" stroke-width="6" stroke-linecap="round" stroke-linejoin="round"/>
<path d="M338.23 303.51V320.71V340.25" stroke="#020000" stroke-width="4" stroke-linecap="round" stroke-linejoin="round"/>
<path d="M348.03 300.8L351.27 320.32L348.82 340.63" stroke="black" stroke-width="6" stroke-linecap="round" stroke-linejoin="round"/>
<path d="M348.03 300.8L351.27 320.32L348.82 340.63" stroke="#020000" stroke-width="4" stroke-linecap="round" stroke-linejoin="round"/>
<path d="M338.28 280.64L333.24 288.81L325.37 286.21" stroke="black" stroke-width="6" stroke-linecap="round" stroke-linejoin="round"/>
<path d="M338.28 280.64L333.24 288.81L325.37 286.21" stroke="white" stroke-width="4" stroke-linecap="round" stroke-linejoin="round"/>
<path d="M338.28 280.64L333.24 288.81" stroke="black" stroke-width="6" stroke-linecap="round" stroke-linejoin="round"/>
<path d="M338.28 280.64L333.24 288.81" stroke="white" stroke-width="4" stroke-linecap="round" stroke-linejoin="round"/>
<path d="M343.23 277.99C346.637 277.99 349.4 275.228 349.4 271.82C349.4 268.412 346.637 265.65 343.23 265.65C339.822 265.65 337.06 268.412 337.06 271.82C337.06 275.228 339.822 277.99 343.23 277.99Z" fill="white" stroke="black" stroke-linecap="round" stroke-linejoin="round"/>
<path d="M343.23 276.63C345.283 276.63 347.251 277.445 348.703 278.897C350.154 280.349 350.97 282.317 350.97 284.37V308H335.49V284.37C335.49 282.317 336.305 280.349 337.757 278.897C339.208 277.445 341.177 276.63 343.23 276.63Z" fill="white" stroke="black" stroke-linecap="round" stroke-linejoin="round"/>
<path d="M349.92 279.88L356.5 289.57" stroke="black" stroke-width="6" stroke-linecap="round" stroke-linejoin="round"/>
<path d="M349.92 279.88L356.5 289.57" stroke="white" stroke-width="4" stroke-linecap="round" stroke-linejoin="round"/>
<path d="M131.36 280.09L137.94 289.79L148.42 287.74" stroke="black" stroke-width="6" stroke-linecap="round" stroke-linejoin="round"/>
<path d="M131.36 280.09L137.94 289.79L148.42 287.74" stroke="white" stroke-width="4" stroke-linecap="round" stroke-linejoin="round"/>
<path d="M119.67 303.73V320.93V340.46" stroke="black" stroke-width="6" stroke-linecap="round" stroke-linejoin="round"/>
<path d="M119.67 303.73V320.93V340.46" stroke="#020000" stroke-width="4" stroke-linecap="round" stroke-linejoin="round"/>
<path d="M129.47 301.01L132.71 320.53L130.26 340.84" stroke="black" stroke-width="6" stroke-linecap="round" stroke-linejoin="round"/>
<path d="M129.47 301.01L132.71 320.53L130.26 340.84" stroke="#020000" stroke-width="4" stroke-linecap="round" stroke-linejoin="round"/>
<path d="M119.72 280.86L114.68 289.02L106.81 286.42" stroke="black" stroke-width="6" stroke-linecap="round" stroke-linejoin="round"/>
<path d="M119.72 280.86L114.68 289.02L106.81 286.42" stroke="white" stroke-width="4" stroke-linecap="round" stroke-linejoin="round"/>
<path d="M119.72 280.86L114.68 289.02" stroke="black" stroke-width="6" stroke-linecap="round" stroke-linejoin="round"/>
<path d="M119.72 280.86L114.68 289.02" stroke="white" stroke-width="4" stroke-linecap="round" stroke-linejoin="round"/>
<path d="M124.67 278.2C128.078 278.2 130.84 275.438 130.84 272.03C130.84 268.622 128.078 265.86 124.67 265.86C121.262 265.86 118.5 268.622 118.5 272.03C118.5 275.438 121.262 278.2 124.67 278.2Z" fill="white" stroke="black" stroke-linecap="round" stroke-linejoin="round"/>
<path d="M124.67 276.85C126.722 276.85 128.691 277.666 130.143 279.117C131.594 280.569 132.41 282.537 132.41 284.59V308.17H116.93V284.58C116.932 282.529 117.749 280.563 119.2 279.113C120.651 277.664 122.619 276.85 124.67 276.85Z" fill="white" stroke="black" stroke-linecap="round" stroke-linejoin="round"/>
<path d="M131.36 280.09L137.94 289.79" stroke="black" stroke-width="6" stroke-linecap="round" stroke-linejoin="round"/>
<path d="M131.36 280.09L137.94 289.79" stroke="white" stroke-width="4" stroke-linecap="round" stroke-linejoin="round"/>
<path d="M157.45 300.63L152.71 319.91L157.45 340.22" stroke="black" stroke-width="6" stroke-linecap="round" stroke-linejoin="round"/>
<path d="M157.45 300.63L152.71 319.91L157.45 340.22" stroke="#020000" stroke-width="4" stroke-linecap="round" stroke-linejoin="round"/>
<path d="M168.01 297.7L166.02 318.82L168.86 340.63" stroke="black" stroke-width="6" stroke-linecap="round" stroke-linejoin="round"/>
<path d="M168.01 297.7L166.02 318.82L168.86 340.63" stroke="#020000" stroke-width="4" stroke-linecap="round" stroke-linejoin="round"/>
<path d="M156.48 277.12L151.05 285.92L141.2 281.16" stroke="black" stroke-width="6" stroke-linecap="round" stroke-linejoin="round"/>
<path d="M156.48 277.12L151.05 285.92L141.2 281.16" stroke="white" stroke-width="4" stroke-linecap="round" stroke-linejoin="round"/>
<path d="M156.48 277.12L151.05 285.92" stroke="black" stroke-width="6" stroke-linecap="round" stroke-linejoin="round"/>
<path d="M156.48 277.12L151.05 285.92" stroke="white" stroke-width="4" stroke-linecap="round" stroke-linejoin="round"/>
<path d="M160.42 273.12C164.093 273.12 167.07 270.143 167.07 266.47C167.07 262.797 164.093 259.82 160.42 259.82C156.747 259.82 153.77 262.797 153.77 266.47C153.77 270.143 156.747 273.12 160.42 273.12Z" fill="white" stroke="black" stroke-linecap="round" stroke-linejoin="round"/>
<path d="M162.84 271.66C165.052 271.66 167.173 272.539 168.737 274.103C170.301 275.667 171.18 277.788 171.18 280V305.42H154.5V280C154.5 277.788 155.379 275.667 156.943 274.103C158.507 272.539 160.628 271.66 162.84 271.66Z" fill="white" stroke="black" stroke-linecap="round" stroke-linejoin="round"/>
<path d="M168.86 273.74L176.15 263.04L175.31 248.52" stroke="black" stroke-width="6" stroke-linecap="round" stroke-linejoin="round"/>
<path d="M168.86 273.74L176.15 263.04L175.31 248.52" stroke="white" stroke-width="4" stroke-linecap="round" stroke-linejoin="round"/>
<path d="M168.86 273.74L176.15 263.04" stroke="black" stroke-width="6" stroke-linecap="round" stroke-linejoin="round"/>
<path d="M168.86 273.74L176.15 263.04" stroke="white" stroke-width="4" stroke-linecap="round" stroke-linejoin="round"/>
<path d="M202.6 275.16L209.7 285.6L220.99 283.4" stroke="black" stroke-width="6" stroke-linecap="round" stroke-linejoin="round"/>
<path d="M202.6 275.16L209.7 285.6L220.99 283.4" stroke="white" stroke-width="4" stroke-linecap="round" stroke-linejoin="round"/>
<path d="M190 300.63V319.16V340.22" stroke="black" stroke-width="6" stroke-linecap="round" stroke-linejoin="round"/>
<path d="M190 300.63V319.16V340.22" stroke="#020000" stroke-width="4" stroke-linecap="round" stroke-linejoin="round"/>
<path d="M200.57 297.7L204.06 318.74L201.42 340.63" stroke="black" stroke-width="6" stroke-linecap="round" stroke-linejoin="round"/>
<path d="M200.57 297.7L204.06 318.74L201.42 340.63" stroke="#020000" stroke-width="4" stroke-linecap="round" stroke-linejoin="round"/>
<path d="M190.06 275.98L184.62 284.78L176.15 281.98" stroke="black" stroke-width="6" stroke-linecap="round" stroke-linejoin="round"/>
<path d="M190.06 275.98L184.62 284.78L176.15 281.98" stroke="white" stroke-width="4" stroke-linecap="round" stroke-linejoin="round"/>
<path d="M190.06 275.98L184.62 284.78" stroke="black" stroke-width="6" stroke-linecap="round" stroke-linejoin="round"/>
<path d="M190.06 275.98L184.62 284.78" stroke="white" stroke-width="4" stroke-linecap="round" stroke-linejoin="round"/>
<path d="M195.39 273.12C199.062 273.12 202.04 270.143 202.04 266.47C202.04 262.797 199.062 259.82 195.39 259.82C191.717 259.82 188.74 262.797 188.74 266.47C188.74 270.143 191.717 273.12 195.39 273.12Z" fill="white" stroke="black" stroke-linecap="round" stroke-linejoin="round"/>
<path d="M195.39 271.66C197.601 271.66 199.723 272.539 201.287 274.103C202.851 275.667 203.73 277.788 203.73 280V305.42H187.06V280C187.06 277.788 187.938 275.667 189.502 274.103C191.066 272.539 193.188 271.66 195.4 271.66H195.39Z" fill="white" stroke="black" stroke-linecap="round" stroke-linejoin="round"/>
<path d="M202.6 275.16L209.7 285.6" stroke="black" stroke-width="6" stroke-linecap="round" stroke-linejoin="round"/>
<path d="M202.6 275.16L209.7 285.6" stroke="white" stroke-width="4" stroke-linecap="round" stroke-linejoin="round"/>
<path d="M248.66 271.66L256.78 263.47L254.72 249.52" stroke="black" stroke-width="6" stroke-linecap="round" stroke-linejoin="round"/>
<path d="M248.66 271.66L256.78 263.47L254.72 249.52" stroke="white" stroke-width="4" stroke-linecap="round" stroke-linejoin="round"/>
<path d="M248.66 271.66L256.78 263.47" stroke="black" stroke-width="6" stroke-linecap="round" stroke-linejoin="round"/>
<path d="M248.66 271.66L256.78 263.47" stroke="white" stroke-width="4" stroke-linecap="round" stroke-linejoin="round"/>
<path d="M236.87 300.63L232.13 319.91L236.87 340.22" stroke="black" stroke-width="6" stroke-linecap="round" stroke-linejoin="round"/>
<path d="M236.87 300.63L232.13 319.91L236.87 340.22" stroke="#020000" stroke-width="4" stroke-linecap="round" stroke-linejoin="round"/>
<path d="M247.43 297.7L245.44 318.82L248.28 340.63" stroke="black" stroke-width="6" stroke-linecap="round" stroke-linejoin="round"/>
<path d="M247.43 297.7L245.44 318.82L248.28 340.63" stroke="#020000" stroke-width="4" stroke-linecap="round" stroke-linejoin="round"/>
<path d="M235.9 274.12L228.34 263.47L229.68 248.01" stroke="black" stroke-width="6" stroke-linecap="round" stroke-linejoin="round"/>
<path d="M235.9 274.12L228.34 263.47L229.68 248.01" stroke="white" stroke-width="4" stroke-linecap="round" stroke-linejoin="round"/>
<path d="M235.9 274.12L228.34 263.47" stroke="black" stroke-width="6" stroke-linecap="round" stroke-linejoin="round"/>
<path d="M235.9 274.12L228.34 263.47" stroke="white" stroke-width="4" stroke-linecap="round" stroke-linejoin="round"/>
<path d="M242.25 270.43C245.922 270.43 248.9 267.453 248.9 263.78C248.9 260.107 245.922 257.13 242.25 257.13C238.577 257.13 235.6 260.107 235.6 263.78C235.6 267.453 238.577 270.43 242.25 270.43Z" fill="white" stroke="black" stroke-linecap="round" stroke-linejoin="round"/>
<path d="M242.25 268.66C244.462 268.66 246.583 269.539 248.147 271.103C249.711 272.667 250.59 274.788 250.59 277V305.42H233.92V277C233.92 274.79 234.797 272.67 236.359 271.106C237.921 269.543 240.04 268.663 242.25 268.66Z" fill="white" stroke="black" stroke-linecap="round" stroke-linejoin="round"/>
<path d="M261.69 252.52H221.51L222.52 223.29H260.68L261.69 252.52Z" fill="#FFE500" stroke="black" stroke-linecap="round" stroke-linejoin="round"/>
<path d="M282.02 275.16L289.12 285.6L300.41 283.4" stroke="black" stroke-width="6" stroke-linecap="round" stroke-linejoin="round"/>
<path d="M282.02 275.16L289.12 285.6L300.41 283.4" stroke="white" stroke-width="4" stroke-linecap="round" stroke-linejoin="round"/>
<path d="M269.42 300.63V319.16V340.22" stroke="black" stroke-width="6" stroke-linecap="round" stroke-linejoin="round"/>
<path d="M269.42 300.63V319.16V340.22" stroke="#020000" stroke-width="4" stroke-linecap="round" stroke-linejoin="round"/>
<path d="M279.99 297.7L283.47 318.74L280.84 340.63" stroke="black" stroke-width="6" stroke-linecap="round" stroke-linejoin="round"/>
<path d="M279.99 297.7L283.47 318.74L280.84 340.63" stroke="#020000" stroke-width="4" stroke-linecap="round" stroke-linejoin="round"/>
<path d="M269.48 275.98L264.04 284.78L255.56 281.98" stroke="black" stroke-width="6" stroke-linecap="round" stroke-linejoin="round"/>
<path d="M269.48 275.98L264.04 284.78L255.56 281.98" stroke="white" stroke-width="4" stroke-linecap="round" stroke-linejoin="round"/>
<path d="M269.47 275.98L264.04 284.78" stroke="black" stroke-width="6" stroke-linecap="round" stroke-linejoin="round"/>
<path d="M269.47 275.98L264.04 284.78" stroke="white" stroke-width="4" stroke-linecap="round" stroke-linejoin="round"/>
<path d="M274.81 273.12C278.482 273.12 281.46 270.143 281.46 266.47C281.46 262.797 278.482 259.82 274.81 259.82C271.137 259.82 268.16 262.797 268.16 266.47C268.16 270.143 271.137 273.12 274.81 273.12Z" fill="white" stroke="black" stroke-linecap="round" stroke-linejoin="round"/>
<path d="M274.81 271.66C277.022 271.66 279.143 272.539 280.707 274.103C282.271 275.667 283.15 277.788 283.15 280V305.42H266.47V280C266.47 277.788 267.348 275.667 268.912 274.103C270.476 272.539 272.598 271.66 274.81 271.66Z" fill="white" stroke="black" stroke-linecap="round" stroke-linejoin="round"/>
<path d="M282.02 275.16L289.12 285.6" stroke="black" stroke-width="6" stroke-linecap="round" stroke-linejoin="round"/>
<path d="M282.02 275.16L289.12 285.6" stroke="white" stroke-width="4" stroke-linecap="round" stroke-linejoin="round"/>
<path d="M318.74 300.63L323.47 319.91L318.74 340.22" stroke="black" stroke-width="6" stroke-linecap="round" stroke-linejoin="round"/>
<path d="M318.74 300.63L323.47 319.91L318.74 340.22" stroke="#020000" stroke-width="4" stroke-linecap="round" stroke-linejoin="round"/>
<path d="M308.17 297.7L310.17 318.82L307.32 340.63" stroke="black" stroke-width="6" stroke-linecap="round" stroke-linejoin="round"/>
<path d="M308.17 297.7L310.17 318.82L307.32 340.63" stroke="#020000" stroke-width="4" stroke-linecap="round" stroke-linejoin="round"/>
<path d="M319.7 277.12L325.13 285.92L334.98 281.16" stroke="black" stroke-width="6" stroke-linecap="round" stroke-linejoin="round"/>
<path d="M319.7 277.12L325.13 285.92L334.98 281.16" stroke="white" stroke-width="4" stroke-linecap="round" stroke-linejoin="round"/>
<path d="M319.7 277.12L325.13 285.92" stroke="black" stroke-width="6" stroke-linecap="round" stroke-linejoin="round"/>
<path d="M319.7 277.12L325.13 285.92" stroke="white" stroke-width="4" stroke-linecap="round" stroke-linejoin="round"/>
<path d="M315.77 273.12C319.442 273.12 322.42 270.143 322.42 266.47C322.42 262.797 319.442 259.82 315.77 259.82C312.097 259.82 309.12 262.797 309.12 266.47C309.12 270.143 312.097 273.12 315.77 273.12Z" fill="white" stroke="black" stroke-linecap="round" stroke-linejoin="round"/>
<path d="M321.7 305.41H305.02V279.99C305.02 277.778 305.898 275.657 307.462 274.093C309.026 272.529 311.148 271.65 313.36 271.65C315.572 271.65 317.693 272.529 319.257 274.093C320.821 275.657 321.7 277.778 321.7 279.99V305.41Z" fill="white" stroke="black" stroke-linecap="round" stroke-linejoin="round"/>
<path d="M307.32 273.74L300.04 263.04L300.88 248.52" stroke="black" stroke-width="6" stroke-linecap="round" stroke-linejoin="round"/>
<path d="M307.32 273.74L300.04 263.04L300.88 248.52" stroke="white" stroke-width="4" stroke-linecap="round" stroke-linejoin="round"/>
<path d="M307.32 273.74L300.04 263.04" stroke="black" stroke-width="6" stroke-linecap="round" stroke-linejoin="round"/>
<path d="M307.32 273.74L300.04 263.04" stroke="white" stroke-width="4" stroke-linecap="round" stroke-linejoin="round"/>
<path d="M361.44 275.16L368.54 285.6L379.83 283.4" stroke="black" stroke-width="6" stroke-linecap="round" stroke-linejoin="round"/>
<path d="M361.44 275.16L368.54 285.6L379.83 283.4" stroke="white" stroke-width="4" stroke-linecap="round" stroke-linejoin="round"/>
<path d="M348.84 300.63V319.16V340.22" stroke="black" stroke-width="6" stroke-linecap="round" stroke-linejoin="round"/>
<path d="M348.84 300.63V319.16V340.22" stroke="#020000" stroke-width="4" stroke-linecap="round" stroke-linejoin="round"/>
<path d="M359.41 297.7L362.89 318.74L360.26 340.63" stroke="black" stroke-width="6" stroke-linecap="round" stroke-linejoin="round"/>
<path d="M359.41 297.7L362.89 318.74L360.26 340.63" stroke="#020000" stroke-width="4" stroke-linecap="round" stroke-linejoin="round"/>
<path d="M348.89 275.98L343.46 284.78L334.98 281.98" stroke="black" stroke-width="6" stroke-linecap="round" stroke-linejoin="round"/>
<path d="M348.89 275.98L343.46 284.78L334.98 281.98" stroke="white" stroke-width="4" stroke-linecap="round" stroke-linejoin="round"/>
<path d="M348.89 275.98L343.46 284.78" stroke="black" stroke-width="6" stroke-linecap="round" stroke-linejoin="round"/>
<path d="M348.89 275.98L343.46 284.78" stroke="white" stroke-width="4" stroke-linecap="round" stroke-linejoin="round"/>
<path d="M354.23 273.12C357.902 273.12 360.88 270.143 360.88 266.47C360.88 262.797 357.902 259.82 354.23 259.82C350.557 259.82 347.58 262.797 347.58 266.47C347.58 270.143 350.557 273.12 354.23 273.12Z" fill="white" stroke="black" stroke-linecap="round" stroke-linejoin="round"/>
<path d="M354.23 271.66C356.442 271.66 358.563 272.539 360.127 274.103C361.691 275.667 362.57 277.788 362.57 280V305.42H345.89V280C345.89 277.788 346.768 275.667 348.332 274.103C349.896 272.539 352.018 271.66 354.23 271.66Z" fill="white" stroke="black" stroke-linecap="round" stroke-linejoin="round"/>
<path d="M361.44 275.16L368.53 285.6" stroke="black" stroke-width="6" stroke-linecap="round" stroke-linejoin="round"/>
<path d="M361.44 275.16L368.53 285.6" stroke="white" stroke-width="4" stroke-linecap="round" stroke-linejoin="round"/>
<path d="M97.9497 128.35H92.4097V338.55H97.9497V128.35Z" fill="white" stroke="black" stroke-linecap="round" stroke-linejoin="round"/>
<path d="M107.8 137.45H77.0298V181.36H107.8V137.45Z" fill="#020000" stroke="black" stroke-linecap="round" stroke-linejoin="round"/>
<path d="M105.49 132.02H77.0298V186.81H105.49V132.02Z" fill="#020000" stroke="black" stroke-linecap="round" stroke-linejoin="round"/>
<path d="M100.76 132.02H77.0298V186.81H100.76V132.02Z" fill="white" stroke="black" stroke-linecap="round" stroke-linejoin="round"/>
<path d="M98.1096 143.75C98.1785 144.677 98.0552 145.608 97.7476 146.485C97.4399 147.361 96.9546 148.165 96.3219 148.846C95.6891 149.527 94.9227 150.069 94.0706 150.44C93.2184 150.81 92.2989 151.001 91.3696 151H81.9996C80.2094 151 78.4925 150.289 77.2267 149.023C75.9608 147.757 75.2496 146.04 75.2496 144.25C75.2444 143.36 75.415 142.477 75.7517 141.653C76.0885 140.829 76.5847 140.079 77.2119 139.448C77.8391 138.816 78.5849 138.314 79.4065 137.971C80.2281 137.628 81.1094 137.451 81.9996 137.45H91.1596C92.8976 137.435 94.5773 138.075 95.865 139.243C97.1527 140.41 97.954 142.019 98.1096 143.75Z" fill="white" stroke="black" stroke-linecap="round" stroke-linejoin="round"/>
<path d="M88.7296 144.21V151H81.9996C80.2094 151 78.4925 150.289 77.2267 149.023C75.9608 147.757 75.2496 146.04 75.2496 144.25C75.2147 143.341 75.3635 142.434 75.6872 141.584C76.0109 140.734 76.5028 139.958 77.1335 139.303C77.7643 138.647 78.5208 138.126 79.3578 137.77C80.1947 137.414 81.095 137.23 82.0046 137.23C82.9142 137.23 83.8145 137.414 84.6515 137.77C85.4885 138.126 86.245 138.647 86.8757 139.303C87.5064 139.958 87.9984 140.734 88.3221 141.584C88.6458 142.434 88.7946 143.341 88.7596 144.25L88.7296 144.21Z" fill="#020000" stroke="black" stroke-linecap="round" stroke-linejoin="round"/>
<path d="M87.9499 150.97C91.6834 150.97 94.7099 147.943 94.7099 144.21C94.7099 140.477 91.6834 137.45 87.9499 137.45C84.2165 137.45 81.1899 140.477 81.1899 144.21C81.1899 147.943 84.2165 150.97 87.9499 150.97Z" fill="white" stroke="black" stroke-linecap="round" stroke-linejoin="round"/>
<path d="M91.15 137.45H82C82.8877 137.45 83.7668 137.625 84.5869 137.965C85.4071 138.304 86.1523 138.802 86.78 139.43C87.4078 140.058 87.9057 140.803 88.2454 141.623C88.5851 142.443 88.76 143.322 88.76 144.21V148.33C88.756 148.677 88.8204 149.021 88.9494 149.343C89.0785 149.664 89.2696 149.958 89.512 150.206C89.7543 150.454 90.0432 150.651 90.362 150.788C90.6808 150.924 91.0233 150.996 91.37 151C92.3423 151.001 93.3033 150.792 94.1873 150.387C95.0713 149.982 95.8573 149.391 96.4917 148.654C97.126 147.917 97.5936 147.052 97.8626 146.117C98.1316 145.183 98.1955 144.201 98.05 143.24C97.7842 141.608 96.9415 140.126 95.6751 139.064C94.4088 138.001 92.803 137.429 91.15 137.45Z" fill="white" stroke="black" stroke-linecap="round" stroke-linejoin="round"/>
<path d="M98.11 159.19C98.1731 160.114 98.0455 161.04 97.7353 161.912C97.4251 162.784 96.9388 163.583 96.3067 164.26C95.6746 164.936 94.9101 165.475 94.0608 165.843C93.2116 166.211 92.2957 166.401 91.37 166.4H82C80.2098 166.4 78.4929 165.689 77.227 164.423C75.9612 163.157 75.25 161.44 75.25 159.65C75.25 157.859 75.9608 156.141 77.2264 154.874C78.492 153.606 80.2089 152.893 82 152.89H91.16C92.8979 152.875 94.5777 153.515 95.8654 154.683C97.153 155.85 97.9543 157.459 98.11 159.19Z" fill="white" stroke="black" stroke-linecap="round" stroke-linejoin="round"/>
<path d="M88.7296 159.65V166.4H81.9996C80.2094 166.4 78.4925 165.689 77.2267 164.423C75.9608 163.157 75.2496 161.44 75.2496 159.65C75.2147 158.741 75.3635 157.834 75.6872 156.984C76.0109 156.134 76.5028 155.358 77.1335 154.703C77.7643 154.047 78.5208 153.526 79.3578 153.17C80.1947 152.814 81.095 152.63 82.0046 152.63C82.9142 152.63 83.8145 152.814 84.6515 153.17C85.4885 153.526 86.245 154.047 86.8757 154.703C87.5064 155.358 87.9984 156.134 88.3221 156.984C88.6458 157.834 88.7946 158.741 88.7596 159.65H88.7296Z" fill="#020000" stroke="black" stroke-linecap="round" stroke-linejoin="round"/>
<path d="M87.9499 166.41C91.6834 166.41 94.7099 163.383 94.7099 159.65C94.7099 155.917 91.6834 152.89 87.9499 152.89C84.2165 152.89 81.1899 155.917 81.1899 159.65C81.1899 163.383 84.2165 166.41 87.9499 166.41Z" fill="#FFE500" stroke="black" stroke-linecap="round" stroke-linejoin="round"/>
<path d="M91.15 152.89H82C82.8877 152.89 83.7668 153.065 84.5869 153.405C85.4071 153.744 86.1523 154.242 86.78 154.87C87.4078 155.498 87.9057 156.243 88.2454 157.063C88.5851 157.883 88.76 158.762 88.76 159.65V163.77C88.7626 164.468 89.042 165.137 89.5368 165.63C90.0316 166.123 90.7016 166.4 91.4 166.4C92.3723 166.401 93.3333 166.192 94.2173 165.787C95.1013 165.382 95.8873 164.791 96.5217 164.054C97.156 163.317 97.6236 162.452 97.8926 161.517C98.1616 160.583 98.2255 159.601 98.08 158.64C97.8049 157.011 96.954 155.534 95.6823 154.479C94.4105 153.424 92.8023 152.86 91.15 152.89Z" fill="white" stroke="black" stroke-linecap="round" stroke-linejoin="round"/>
<path d="M98.11 174.63C98.1731 175.554 98.0455 176.48 97.7353 177.352C97.4251 178.224 96.9388 179.023 96.3067 179.7C95.6746 180.376 94.9101 180.915 94.0608 181.283C93.2116 181.651 92.2957 181.841 91.37 181.84H82C80.2098 181.84 78.4929 181.129 77.227 179.863C75.9612 178.597 75.25 176.88 75.25 175.09C75.25 173.299 75.9608 171.581 77.2264 170.314C78.492 169.046 80.2089 168.333 82 168.33H91.16C92.8979 168.315 94.5777 168.955 95.8654 170.123C97.153 171.29 97.9543 172.899 98.11 174.63Z" fill="white" stroke="black" stroke-linecap="round" stroke-linejoin="round"/>
<path d="M88.7296 175.09V181.84H81.9996C80.2094 181.84 78.4925 181.129 77.2267 179.863C75.9608 178.597 75.2496 176.88 75.2496 175.09C75.2147 174.181 75.3635 173.274 75.6872 172.424C76.0109 171.574 76.5028 170.798 77.1335 170.143C77.7643 169.487 78.5208 168.966 79.3578 168.61C80.1947 168.254 81.095 168.07 82.0046 168.07C82.9142 168.07 83.8145 168.254 84.6515 168.61C85.4885 168.966 86.245 169.487 86.8757 170.143C87.5064 170.798 87.9984 171.574 88.3221 172.424C88.6458 173.274 88.7946 174.181 88.7596 175.09H88.7296Z" fill="#020000" stroke="black" stroke-linecap="round" stroke-linejoin="round"/>
<path d="M87.9499 181.85C91.6834 181.85 94.7099 178.823 94.7099 175.09C94.7099 171.357 91.6834 168.33 87.9499 168.33C84.2165 168.33 81.1899 171.357 81.1899 175.09C81.1899 178.823 84.2165 181.85 87.9499 181.85Z" fill="white" stroke="black" stroke-linecap="round" stroke-linejoin="round"/>
<path d="M91.15 168.33H82C82.8877 168.33 83.7668 168.505 84.5869 168.845C85.4071 169.184 86.1523 169.682 86.78 170.31C87.4078 170.938 87.9057 171.683 88.2454 172.503C88.5851 173.323 88.76 174.202 88.76 175.09V179.21C88.7626 179.908 89.042 180.577 89.5368 181.07C90.0316 181.563 90.7016 181.84 91.4 181.84C92.3723 181.841 93.3333 181.632 94.2173 181.227C95.1013 180.822 95.8873 180.231 96.5217 179.494C97.156 178.757 97.6236 177.892 97.8926 176.957C98.1616 176.023 98.2255 175.041 98.08 174.08C97.8049 172.451 96.954 170.974 95.6823 169.919C94.4105 168.863 92.8023 168.3 91.15 168.33Z" fill="white" stroke="black" stroke-linecap="round" stroke-linejoin="round"/>
<path d="M113.68 338.55H76.6899V343.42H113.68V338.55Z" fill="#020000" stroke="black" stroke-linecap="round" stroke-linejoin="round"/>
<path d="M103.3 338.55H76.6899V343.42H103.3V338.55Z" fill="white" stroke="black" stroke-linecap="round" stroke-linejoin="round"/>
<path d="M427.45 338.4H433.16V148.75H427.45V338.4Z" fill="white" stroke="black" stroke-linecap="round" stroke-linejoin="round"/>
<path d="M411.26 343.42H449.36V338.41H411.26V343.42Z" fill="#020000" stroke="black" stroke-linecap="round" stroke-linejoin="round"/>
<path d="M421.94 343.42H449.36V338.41H421.94V343.42Z" fill="white" stroke="black" stroke-linecap="round" stroke-linejoin="round"/>
<path d="M392.74 217.49H459.09C459.432 217.489 459.77 217.415 460.081 217.271C460.391 217.128 460.667 216.92 460.89 216.66L470.82 205.17C471.227 204.691 471.45 204.083 471.45 203.455C471.45 202.827 471.227 202.219 470.82 201.74L460.89 190.25C460.667 189.99 460.391 189.782 460.081 189.639C459.77 189.496 459.432 189.421 459.09 189.42H392.74C392.081 189.438 391.457 189.717 391.003 190.195C390.55 190.673 390.304 191.311 390.32 191.97V214.97C390.312 215.624 390.561 216.254 391.014 216.726C391.467 217.197 392.087 217.472 392.74 217.49Z" fill="#020000" stroke="black" stroke-linecap="round" stroke-linejoin="round"/>
<path d="M402.17 217.49H459.79C460.13 217.488 460.467 217.413 460.775 217.27C461.084 217.127 461.359 216.919 461.58 216.66L471.51 205.17C471.917 204.691 472.14 204.083 472.14 203.455C472.14 202.827 471.917 202.219 471.51 201.74L461.58 190.25C461.359 189.991 461.084 189.783 460.775 189.64C460.467 189.497 460.13 189.422 459.79 189.42H402.17C401.843 189.428 401.521 189.5 401.222 189.632C400.922 189.765 400.652 189.955 400.427 190.192C400.201 190.428 400.024 190.707 399.906 191.012C399.789 191.318 399.732 191.643 399.74 191.97V214.97C399.732 215.625 399.983 216.257 400.437 216.729C400.892 217.201 401.515 217.474 402.17 217.49Z" fill="white" stroke="black" stroke-linecap="round" stroke-linejoin="round"/>
<path d="M443.21 210.61H451.62V196.29H443.21V210.61Z" fill="#020000" stroke="black" stroke-linecap="round" stroke-linejoin="round"/>
<path d="M431.57 210.61H439.98V196.29H431.57V210.61Z" fill="#020000" stroke="black" stroke-linecap="round" stroke-linejoin="round"/>
<path d="M419.92 210.61H428.33V196.29H419.92V210.61Z" fill="#020000" stroke="black" stroke-linecap="round" stroke-linejoin="round"/>
<path d="M408.28 210.61H416.69V196.29H408.28V210.61Z" fill="#020000" stroke="black" stroke-linecap="round" stroke-linejoin="round"/>
<path d="M393.79 184.43H460.14C460.481 184.428 460.818 184.352 461.127 184.207C461.436 184.062 461.71 183.852 461.93 183.59L471.86 172.11C472.266 171.631 472.489 171.023 472.489 170.395C472.489 169.767 472.266 169.159 471.86 168.68L461.93 157.19C461.708 156.931 461.434 156.723 461.125 156.58C460.816 156.437 460.48 156.362 460.14 156.36H393.79C393.463 156.368 393.141 156.44 392.843 156.572C392.544 156.705 392.275 156.895 392.05 157.132C391.825 157.369 391.649 157.648 391.532 157.953C391.416 158.258 391.36 158.583 391.37 158.91V181.91C391.359 182.564 391.607 183.196 392.061 183.668C392.514 184.141 393.135 184.414 393.79 184.43Z" fill="#020000" stroke="black" stroke-linecap="round" stroke-linejoin="round"/>
<path d="M403.21 184.43H460.83C461.173 184.43 461.512 184.355 461.823 184.21C462.134 184.064 462.41 183.853 462.63 183.59L472.56 172.11C472.967 171.631 473.19 171.023 473.19 170.395C473.19 169.767 472.967 169.159 472.56 168.68L462.63 157.19C462.407 156.93 462.131 156.722 461.821 156.579C461.51 156.435 461.172 156.361 460.83 156.36H403.21C402.883 156.368 402.562 156.44 402.263 156.572C401.965 156.705 401.695 156.895 401.47 157.132C401.245 157.369 401.069 157.648 400.953 157.953C400.836 158.258 400.781 158.583 400.79 158.91V181.91C400.779 182.564 401.028 183.196 401.481 183.668C401.934 184.141 402.556 184.414 403.21 184.43Z" fill="white" stroke="black" stroke-linecap="round" stroke-linejoin="round"/>
<path d="M444.26 177.55H452.67V163.23H444.26V177.55Z" fill="#020000" stroke="black" stroke-linecap="round" stroke-linejoin="round"/>
<path d="M432.61 177.55H441.02V163.23H432.61V177.55Z" fill="#020000" stroke="black" stroke-linecap="round" stroke-linejoin="round"/>
<path d="M420.97 177.55H429.38V163.23H420.97V177.55Z" fill="#020000" stroke="black" stroke-linecap="round" stroke-linejoin="round"/>
<path d="M409.32 177.55H417.73V163.23H409.32V177.55Z" fill="#020000" stroke="black" stroke-linecap="round" stroke-linejoin="round"/>
<path d="M430.88 281.98H96.29V328.67H430.88V281.98Z" fill="white" stroke="black" stroke-linecap="round" stroke-linejoin="round"/>
<path d="M162.3 300.52C161.246 300.317 160.304 299.735 159.651 298.883C158.999 298.031 158.682 296.97 158.76 295.9C158.686 294.787 158.998 293.682 159.643 292.772C160.287 291.862 161.225 291.201 162.3 290.9V300.52ZM162.91 294.29V290.77C163.28 290.709 163.654 290.679 164.03 290.68C164.867 290.637 165.702 290.797 166.464 291.145C167.226 291.493 167.894 292.02 168.41 292.68L165.94 294.62C165.725 294.344 165.446 294.125 165.127 293.982C164.808 293.839 164.458 293.777 164.11 293.8C163.887 293.797 163.666 293.839 163.46 293.923C163.254 294.007 163.067 294.132 162.91 294.29ZM162.91 300.62V297.22C163.235 297.526 163.663 297.697 164.11 297.7C164.45 297.709 164.788 297.638 165.095 297.492C165.403 297.346 165.672 297.13 165.88 296.86L168.41 298.76C167.89 299.413 167.22 299.931 166.458 300.27C165.695 300.609 164.863 300.76 164.03 300.71C163.654 300.711 163.28 300.681 162.91 300.62Z" fill="black"/>
<path d="M172.64 290.86V300.48H169.43V290.86H172.64ZM178.51 290.86V300.48H175.3V297.15H173.25V294.15H175.3V290.84L178.51 290.86Z" fill="black"/>
<path d="M182.83 300.48H179.59L183.08 290.86H183.35L184.47 295.08L182.83 300.48ZM185.53 296.68L184 290.86H186.51L189.99 300.48H186.76L186.28 298.96H183.96L184.68 296.68H185.53Z" fill="black"/>
<path d="M191.05 290.93V290.87H194.26C194.26 290.87 194.62 291.44 196.73 294.62V299.53L191.05 290.93ZM191.05 300.48V292.08L194.26 296.93V300.48H191.05ZM200.57 290.86V300.48H197.35V290.86H200.57Z" fill="black"/>
<path d="M205.21 291V300.37C204.273 300.116 203.447 299.555 202.866 298.778C202.284 298 201.979 297.051 202 296.08V295.28C201.978 294.31 202.282 293.361 202.865 292.585C203.447 291.809 204.272 291.251 205.21 291ZM205.82 293.79V290.84C206.254 290.75 206.696 290.706 207.14 290.71C207.98 290.664 208.819 290.822 209.585 291.17C210.351 291.518 211.022 292.047 211.54 292.71L208.83 294.13C208.467 293.701 207.954 293.427 207.396 293.366C206.837 293.304 206.277 293.46 205.83 293.8L205.82 293.79ZM208.82 297.43H212C211.656 298.435 210.989 299.297 210.101 299.88C209.214 300.463 208.158 300.734 207.1 300.65C206.656 300.65 206.214 300.607 205.78 300.52V297.52C206.158 297.859 206.652 298.042 207.16 298.03C207.459 298.066 207.762 298.029 208.044 297.923C208.326 297.816 208.578 297.644 208.78 297.42L208.82 297.43ZM206.48 294.61H212.31V295.78C212.31 296.115 212.28 296.45 212.22 296.78H206.48V294.61Z" fill="black"/>
<path d="M213.63 290.86H216.81V300.48H213.63V290.86ZM217.42 293.27V290.86H221.17V293.27H217.42ZM217.42 296.81V294.53H220.67V296.81H217.42ZM217.42 300.48V298.09H221.17V300.48H217.42Z" fill="black"/>
<path d="M225.5 291V296.11C225.5 296.613 225.698 297.096 226.052 297.454C226.406 297.811 226.887 298.015 227.39 298.02C227.865 298.027 228.325 297.848 228.67 297.52V300.52C228.248 300.601 227.819 300.641 227.39 300.64C224.54 300.64 222.28 299.04 222.28 296.11V295.22C222.254 294.255 222.56 293.31 223.145 292.542C223.731 291.774 224.562 291.23 225.5 291ZM229.28 295.31C229.284 294.941 229.18 294.579 228.98 294.269C228.78 293.958 228.493 293.714 228.155 293.566C227.817 293.417 227.443 293.372 227.079 293.435C226.715 293.498 226.378 293.667 226.11 293.92V290.85C226.533 290.777 226.961 290.74 227.39 290.74C230.25 290.74 232.52 292.33 232.52 295.27V296.16C232.547 297.134 232.24 298.089 231.651 298.865C231.062 299.641 230.225 300.194 229.28 300.43V295.31Z" fill="black"/>
<path d="M233.94 290.93V290.87H237.15C237.15 290.87 237.51 291.44 239.62 294.62V299.53L233.94 290.93ZM233.94 300.48V292.08L237.15 296.93V300.48H233.94ZM243.46 290.86V300.48H240.24V290.86H243.46Z" fill="black"/>
<path d="M248.23 290.74V293.6C248.23 294.11 249.23 294.2 250.36 294.39C252.66 294.76 253.74 295.88 253.74 297.45C253.74 298.78 252.74 300.2 250.38 300.51V297.58C250.38 296.39 244.89 297.45 244.89 293.65C244.89 292.21 245.8 291 248.23 290.74ZM249.77 298.19V300.55H249.38C247.855 300.568 246.353 300.178 245.03 299.42C245.44 298.75 245.87 298.11 246.28 297.42C247.187 297.956 248.227 298.223 249.28 298.19C249.442 298.208 249.607 298.208 249.77 298.19ZM248.84 293.05V290.7H249.13C250.587 290.682 252.022 291.062 253.28 291.8L252.09 293.8C251.254 293.317 250.314 293.042 249.35 293C249.178 292.999 249.007 293.016 248.84 293.05Z" fill="black"/>
<path d="M258.52 290.86H261.73V300.48H258.52V290.86ZM266 297.5V300.5H262.39V297.5H266Z" fill="black"/>
<path d="M267.19 290.86H270.37V300.48H267.19V290.86ZM270.98 293.27V290.86H274.73V293.27H270.98ZM270.98 296.81V294.53H274.24V296.81H270.98ZM270.98 300.48V298.09H274.73V300.48H270.98Z" fill="black"/>
<path d="M282.54 290.74V293.6C282.54 294.11 283.54 294.2 284.67 294.39C286.97 294.76 288.05 295.88 288.05 297.45C288.05 298.78 287.05 300.2 284.69 300.51V297.58C284.69 296.39 279.2 297.45 279.2 293.65C279.2 292.21 280.11 291 282.54 290.74ZM284.08 298.19V300.55H283.69C282.165 300.568 280.663 300.178 279.34 299.42C279.75 298.75 280.18 298.11 280.59 297.42C281.497 297.956 282.537 298.223 283.59 298.19C283.753 298.208 283.917 298.208 284.08 298.19ZM283.15 293.05V290.7H283.44C284.897 290.682 286.332 291.062 287.59 291.8L286.4 293.8C285.564 293.317 284.624 293.042 283.66 293C283.488 292.999 283.317 293.016 283.15 293.05Z" fill="black"/>
<path d="M295.43 297V300.46H292.22V296.7L288.72 290.86H292.13L292.35 291.28L295.43 297ZM298.95 290.84L295.75 296.15L294.21 293.31L295.53 290.84H298.95Z" fill="black"/>
<path d="M303 290.74V293.6C303 294.11 304 294.2 305.13 294.39C307.43 294.76 308.5 295.88 308.5 297.45C308.5 298.78 307.5 300.2 305.15 300.51V297.58C305.15 296.39 299.65 297.45 299.65 293.65C299.62 292.21 300.54 291 303 290.74ZM304.54 298.19V300.55H304.14C302.618 300.569 301.119 300.178 299.8 299.42C300.21 298.75 300.64 298.11 301.05 297.42C301.957 297.956 302.997 298.223 304.05 298.19C304.203 298.206 304.357 298.206 304.51 298.19H304.54ZM303.61 293.05V290.7H303.9C305.357 290.682 306.792 291.062 308.05 291.8L306.86 293.8C306.021 293.315 305.077 293.041 304.11 293C303.932 292.997 303.754 293.014 303.58 293.05H303.61Z" fill="black"/>
<path d="M317.47 293.85H309.31V290.85H317.47V293.85ZM311.78 300.48V294.48H315V300.48H311.78Z" fill="black"/>
<path d="M318.71 290.86H321.89V300.48H318.71V290.86ZM323.94 289.71H322.2L320.79 288H323.1C323.38 288.57 323.65 289.16 323.94 289.71ZM322.5 293.27V290.86H326.25V293.27H322.5ZM322.5 296.81V294.53H325.76V296.81H322.5ZM322.5 300.48V298.09H326.25V300.48H322.5Z" fill="black"/>
<path d="M327.42 300.48L327.93 291.6L330.93 297.18L330.66 300.48H327.42ZM332.72 299.23L328.23 290.86H331.23L333.23 294.86H333.29L334.56 292.33L334.93 297.05L333.77 299.25L332.72 299.23ZM338.46 290.86C338.64 294.07 338.81 297.28 339 300.48H335.79L335.06 291.25L335.25 290.86H338.46Z" fill="black"/>
<path d="M340.49 290.86H343.67V300.48H340.49V290.86ZM344.28 293.27V290.86H348V293.27H344.28ZM344.28 296.81V294.53H347.54V296.81H344.28ZM344.28 300.48V298.09H348V300.48H344.28Z" fill="black"/>
<path d="M159.86 321.31V304.9H165.34V321.31H159.86ZM166.39 317.49V313.42H167.9C168.156 313.427 168.412 313.381 168.65 313.286C168.889 313.191 169.105 313.049 169.287 312.867C169.469 312.686 169.611 312.469 169.706 312.231C169.801 311.992 169.847 311.737 169.84 311.48V310.91C169.85 310.654 169.807 310.399 169.712 310.16C169.618 309.922 169.475 309.706 169.292 309.526C169.11 309.346 168.891 309.207 168.652 309.116C168.412 309.025 168.156 308.986 167.9 309H166.39V304.9H169.66C170.406 304.889 171.148 305.029 171.838 305.312C172.529 305.595 173.156 306.015 173.68 306.547C174.204 307.079 174.615 307.711 174.889 308.406C175.162 309.101 175.292 309.844 175.27 310.59V311.78C175.294 312.521 175.169 313.26 174.902 313.952C174.635 314.643 174.231 315.274 173.715 315.807C173.199 316.34 172.581 316.763 171.899 317.053C171.216 317.342 170.481 317.49 169.74 317.49H166.39Z" fill="black"/>
<path d="M181.46 321.31H175.93L181.93 304.88H182.4L184.31 312.1L181.46 321.31ZM186.08 314.83L183.42 304.88H187.72L193.65 321.31H188.14L187.32 318.73H183.32L184.56 314.83H186.08Z" fill="black"/>
<path d="M200.51 304.68V309.57C200.51 310.44 202.2 310.57 204.16 310.91C208.09 311.56 209.92 313.47 209.92 316.15C209.92 318.41 208.28 320.84 204.19 321.36V316.36C204.19 314.36 194.8 316.14 194.8 309.63C194.8 307.19 196.37 305.08 200.51 304.68ZM203.14 317.42V321.42C202.92 321.42 202.7 321.42 202.48 321.42C199.875 321.456 197.308 320.79 195.05 319.49C195.75 318.34 196.49 317.25 197.19 316.11C198.748 317.035 200.539 317.493 202.35 317.43C202.613 317.454 202.878 317.451 203.14 317.42ZM201.56 308.63V304.63H202.05C204.545 304.594 207.003 305.248 209.15 306.52L207.15 309.95C205.718 309.126 204.11 308.656 202.46 308.58C202.159 308.565 201.857 308.581 201.56 308.63Z" fill="black"/>
<path d="M218.1 304.88H223.59V321.31H218.1V304.88ZM230.79 316.22V321.31H224.63V316.22H230.79Z" fill="black"/>
<path d="M232.9 304.88H238.34V321.31H232.9V304.88ZM239.38 309V304.88H245.79V309H239.38ZM239.38 315.06V311.16H244.94V315.06H239.38ZM239.38 321.31V317.24H245.79V321.31H239.38Z" fill="black"/>
<path d="M259.4 321.39C255.48 320.47 253.34 317.59 253.34 313.49C253.34 309.39 255.48 306.07 259.4 304.98V321.39ZM260.4 310.74V304.74C261.035 304.638 261.677 304.587 262.32 304.59C265.64 304.59 268.32 305.86 269.79 307.94L265.57 311.24C265.202 310.769 264.724 310.396 264.179 310.154C263.633 309.911 263.036 309.807 262.44 309.85C261.682 309.872 260.963 310.192 260.44 310.74H260.4ZM260.4 321.56V315.75C260.941 316.262 261.654 316.555 262.4 316.57C262.978 316.582 263.55 316.457 264.071 316.207C264.592 315.957 265.048 315.588 265.4 315.13L269.72 318.38C268.23 320.47 265.6 321.71 262.25 321.71C261.644 321.707 261.038 321.657 260.44 321.56H260.4Z" fill="black"/>
<path d="M271.57 304.88H277.06V321.31H271.57V304.88ZM284.26 316.22V321.31H278.1V316.22H284.26Z" fill="black"/>
<path d="M291.86 321.31H286.38V304.88H291.86V321.31Z" fill="black"/>
<path d="M294.4 321.31L295.27 306.14L300.38 315.68L299.91 321.31H294.4ZM303.46 319.18L295.79 304.88H300.88L304.28 311.68H304.38L306.54 307.36L307.19 315.43L305.19 319.18H303.46ZM313.27 304.88C313.57 310.36 313.87 315.88 314.19 321.31H308.7L307.46 305.55L307.78 304.88H313.27Z" fill="black"/>
<path d="M321 321.31H315.47L321.47 304.88H321.94L323.85 312.1L321 321.31ZM325.62 314.83L322.97 304.88H327.26L333.2 321.31H327.68L326.86 318.73H322.86L324.1 314.83H325.62Z" fill="black"/>
<path d="M347.33 310H333.33V304.9H347.33V310ZM337.59 321.32V311H343.08V321.28L337.59 321.32Z" fill="black"/>
<path d="M48.0298 343.42H497.66" stroke="#020000" stroke-linecap="round" stroke-linejoin="round"/>
<path d="M404.2 303.29H342.9V330.35H404.2V303.29Z" fill="#020000" stroke="black" stroke-linecap="round" stroke-linejoin="round"/>
<path d="M402.67 311.85H394.06C389.19 312.14 385.3 319.07 385.3 327.6C385.3 336.13 389.19 343.05 394.06 343.35H394.22H394.38H394.55H402.36C402.463 343.36 402.567 343.36 402.67 343.35C407.67 343.35 411.76 336.28 411.76 327.57C411.76 318.86 407.69 311.85 402.67 311.85Z" fill="black" stroke="#020000" stroke-linecap="round" stroke-linejoin="round"/>
<path d="M394.38 343.42C399.4 343.42 403.47 336.355 403.47 327.64C403.47 318.925 399.4 311.86 394.38 311.86C389.36 311.86 385.29 318.925 385.29 327.64C385.29 336.355 389.36 343.42 394.38 343.42Z" fill="black" stroke="#020000" stroke-linecap="round" stroke-linejoin="round"/>
<path d="M394.38 336.05C397.053 336.05 399.22 332.285 399.22 327.64C399.22 322.995 397.053 319.23 394.38 319.23C391.707 319.23 389.54 322.995 389.54 327.64C389.54 332.285 391.707 336.05 394.38 336.05Z" fill="white" stroke="black" stroke-linecap="round" stroke-linejoin="round"/>
<path d="M370.92 311.85H362.31C357.44 312.14 353.55 319.07 353.55 327.6C353.55 336.13 357.44 343.05 362.31 343.35H362.47H362.63H362.8H370.61C370.713 343.36 370.817 343.36 370.92 343.35C375.92 343.35 380.01 336.28 380.01 327.57C380.01 318.86 375.94 311.85 370.92 311.85Z" fill="black" stroke="#020000" stroke-linecap="round" stroke-linejoin="round"/>
<path d="M362.63 343.42C367.65 343.42 371.72 336.355 371.72 327.64C371.72 318.925 367.65 311.86 362.63 311.86C357.61 311.86 353.54 318.925 353.54 327.64C353.54 336.355 357.61 343.42 362.63 343.42Z" fill="black" stroke="#020000" stroke-linecap="round" stroke-linejoin="round"/>
<path d="M362.63 336.05C365.303 336.05 367.47 332.285 367.47 327.64C367.47 322.995 365.303 319.23 362.63 319.23C359.957 319.23 357.79 322.995 357.79 327.64C357.79 332.285 359.957 336.05 362.63 336.05Z" fill="white" stroke="black" stroke-linecap="round" stroke-linejoin="round"/>
<path d="M489.64 311.85H481C476.13 312.14 472.23 319.07 472.23 327.6C472.23 336.13 476.13 343.05 481 343.35H481.15H481.32H481.48H489.3C489.403 343.36 489.507 343.36 489.61 343.35C494.61 343.35 498.69 336.28 498.69 327.57C498.69 318.86 494.66 311.85 489.64 311.85Z" fill="black" stroke="#020000" stroke-linecap="round" stroke-linejoin="round"/>
<path d="M481.35 343.42C486.37 343.42 490.44 336.355 490.44 327.64C490.44 318.925 486.37 311.86 481.35 311.86C476.329 311.86 472.26 318.925 472.26 327.64C472.26 336.355 476.329 343.42 481.35 343.42Z" fill="black" stroke="#020000" stroke-linecap="round" stroke-linejoin="round"/>
<path d="M481.35 336.05C484.023 336.05 486.19 332.285 486.19 327.64C486.19 322.995 484.023 319.23 481.35 319.23C478.677 319.23 476.51 322.995 476.51 327.64C476.51 332.285 478.677 336.05 481.35 336.05Z" fill="white" stroke="black" stroke-linecap="round" stroke-linejoin="round"/>
<path d="M455.65 311.85H447C442.14 312.14 438.24 319.07 438.24 327.6C438.24 336.13 442.14 343.05 447 343.35H447.16H447.33H447.49H455.31C455.413 343.36 455.517 343.36 455.62 343.35C460.62 343.35 464.7 336.28 464.7 327.57C464.7 318.86 460.66 311.85 455.65 311.85Z" fill="black" stroke="#020000" stroke-linecap="round" stroke-linejoin="round"/>
<path d="M447.36 343.42C452.38 343.42 456.45 336.355 456.45 327.64C456.45 318.925 452.38 311.86 447.36 311.86C442.34 311.86 438.27 318.925 438.27 327.64C438.27 336.355 442.34 343.42 447.36 343.42Z" fill="black" stroke="#020000" stroke-linecap="round" stroke-linejoin="round"/>
<path d="M447.36 336.05C450.033 336.05 452.2 332.285 452.2 327.64C452.2 322.995 450.033 319.23 447.36 319.23C444.687 319.23 442.52 322.995 442.52 327.64C442.52 332.285 444.687 336.05 447.36 336.05Z" fill="white" stroke="black" stroke-linecap="round" stroke-linejoin="round"/>
<path d="M367 249.42L356.2 283.13C355.646 284.871 354.553 286.39 353.079 287.469C351.605 288.547 349.826 289.129 348 289.13C345.927 289.13 343.924 289.878 342.357 291.235C340.791 292.592 339.766 294.468 339.47 296.52L335.12 326.83C335.057 327.267 335.089 327.713 335.213 328.137C335.337 328.561 335.551 328.953 335.841 329.287C336.13 329.621 336.488 329.889 336.89 330.072C337.292 330.255 337.728 330.35 338.17 330.35H348.55C349.336 330.355 350.094 330.061 350.671 329.528C351.248 328.995 351.602 328.263 351.66 327.48C352.3 317.13 356.39 308.86 361.5 308.86C366.61 308.86 370.7 317.13 371.35 327.48C371.406 328.263 371.757 328.995 372.333 329.527C372.909 330.06 373.665 330.355 374.45 330.35H378.39C379.159 330.336 379.895 330.033 380.451 329.502C381.007 328.97 381.342 328.248 381.39 327.48C382.11 317.13 386.69 308.86 392.39 308.86C398.65 308.86 403.56 318.7 403.56 330.35C403.56 330.57 481.92 330.35 498.56 330.35C499.374 330.345 500.154 330.018 500.728 329.441C501.303 328.865 501.627 328.084 501.63 327.27V247.63C501.627 245.836 500.913 244.117 499.644 242.849C498.374 241.582 496.654 240.87 494.86 240.87H378.68C376.08 240.879 373.549 241.711 371.451 243.247C369.352 244.783 367.794 246.944 367 249.42Z" fill="white" stroke="black" stroke-linecap="round" stroke-linejoin="round"/>
<path d="M415.47 240.87H494.9C495.789 240.87 496.669 241.045 497.49 241.385C498.312 241.726 499.058 242.224 499.687 242.853C500.315 243.482 500.814 244.228 501.154 245.049C501.495 245.871 501.67 246.751 501.67 247.64V327.27C501.67 328.087 501.345 328.87 500.768 329.448C500.19 330.025 499.407 330.35 498.59 330.35H411.78C410.963 330.35 410.179 330.025 409.602 329.448C409.024 328.87 408.7 328.087 408.7 327.27V247.63C408.702 245.836 409.417 244.117 410.686 242.849C411.955 241.582 413.676 240.87 415.47 240.87Z" fill="white" stroke="black" stroke-linecap="round" stroke-linejoin="round"/>
<path d="M488.69 249.43H421.68C419.979 249.43 418.6 250.809 418.6 252.51V287.3C418.6 289.001 419.979 290.38 421.68 290.38H488.69C490.391 290.38 491.77 289.001 491.77 287.3V252.51C491.77 250.809 490.391 249.43 488.69 249.43Z" fill="white" stroke="black" stroke-linecap="round" stroke-linejoin="round"/>
<path d="M383.84 290.38H402.21C403.309 290.38 404.2 289.489 404.2 288.39V251.42C404.2 250.321 403.309 249.43 402.21 249.43H383.84C382.741 249.43 381.85 250.321 381.85 251.42V288.39C381.85 289.489 382.741 290.38 383.84 290.38Z" fill="white" stroke="black" stroke-linecap="round" stroke-linejoin="round"/>
<path d="M375 290.38H359C358.689 290.378 358.382 290.303 358.105 290.162C357.828 290.021 357.588 289.817 357.403 289.566C357.219 289.316 357.095 289.026 357.043 288.719C356.99 288.412 357.009 288.098 357.1 287.8L368.6 250.8C368.727 250.394 368.982 250.039 369.325 249.787C369.669 249.535 370.084 249.4 370.51 249.4H375C375.53 249.4 376.039 249.611 376.414 249.986C376.789 250.361 377 250.87 377 251.4V288.4C376.994 288.927 376.781 289.431 376.407 289.801C376.032 290.172 375.527 290.38 375 290.38Z" fill="white" stroke="black" stroke-linecap="round" stroke-linejoin="round"/>
<path d="M375 290.38H361.13C360.818 290.379 360.51 290.306 360.232 290.165C359.954 290.025 359.712 289.821 359.526 289.57C359.341 289.319 359.216 289.029 359.163 288.721C359.11 288.414 359.129 288.099 359.22 287.8L370.73 250.8C370.857 250.395 371.11 250.042 371.451 249.79C371.793 249.538 372.206 249.402 372.63 249.4H375C375.53 249.4 376.039 249.611 376.414 249.986C376.789 250.361 377 250.87 377 251.4V288.4C376.994 288.927 376.781 289.431 376.407 289.801C376.032 290.172 375.527 290.38 375 290.38Z" fill="#FFE500" stroke="black" stroke-linecap="round" stroke-linejoin="round"/>
<path d="M411.04 315.3H416.24C417.538 315.3 418.59 314.248 418.59 312.95V278.59C418.59 277.292 417.538 276.24 416.24 276.24H411.04C409.742 276.24 408.69 277.292 408.69 278.59V312.95C408.69 314.248 409.742 315.3 411.04 315.3Z" fill="white" stroke="black" stroke-linecap="round" stroke-linejoin="round"/>
<path d="M410.87 308.4H416.41C417.614 308.4 418.59 307.424 418.59 306.22V285.31C418.59 284.106 417.614 283.13 416.41 283.13H410.87C409.666 283.13 408.69 284.106 408.69 285.31V306.22C408.69 307.424 409.666 308.4 410.87 308.4Z" fill="#FFE500" stroke="black" stroke-linecap="round" stroke-linejoin="round"/>
<path d="M411.8 290.69L417.35 293.12C417.723 293.271 418.042 293.531 418.265 293.867C418.488 294.202 418.605 294.597 418.6 295V306.4C418.571 306.953 418.327 307.472 417.919 307.846C417.511 308.22 416.973 308.419 416.42 308.4H410.88C410.327 308.419 409.788 308.22 409.38 307.846C408.973 307.472 408.728 306.953 408.7 306.4V292.54C408.718 292.183 408.823 291.837 409.007 291.531C409.192 291.225 409.448 290.969 409.755 290.786C410.062 290.603 410.409 290.498 410.765 290.482C411.122 290.465 411.477 290.537 411.8 290.69Z" fill="white" stroke="black" stroke-linecap="round" stroke-linejoin="round"/>
<path d="M499.32 276.24H494.12C492.822 276.24 491.77 277.292 491.77 278.59V312.95C491.77 314.248 492.822 315.3 494.12 315.3H499.32C500.618 315.3 501.67 314.248 501.67 312.95V278.59C501.67 277.292 500.618 276.24 499.32 276.24Z" fill="white" stroke="black" stroke-linecap="round" stroke-linejoin="round"/>
<path d="M499.49 283.14H493.95C492.746 283.14 491.77 284.116 491.77 285.32V306.23C491.77 307.434 492.746 308.41 493.95 308.41H499.49C500.694 308.41 501.67 307.434 501.67 306.23V285.32C501.67 284.116 500.694 283.14 499.49 283.14Z" fill="#FFE500" stroke="black" stroke-linecap="round" stroke-linejoin="round"/>
<path d="M498.57 290.69L493 293.12C492.631 293.269 492.315 293.525 492.093 293.854C491.87 294.184 491.751 294.572 491.75 294.97V306.37C491.779 306.923 492.023 307.442 492.431 307.816C492.839 308.19 493.377 308.389 493.93 308.37H499.47C500.023 308.389 500.561 308.19 500.969 307.816C501.377 307.442 501.621 306.923 501.65 306.37V292.54C501.631 292.186 501.525 291.842 501.342 291.539C501.159 291.235 500.904 290.981 500.601 290.798C500.297 290.616 499.953 290.51 499.599 290.492C499.245 290.473 498.892 290.541 498.57 290.69Z" fill="white" stroke="black" stroke-linecap="round" stroke-linejoin="round"/>
<path d="M453.95 243.77H440.19V247.12H453.95V243.77Z" fill="white" stroke="black" stroke-linecap="round" stroke-linejoin="round"/>
<path d="M456.19 240.87V330.35" stroke="black" stroke-linecap="round" stroke-linejoin="round"/>
<path d="M491.77 308.4H418.6" stroke="black" stroke-linecap="round" stroke-linejoin="round"/>
<path d="M449.18 312.39H423.82V319.77H449.18V312.39Z" fill="white" stroke="black" stroke-linecap="round" stroke-linejoin="round"/>
<path d="M428.05 312.39H423.82V319.77H428.05V312.39Z" fill="white" stroke="black" stroke-linecap="round" stroke-linejoin="round"/>
<path d="M469.59 295.77H461.71C460.777 295.77 460.02 296.524 460.02 297.455C460.02 298.386 460.777 299.14 461.71 299.14H469.59C470.523 299.14 471.28 298.386 471.28 297.455C471.28 296.524 470.523 295.77 469.59 295.77Z" fill="#020000" stroke="black" stroke-linecap="round" stroke-linejoin="round"/>
<path d="M374.22 294.08H372.88C371.947 294.08 371.19 294.834 371.19 295.765C371.19 296.696 371.947 297.45 372.88 297.45H374.22C375.153 297.45 375.91 296.696 375.91 295.765C375.91 294.834 375.153 294.08 374.22 294.08Z" fill="#020000" stroke="black" stroke-linecap="round" stroke-linejoin="round"/>
<path d="M501.1 323.99H409.27C407.762 323.99 406.54 325.212 406.54 326.72V330.13C406.54 331.638 407.762 332.86 409.27 332.86H501.1C502.608 332.86 503.83 331.638 503.83 330.13V326.72C503.83 325.212 502.608 323.99 501.1 323.99Z" fill="white" stroke="black" stroke-linecap="round" stroke-linejoin="round"/>
<path d="M415.87 315.3H402.36C400.852 315.3 399.63 316.522 399.63 318.03V330.12C399.63 331.628 400.852 332.85 402.36 332.85H415.87C417.378 332.85 418.6 331.628 418.6 330.12V318.03C418.6 316.522 417.378 315.3 415.87 315.3Z" fill="white" stroke="black" stroke-linecap="round" stroke-linejoin="round"/>
<path d="M345.11 315.3H337.24C336.515 315.31 335.817 315.575 335.268 316.048C334.719 316.522 334.355 317.174 334.24 317.89L334.18 325.74C334.172 326.671 334.349 327.594 334.699 328.456C335.05 329.319 335.568 330.103 336.224 330.764C336.879 331.425 337.659 331.95 338.518 332.308C339.377 332.666 340.299 332.85 341.23 332.85H345.15C345.967 332.85 346.75 332.526 347.328 331.948C347.905 331.37 348.23 330.587 348.23 329.77V318.38C348.23 317.972 348.149 317.568 347.992 317.192C347.834 316.816 347.604 316.474 347.314 316.188C347.023 315.901 346.679 315.675 346.301 315.523C345.923 315.37 345.518 315.295 345.11 315.3Z" fill="black" stroke="#020000" stroke-linecap="round" stroke-linejoin="round"/>
<path d="M341.19 315.3H337.24C336.515 315.31 335.817 315.575 335.268 316.048C334.719 316.522 334.355 317.174 334.24 317.89L334.18 325.74C334.172 326.671 334.349 327.594 334.699 328.456C335.05 329.319 335.568 330.103 336.224 330.764C336.879 331.425 337.659 331.95 338.518 332.308C339.377 332.666 340.299 332.85 341.23 332.85C341.635 332.851 342.037 332.773 342.412 332.618C342.787 332.464 343.127 332.238 343.414 331.951C343.701 331.665 343.929 331.325 344.085 330.951C344.24 330.577 344.32 330.175 344.32 329.77V318.38C344.32 317.971 344.239 317.567 344.081 317.19C343.923 316.813 343.692 316.471 343.4 316.184C343.109 315.898 342.763 315.672 342.384 315.52C342.005 315.368 341.599 315.293 341.19 315.3Z" fill="white" stroke="#020000" stroke-linecap="round" stroke-linejoin="round"/>
<path d="M415.52 315.3H409.62C407.919 315.3 406.54 316.679 406.54 318.38V329.77C406.54 331.471 407.919 332.85 409.62 332.85H415.52C417.221 332.85 418.6 331.471 418.6 329.77V318.38C418.6 316.679 417.221 315.3 415.52 315.3Z" fill="#020000" stroke="black" stroke-linecap="round" stroke-linejoin="round"/>
<path d="M500.75 315.3H490.9C490.083 315.3 489.3 315.625 488.722 316.202C488.144 316.78 487.82 317.563 487.82 318.38V324H489.19V329.78C489.19 330.597 489.514 331.38 490.092 331.958C490.67 332.535 491.453 332.86 492.27 332.86H500.75C501.567 332.86 502.35 332.535 502.928 331.958C503.505 331.38 503.83 330.597 503.83 329.78V318.38C503.83 317.563 503.505 316.78 502.928 316.202C502.35 315.625 501.567 315.3 500.75 315.3Z" fill="white" stroke="black" stroke-linecap="round" stroke-linejoin="round"/>
<path d="M500.75 315.3H494.85C493.149 315.3 491.77 316.679 491.77 318.38V329.77C491.77 331.471 493.149 332.85 494.85 332.85H500.75C502.451 332.85 503.83 331.471 503.83 329.77V318.38C503.83 316.679 502.451 315.3 500.75 315.3Z" fill="#020000" stroke="black" stroke-linecap="round" stroke-linejoin="round"/>
<path d="M396.21 301.76C397.27 301.76 398.13 300.077 398.13 298C398.13 295.923 397.27 294.24 396.21 294.24C395.15 294.24 394.29 295.923 394.29 298C394.29 300.077 395.15 301.76 396.21 301.76Z" fill="white" stroke="black" stroke-linecap="round" stroke-linejoin="round"/>
<path d="M392 308.86V244C392 243.178 392.327 242.389 392.908 241.808C393.489 241.227 394.278 240.9 395.1 240.9H398.89" stroke="black" stroke-linecap="round" stroke-linejoin="round"/>
<path d="M379.28 324.84V244C379.28 243.178 379.606 242.389 380.188 241.808C380.769 241.227 381.558 240.9 382.38 240.9H385.85" stroke="black" stroke-linecap="round" stroke-linejoin="round"/>
<path d="M351.08 289.13V324.84" stroke="black" stroke-linecap="round" stroke-linejoin="round"/>
<path d="M355.76 285.66H349.53V289.22H355.76V285.66Z" fill="black" stroke="#020000" stroke-linecap="round" stroke-linejoin="round"/>
<path d="M352.38 276.65H346.99C346.128 276.65 345.43 277.348 345.43 278.21V290.16C345.43 291.022 346.128 291.72 346.99 291.72H352.38C353.241 291.72 353.94 291.022 353.94 290.16V278.21C353.94 277.348 353.241 276.65 352.38 276.65Z" fill="black" stroke="#020000" stroke-linecap="round" stroke-linejoin="round"/>
<path d="M352.37 276.65H349.26C348.398 276.65 347.7 277.348 347.7 278.21V290.16C347.7 291.022 348.398 291.72 349.26 291.72H352.37C353.231 291.72 353.93 291.022 353.93 290.16V278.21C353.93 277.348 353.231 276.65 352.37 276.65Z" fill="white" stroke="black" stroke-linecap="round" stroke-linejoin="round"/>
<path d="M371.08 324.84H381.46" stroke="black" stroke-linecap="round" stroke-linejoin="round"/>
<path d="M348.19 324.84H351.9" stroke="black" stroke-linecap="round" stroke-linejoin="round"/>
<path d="M361.04 281.98H376.99" stroke="black" stroke-linecap="round" stroke-linejoin="round"/>
</svg>
