<svg width="544" height="452" viewBox="0 0 544 452" fill="none" xmlns="http://www.w3.org/2000/svg">
<path d="M481.74 212.55L394.18 75.19L78.1802 263.49L481.74 212.55Z" fill="#FFE500"/>
<path d="M317.27 336.92H310.87V397.46H317.27V336.92Z" fill="#020000" stroke="black" stroke-linecap="round" stroke-linejoin="round"/>
<path d="M256.36 336.92H249.96V397.46H256.36V336.92Z" fill="#FFE500" stroke="black" stroke-linecap="round" stroke-linejoin="round"/>
<path d="M479.62 326.77H241.7V336.92H479.62V326.77Z" fill="#FFE500" stroke="black" stroke-linecap="round" stroke-linejoin="round"/>
<path d="M479.62 326.77H395.79V336.92H479.62V326.77Z" fill="white" stroke="black" stroke-linecap="round" stroke-linejoin="round"/>
<path d="M471.36 336.92H464.96V397.46H471.36V336.92Z" fill="#020000" stroke="black" stroke-linecap="round" stroke-linejoin="round"/>
<path d="M410.44 336.92H404.04V397.46H410.44V336.92Z" fill="#FFE500" stroke="black" stroke-linecap="round" stroke-linejoin="round"/>
<path d="M373.06 201.8L351.93 226.37L327.82 211.25C327.141 210.827 326.382 210.549 325.59 210.433C324.798 210.318 323.991 210.368 323.22 210.581C322.449 210.793 321.729 211.163 321.108 211.667C320.487 212.171 319.977 212.799 319.61 213.51L316.61 219.27C315.729 220.984 315.54 222.971 316.081 224.821C316.623 226.671 317.854 228.242 319.52 229.21L347.29 245.34C349.189 246.443 351.41 246.861 353.58 246.522C355.75 246.183 357.738 245.109 359.21 243.48L385.42 214.55L373.06 201.8Z" fill="#FFE500" stroke="#020000" stroke-linecap="round" stroke-linejoin="round"/>
<path d="M370.5 215.86C366.63 231.6 361.77 244.73 374.87 246.94C374.87 246.94 385.09 273.54 385.93 293.27H444.13C444.13 293.27 441.69 293.27 437.19 274.99L425.19 206.64C416.86 192.47 405.68 192.47 391.02 192.47C381.39 192.47 376.02 197.74 373.02 201.8" fill="#FFE500"/>
<path d="M370.5 215.86C366.63 231.6 361.77 244.73 374.87 246.94C374.87 246.94 385.09 273.54 385.93 293.27H444.13C444.13 293.27 441.69 293.27 437.19 274.99L425.19 206.64C416.86 192.47 405.68 192.47 391.02 192.47C381.39 192.47 376.02 197.74 373.02 201.8" stroke="#020000" stroke-linecap="round" stroke-linejoin="round"/>
<path d="M346.57 256.86H331.06L328.37 227.25H349.25L346.57 256.86Z" fill="white" stroke="black" stroke-linecap="round" stroke-linejoin="round"/>
<g style="mix-blend-mode:multiply">
<path d="M348.59 234.47L346.56 256.86H331.05L329.03 234.47H348.59Z" fill="#FFE500"/>
<path d="M348.59 234.47L346.56 256.86H331.05L329.03 234.47H348.59Z" stroke="#020000" stroke-linecap="round" stroke-linejoin="round"/>
</g>
<path d="M407.68 213.55L411 239.44C411 239.44 381.67 242.16 377.52 242.16C373.37 242.16 372.64 245.31 372.64 245.31L374.91 256.86L420.31 257.09C426.99 257.09 432.09 250.74 431.03 243.69L427.82 212C420.7 187.85 400.29 192.17 392.7 192.47" fill="#FFE500"/>
<path d="M407.68 213.55L411 239.44C411 239.44 381.67 242.16 377.52 242.16C373.37 242.16 372.64 245.31 372.64 245.31L374.91 256.86L420.31 257.09C426.99 257.09 432.09 250.74 431.03 243.69L427.82 212C420.7 187.85 400.29 192.17 392.7 192.47" stroke="#020000" stroke-linecap="round" stroke-linejoin="round"/>
<path d="M414.96 238.83L410.99 239.44" stroke="#020000" stroke-linecap="round" stroke-linejoin="round"/>
<path d="M369.57 245.31L376.29 245.1C376.29 245.1 379.65 246.23 379.65 251.1C379.65 255.97 376.29 256.91 376.29 256.91H365.78C363.606 256.942 361.459 256.422 359.54 255.4C358.026 254.626 356.339 254.251 354.64 254.31C351.2 254.31 350.25 255.47 348.82 256.24C348.039 256.671 347.162 256.901 346.27 256.91H332.67C332.14 256.91 332.04 256.24 332.31 255.72C332.92 254.56 333.75 253.19 334.38 251.89C336.366 250.366 338.132 248.576 339.63 246.57C341.95 244.962 344.568 243.833 347.33 243.25L357.18 242.75L369.57 245.31Z" fill="white" stroke="#020000" stroke-linecap="round" stroke-linejoin="round"/>
<path d="M371.92 246.67L369.57 245.31" stroke="black" stroke-linecap="round" stroke-linejoin="round"/>
<path d="M342.99 256.86L346.42 252.97L351.92 248.73L356.57 247.97" stroke="black" stroke-linecap="round" stroke-linejoin="round"/>
<path d="M338.26 256.86L341.7 251.72L347.47 247.53L352.78 246.11" stroke="black" stroke-linecap="round" stroke-linejoin="round"/>
<path d="M334.49 256.86L337.92 251.72L343.57 246.76L346.82 245.86" stroke="black" stroke-linecap="round" stroke-linejoin="round"/>
<path d="M373.66 254.19C373.6 254.919 373.267 255.599 372.728 256.094C372.188 256.589 371.482 256.862 370.75 256.86H367.05" stroke="black" stroke-linecap="round" stroke-linejoin="round"/>
<path d="M358.22 232.15C358.22 232.15 356.22 227.31 351.93 226.37" stroke="#020000" stroke-linecap="round" stroke-linejoin="round"/>
<path d="M317.64 221.11C317.64 221.11 317.24 228.78 323.91 227.06C328.11 225.98 333.03 212.42 323.25 212.3" fill="#020000"/>
<path d="M317.64 221.11C317.64 221.11 317.24 228.78 323.91 227.06C328.11 225.98 333.03 212.42 323.25 212.3" stroke="#020000" stroke-linecap="round" stroke-linejoin="round"/>
<path d="M325.29 226.29L319.51 222.5L317.64 221.26L314.48 219.17C314.48 219.17 314.35 218.5 310.71 218.5C305.32 218.5 294.71 213.34 294.71 213.34L292.3 208L291.85 204.91C291.693 203.838 291.858 202.744 292.325 201.766C292.791 200.789 293.538 199.972 294.47 199.42L295.92 198.54L291.92 197.54C289.447 197.935 286.937 198.039 284.44 197.85C279.7 197.63 279.95 193.62 279.95 193.62L291.6 192.37C295.319 193.101 299.092 193.519 302.88 193.62C304.88 194.62 307.09 195.62 309.37 196.56C312.117 197.712 314.603 199.408 316.677 201.545C318.752 203.683 320.372 206.219 321.44 209L325.44 212.62L328.1 214.62C330.19 218 327.93 224.09 325.29 226.29Z" fill="white" stroke="#020000" stroke-linecap="round" stroke-linejoin="round"/>
<path d="M294.12 202L290.7 204.11C289.919 204.684 289.358 205.508 289.11 206.445C288.863 207.382 288.944 208.375 289.34 209.26L292.24 213.79L298.91 215.19L304.34 214.85C304.34 214.85 305.62 211.85 301.75 212.35L299.4 212.17L295.19 210.87L293.87 207.77L295.54 207.45" fill="white"/>
<path d="M294.12 202L290.7 204.11C289.919 204.684 289.358 205.508 289.11 206.445C288.863 207.382 288.944 208.375 289.34 209.26L292.24 213.79L298.91 215.19L304.34 214.85C304.34 214.85 305.62 211.85 301.75 212.35L299.4 212.17L295.19 210.87L293.87 207.77L295.54 207.45" stroke="#020000" stroke-linecap="round" stroke-linejoin="round"/>
<path d="M295.75 198.55L292.09 201C290.45 202 289.66 205.33 290.63 207L293.74 212.24L300.9 213.86L306.72 213.47C306.72 213.47 308.1 210.03 303.94 210.57L301.42 210.37L296.9 208.86L295.49 205.28L297.28 204.9" fill="white"/>
<path d="M295.75 198.55L292.09 201C290.45 202 289.66 205.33 290.63 207L293.74 212.24L300.9 213.86L306.72 213.47C306.72 213.47 308.1 210.03 303.94 210.57L301.42 210.37L296.9 208.86L295.49 205.28L297.28 204.9" stroke="#020000" stroke-linecap="round" stroke-linejoin="round"/>
<path d="M295.21 199L294.14 199.63C293.392 200.075 292.851 200.799 292.636 201.642C292.42 202.486 292.548 203.38 292.99 204.13L295.93 209.08L302.7 210.62L308.21 210.25C308.21 210.25 309.52 206.99 305.58 207.5L303.2 207.31L298.92 205.88L298.57 203.77" fill="white"/>
<path d="M295.21 199L294.14 199.63C293.392 200.075 292.851 200.799 292.636 201.642C292.42 202.486 292.548 203.38 292.99 204.13L295.93 209.08L302.7 210.62L308.21 210.25C308.21 210.25 309.52 206.99 305.58 207.5L303.2 207.31L298.92 205.88L298.57 203.77" stroke="#020000" stroke-linecap="round" stroke-linejoin="round"/>
<path d="M318.26 213C310.83 213.76 310.71 206.61 310.71 206.61" stroke="#020000" stroke-linecap="round" stroke-linejoin="round"/>
<path d="M309.84 200.55H307.84L301.95 201.37L296.16 204.19C296.16 204.19 295.59 207.35 300.16 207.45C300.16 207.45 302.16 206.76 303.43 206.45C304.867 206.212 306.323 206.108 307.78 206.14L311.63 207.49" fill="white"/>
<path d="M309.84 200.55H307.84L301.95 201.37L296.16 204.19C296.16 204.19 295.59 207.35 300.16 207.45C300.16 207.45 302.16 206.76 303.43 206.45C304.867 206.212 306.323 206.108 307.78 206.14L311.63 207.49" stroke="#020000" stroke-linecap="round" stroke-linejoin="round"/>
<path d="M402.46 193.19C402.46 193.19 398.85 200.72 390.4 201.8C381.95 202.88 382.1 197.92 382.1 197.92L378.34 184.86L398.81 177.56L402.46 193.19Z" fill="white" stroke="#020000" stroke-linecap="round" stroke-linejoin="round"/>
<path d="M364.28 139.73C364.28 139.73 357.28 139.3 359.28 159.12C361.28 178.94 358.49 184.43 355.63 191.4C355.63 191.4 368.91 187.96 370.63 175.57C370.63 175.57 370.04 186.24 364.26 191.93C364.26 191.93 375.31 192.67 378.05 179.54C380.79 166.41 381.86 136.87 381.86 136.87L364.28 139.73Z" fill="#020000" stroke="#020000" stroke-linecap="round" stroke-linejoin="round"/>
<path d="M392.62 185.58C388.38 189.26 382.45 192.58 375.8 192.58C362.62 192.58 363.8 159.23 363.8 155.99C369.42 152.99 368.3 142.52 382.85 142.52C395.53 142.52 399.26 148.62 399.26 158.94V176.34C399.217 176.915 399.061 177.476 398.8 177.99" fill="white"/>
<path d="M392.62 185.58C388.38 189.26 382.45 192.58 375.8 192.58C362.62 192.58 363.8 159.23 363.8 155.99C369.42 152.99 368.3 142.52 382.85 142.52C395.53 142.52 399.26 148.62 399.26 158.94V176.34C399.217 176.915 399.061 177.476 398.8 177.99" stroke="#020000" stroke-linecap="round" stroke-linejoin="round"/>
<path d="M387.43 152.38C387.43 152.38 394.97 162.59 392.89 170.65C392.89 170.65 397.23 159.65 396.82 152.07L387.43 152.38Z" fill="#020000" stroke="#020000" stroke-linecap="round" stroke-linejoin="round"/>
<path d="M397.65 158.58L399.23 168.1L399.3 176.3C399.3 176.3 409.83 178.84 409.83 156.21C409.83 132.44 390.2 133.21 390.2 133.21L363.2 137.59C363.2 137.59 367.1 161.65 392.68 158.67" fill="#020000"/>
<path d="M397.65 158.58L399.23 168.1L399.3 176.3C399.3 176.3 409.83 178.84 409.83 156.21C409.83 132.44 390.2 133.21 390.2 133.21L363.2 137.59C363.2 137.59 367.1 161.65 392.68 158.67" stroke="#020000" stroke-linecap="round" stroke-linejoin="round"/>
<path d="M396.21 160.3C396.186 159.46 396.483 158.642 397.04 158.012C397.597 157.382 398.373 156.988 399.21 156.91C401.75 156.91 403.21 159.5 403.21 163.01C403.21 166.52 401.55 170.52 399.02 170.52C398.542 170.519 398.069 170.421 397.63 170.23" fill="white"/>
<path d="M396.21 160.3C396.186 159.46 396.483 158.642 397.04 158.012C397.597 157.382 398.373 156.988 399.21 156.91C401.75 156.91 403.21 159.5 403.21 163.01C403.21 166.52 401.55 170.52 399.02 170.52C398.542 170.519 398.069 170.421 397.63 170.23" stroke="#020000" stroke-linecap="round" stroke-linejoin="round"/>
<path d="M361.61 157C361.61 157 362.32 157.14 363.84 156L361.61 157Z" fill="white"/>
<path d="M361.61 157C361.61 157 362.32 157.14 363.84 156" stroke="#020000" stroke-linecap="round" stroke-linejoin="round"/>
<path d="M371.33 168.48C371.33 168.48 370.23 173.48 370.65 175.57C371.07 177.66 375.28 176.39 375.28 176.39" stroke="#020000" stroke-linecap="round" stroke-linejoin="round"/>
<path d="M370.56 181.08L382.56 180.08C382.56 180.08 380.85 184.67 375.93 184.67C371.01 184.67 370.56 181.08 370.56 181.08Z" fill="white" stroke="#020000" stroke-linecap="round" stroke-linejoin="round"/>
<path d="M379.11 168.1C380.099 168.1 380.9 166.842 380.9 165.29C380.9 163.738 380.099 162.48 379.11 162.48C378.122 162.48 377.32 163.738 377.32 165.29C377.32 166.842 378.122 168.1 379.11 168.1Z" fill="#020000"/>
<path d="M368.53 169.34C369.519 169.34 370.32 168.082 370.32 166.53C370.32 164.978 369.519 163.72 368.53 163.72C367.542 163.72 366.74 164.978 366.74 166.53C366.74 168.082 367.542 169.34 368.53 169.34Z" fill="#020000"/>
<path d="M373.35 159.23C373.35 159.23 378.46 154.32 383.35 159.23" stroke="#020000" stroke-linecap="round" stroke-linejoin="round"/>
<path d="M362.52 161.42C362.52 161.42 364.19 157.22 369.05 160.21" stroke="#020000" stroke-linecap="round" stroke-linejoin="round"/>
<path d="M385.71 201.58C385.71 201.58 382.23 211.99 382.35 212.3" stroke="#020000" stroke-linecap="round" stroke-linejoin="round"/>
<path d="M444.13 293.27C444.13 293.27 452.52 326.77 423.52 326.77H337.38L343.45 357.54H317.27C317.27 357.54 307.61 316.54 308.85 309.54C312.04 291.61 330.21 293.23 358.29 293.23L444.13 293.27Z" fill="white" stroke="black" stroke-linecap="round" stroke-linejoin="round"/>
<g style="mix-blend-mode:multiply">
<path d="M383.36 293.23V298C383.36 300.191 382.49 302.292 380.941 303.841C379.392 305.39 377.291 306.26 375.1 306.26H333.86C327.79 306.26 323.96 311.09 325.35 317L335.35 362.4" stroke="#FFE500" stroke-linecap="round" stroke-linejoin="round"/>
</g>
<path d="M327.77 365.85H344.49L349.86 381.31H333.14L327.77 365.85Z" fill="white" stroke="black" stroke-linecap="round" stroke-linejoin="round"/>
<path d="M314.34 357.54H345.88L348.83 367.19H317.3L314.34 357.54Z" fill="white" stroke="black" stroke-linecap="round" stroke-linejoin="round"/>
<g style="mix-blend-mode:multiply">
<path d="M334.49 367.19L331.55 357.54" stroke="#FFE500" stroke-linecap="round" stroke-linejoin="round"/>
</g>
<path d="M335.4 316.75L337.35 326.77" stroke="black" stroke-linecap="round" stroke-linejoin="round"/>
<path d="M339.75 319.1L337.35 326.77" stroke="black" stroke-linecap="round" stroke-linejoin="round"/>
<path d="M298.8 391L298.65 391.33C298.332 391.977 298.184 392.694 298.221 393.414C298.257 394.133 298.476 394.832 298.857 395.443C299.239 396.055 299.77 396.559 300.4 396.909C301.03 397.258 301.739 397.441 302.46 397.44H352.72C353.093 397.445 353.461 397.354 353.788 397.177C354.116 396.999 354.394 396.741 354.594 396.427C354.794 396.112 354.911 395.752 354.933 395.38C354.955 395.008 354.882 394.636 354.72 394.3L353.12 391L351.36 375.49C351.36 375.49 351.5 373.25 347.09 373.25C347.09 373.25 351.59 379.82 344.6 379.82C341.6 379.82 338.6 376.96 335.75 375.94C333.554 375.201 331.216 374.979 328.92 375.29L307.97 380.05C305.612 380.904 303.521 382.367 301.911 384.29C300.3 386.213 299.227 388.528 298.8 391Z" fill="white" stroke="black" stroke-linecap="round" stroke-linejoin="round"/>
<path d="M353.09 391.02H298.8" stroke="#020000" stroke-linecap="round" stroke-linejoin="round"/>
<path d="M444.13 293.27C444.13 293.27 452.52 326.77 423.52 326.77H374.57L380.64 357.54H353.2C353.2 357.54 344.79 316.54 346.03 309.54C349.23 291.61 357.86 293.23 385.93 293.23L444.13 293.27Z" fill="white" stroke="black" stroke-linecap="round" stroke-linejoin="round"/>
<g style="mix-blend-mode:multiply">
<path d="M420.54 293.23V298C420.541 299.084 420.329 300.158 419.915 301.16C419.501 302.162 418.894 303.073 418.127 303.84C417.361 304.607 416.451 305.216 415.45 305.631C414.448 306.046 413.374 306.26 412.29 306.26H365.48C359.41 306.26 355.58 311.09 356.97 317L367.64 362.4" stroke="#FFE500" stroke-linecap="round" stroke-linejoin="round"/>
</g>
<path d="M364.95 365.85H381.67L387.05 381.31H370.33L364.95 365.85Z" fill="white" stroke="black" stroke-linecap="round" stroke-linejoin="round"/>
<path d="M349.95 357.54H383.06L386.02 367.19H352.91L349.95 357.54Z" fill="white" stroke="black" stroke-linecap="round" stroke-linejoin="round"/>
<g style="mix-blend-mode:multiply">
<path d="M371.68 367.19L368.73 357.54" stroke="#FFE500" stroke-linecap="round" stroke-linejoin="round"/>
</g>
<path d="M336 391L335.84 391.33C335.525 391.978 335.379 392.695 335.418 393.415C335.456 394.134 335.676 394.832 336.058 395.443C336.44 396.054 336.971 396.558 337.601 396.907C338.231 397.256 338.94 397.44 339.66 397.44H389.92C390.293 397.445 390.661 397.354 390.989 397.177C391.317 396.999 391.594 396.741 391.794 396.427C391.995 396.112 392.111 395.752 392.133 395.38C392.155 395.008 392.082 394.636 391.92 394.3L390.32 391L388.56 375.49C388.56 375.49 388.69 373.25 384.29 373.25C384.29 373.25 388.79 379.82 381.79 379.82C378.79 379.82 375.79 376.96 372.95 375.94C370.754 375.201 368.417 374.979 366.12 375.29L345.17 380.05C342.811 380.902 340.719 382.365 339.108 384.288C337.498 386.212 336.425 388.527 336 391Z" fill="white" stroke="black" stroke-linecap="round" stroke-linejoin="round"/>
<path d="M390.28 391.02H335.99" stroke="#020000" stroke-linecap="round" stroke-linejoin="round"/>
<path d="M372.61 316.75L374.57 326.77" stroke="black" stroke-linecap="round" stroke-linejoin="round"/>
<path d="M376.97 319.1L374.57 326.77" stroke="black" stroke-linecap="round" stroke-linejoin="round"/>
<path d="M249.65 257.15H104.02V270.65H249.65V257.15Z" fill="white" stroke="black" stroke-linecap="round" stroke-linejoin="round"/>
<path d="M235.3 270.65H224.19V397.46H235.3V270.65Z" fill="white" stroke="black" stroke-linecap="round" stroke-linejoin="round"/>
<path d="M123.92 305.62H226.92C227.681 305.62 228.411 305.922 228.949 306.461C229.488 306.999 229.79 307.729 229.79 308.49V311C229.79 311.761 229.488 312.491 228.949 313.029C228.411 313.568 227.681 313.87 226.92 313.87H123.92V305.6V305.62Z" fill="white" stroke="black" stroke-linecap="round" stroke-linejoin="round"/>
<path d="M129.47 270.65H118.36V397.46H129.47V270.65Z" fill="#FFE500" stroke="black" stroke-linecap="round" stroke-linejoin="round"/>
<path d="M465.43 257.15H104.02V270.65H465.43V257.15Z" fill="#FFE500" stroke="black" stroke-linecap="round" stroke-linejoin="round"/>
<path d="M465.42 257.15H319.79V270.65H465.42V257.15Z" fill="white" stroke="black" stroke-linecap="round" stroke-linejoin="round"/>
<path d="M451.08 270.65H439.97V397.46H451.08V270.65Z" fill="white" stroke="black" stroke-linecap="round" stroke-linejoin="round"/>
<path d="M339.69 305.62H442.69C443.451 305.62 444.181 305.922 444.719 306.461C445.258 306.999 445.56 307.729 445.56 308.49V311C445.56 311.761 445.258 312.491 444.719 313.029C444.181 313.568 443.451 313.87 442.69 313.87H339.69V305.6V305.62Z" fill="white" stroke="black" stroke-linecap="round" stroke-linejoin="round"/>
<path d="M345.25 270.65H334.14V397.46H345.25V270.65Z" fill="#FFE500" stroke="black" stroke-linecap="round" stroke-linejoin="round"/>
<path d="M97.72 293.27C97.72 293.27 89.33 326.77 118.32 326.77H159L148.22 372H172C172 372 188.75 316.52 187.51 309.56C184.31 291.63 166.15 293.25 138.07 293.25L97.72 293.27Z" fill="#020000" stroke="black" stroke-linecap="round" stroke-linejoin="round"/>
<path d="M170.44 365.85H151.9L146.53 381.31H165.07L170.44 365.85Z" fill="white" stroke="#020000" stroke-linecap="round" stroke-linejoin="round"/>
<path d="M117 293.23V298C117 300.189 117.869 302.288 119.416 303.837C120.963 305.386 123.061 306.257 125.25 306.26H172.06C178.13 306.26 181.96 311.09 180.57 317L169.9 362.4" stroke="#FFE500" stroke-linecap="round" stroke-linejoin="round"/>
<path d="M176.53 362.36H148.11L145.15 372.02H173.57L176.53 362.36Z" fill="#FFE500" stroke="black" stroke-linecap="round" stroke-linejoin="round"/>
<path d="M173.39 315C173.39 315 170.07 326.76 158.48 326.76L173.39 315Z" fill="white"/>
<path d="M173.39 315C173.39 315 170.07 326.76 158.48 326.76" stroke="black" stroke-linecap="round" stroke-linejoin="round"/>
<path d="M197 390.2L198 397.46H142.22L145.06 375.51C145.06 375.51 145.24 373.27 149.65 373.27C150.622 373.273 151.591 373.38 152.54 373.59C154.764 374.065 156.772 375.252 158.26 376.97C158.889 377.8 159.688 378.485 160.604 378.98C161.52 379.475 162.532 379.769 163.57 379.84C167.5 379.84 167.5 375.31 167.5 375.31L188.45 380.07C190.685 380.781 192.674 382.109 194.187 383.901C195.7 385.694 196.675 387.877 197 390.2Z" fill="white" stroke="black" stroke-linecap="round" stroke-linejoin="round"/>
<g style="mix-blend-mode:multiply">
<path d="M143.3 393.39H197.59" stroke="#020000" stroke-linecap="round" stroke-linejoin="round"/>
</g>
<g style="mix-blend-mode:multiply">
<path d="M144 384H151.49C152.24 384 152.981 384.165 153.659 384.485C154.338 384.804 154.937 385.269 155.415 385.847C155.893 386.425 156.237 387.102 156.423 387.828C156.609 388.555 156.632 389.314 156.49 390.05L155.84 393.43H142.74L144 384Z" stroke="#020000" stroke-linecap="round" stroke-linejoin="round"/>
</g>
<g style="mix-blend-mode:multiply">
<path d="M189.88 392.82C189.88 392.82 189.59 382.35 185.01 379.29" stroke="#020000" stroke-linecap="round" stroke-linejoin="round"/>
</g>
<path d="M97.72 293.27C97.72 293.27 89.33 326.77 118.32 326.77H204.46L193.67 372H217.48C217.48 372 234.24 316.52 233 309.56C229.8 291.63 211.63 293.25 183.56 293.25L97.72 293.27Z" fill="#020000" stroke="black" stroke-linecap="round" stroke-linejoin="round"/>
<path d="M158.49 293.23V298C158.489 299.084 158.701 300.158 159.115 301.16C159.529 302.162 160.137 303.073 160.903 303.84C161.669 304.607 162.579 305.216 163.581 305.631C164.582 306.046 165.656 306.26 166.74 306.26H213.55C219.62 306.26 223.45 311.09 222.06 317L211.39 362.4" stroke="#FFE500" stroke-linecap="round" stroke-linejoin="round"/>
<path d="M215.9 365.85H197.36L191.99 381.31H210.52L215.9 365.85Z" fill="white" stroke="#020000" stroke-linecap="round" stroke-linejoin="round"/>
<path d="M221.99 362.36H193.56L190.6 372.02H219.03L221.99 362.36Z" fill="#FFE500" stroke="black" stroke-linecap="round" stroke-linejoin="round"/>
<path d="M218.85 315C218.85 315 215.53 326.76 203.93 326.76" stroke="#FFE500" stroke-linecap="round" stroke-linejoin="round"/>
<path d="M242.5 390.2L243.5 397.46H187.67L190.51 375.51C190.51 375.51 190.7 373.27 195.1 373.27C196.075 373.273 197.047 373.38 198 373.59C200.219 374.068 202.223 375.254 203.71 376.97C204.342 377.799 205.143 378.484 206.06 378.979C206.978 379.474 207.99 379.767 209.03 379.84C212.95 379.84 212.95 375.31 212.95 375.31L233.95 380.07C236.183 380.784 238.17 382.113 239.682 383.905C241.195 385.697 242.171 387.878 242.5 390.2Z" fill="white" stroke="black" stroke-linecap="round" stroke-linejoin="round"/>
<g style="mix-blend-mode:multiply">
<path d="M188.75 393.39H243.04" stroke="#020000" stroke-linecap="round" stroke-linejoin="round"/>
</g>
<g style="mix-blend-mode:multiply">
<path d="M189.42 384H196.91C197.66 384 198.401 384.165 199.079 384.485C199.758 384.804 200.357 385.269 200.835 385.847C201.313 386.425 201.657 387.102 201.843 387.828C202.029 388.555 202.052 389.314 201.91 390.05L201.27 393.43H188.2L189.42 384Z" stroke="#020000" stroke-linecap="round" stroke-linejoin="round"/>
</g>
<g style="mix-blend-mode:multiply">
<path d="M235.33 392.82C235.33 392.82 235.05 382.35 230.47 379.29" stroke="#020000" stroke-linecap="round" stroke-linejoin="round"/>
</g>
<path d="M112 298.41C112 298.41 107.13 326.77 136.12 326.77" stroke="#FFE500" stroke-linecap="round" stroke-linejoin="round"/>
<path d="M205.48 165H208.79C209.366 165 209.935 164.868 210.453 164.614C210.97 164.36 211.423 163.992 211.776 163.536C212.129 163.081 212.373 162.551 212.49 161.986C212.607 161.422 212.593 160.838 212.45 160.28L209.58 149.11" fill="white"/>
<path d="M205.48 165H208.79C209.366 165 209.935 164.868 210.453 164.614C210.97 164.36 211.423 163.992 211.776 163.536C212.129 163.081 212.373 162.551 212.49 161.986C212.607 161.422 212.593 160.838 212.45 160.28L209.58 149.11" stroke="#020000" stroke-linecap="round" stroke-linejoin="round"/>
<path d="M250.73 208.06C248.38 206.18 250.41 204.56 253.13 204.33C254.481 204.126 255.861 204.285 257.13 204.79C257.472 204.249 257.932 203.793 258.476 203.455C259.02 203.117 259.633 202.907 260.27 202.84C260.847 202.863 261.412 203.008 261.929 203.265C262.446 203.521 262.903 203.884 263.27 204.33C263.27 204.33 267.99 201.6 271.55 202.33C280.48 204.26 277.45 208.02 277.45 208.02" fill="white"/>
<path d="M250.73 208.06C248.38 206.18 250.41 204.56 253.13 204.33C254.481 204.126 255.861 204.285 257.13 204.79C257.472 204.249 257.932 203.793 258.476 203.455C259.02 203.117 259.633 202.907 260.27 202.84C260.847 202.863 261.412 203.008 261.929 203.265C262.446 203.521 262.903 203.884 263.27 204.33C263.27 204.33 267.99 201.6 271.55 202.33C280.48 204.26 277.45 208.02 277.45 208.02" stroke="white" stroke-linecap="round" stroke-linejoin="round"/>
<path d="M274.08 256.86H254.17L250.73 208.06H277.52L274.08 256.86Z" fill="white" stroke="black" stroke-linecap="round" stroke-linejoin="round"/>
<g style="mix-blend-mode:multiply">
<path d="M276.83 217.88L274.08 256.86H254.17L251.45 218.19L276.83 217.88Z" fill="#FFE500"/>
<path d="M276.83 217.88L274.08 256.86H254.17L251.45 218.19L276.83 217.88Z" stroke="#FFE500" stroke-linecap="round" stroke-linejoin="round"/>
</g>
<path d="M164 142C166.13 130.44 176.06 121.64 187.81 121.64C200.04 121.64 210.9 129.14 210.9 144.23C210.9 150.34 205.11 167.7 202.39 175.53C202.013 176.603 201.251 177.498 200.251 178.042C199.252 178.585 198.086 178.738 196.98 178.47L187.83 176.24C170.44 176.2 160.62 160 164 142Z" fill="white" stroke="#020000" stroke-linecap="round" stroke-linejoin="round"/>
<path d="M166.13 160.95L154.16 184.9H184.85L188.59 172.93" fill="white"/>
<path d="M166.13 160.95L154.16 184.9H184.85L188.59 172.93" stroke="#020000" stroke-linecap="round" stroke-linejoin="round"/>
<path d="M164.83 293.23H96.9302L129.44 198.84C131.929 191.606 136.615 185.33 142.843 180.888C149.071 176.445 156.53 174.058 164.18 174.06C189.4 174.06 198.62 194.45 190.42 218.3L164.83 293.23Z" fill="white" stroke="black" stroke-linecap="round" stroke-linejoin="round"/>
<path d="M236.83 238.84H245.26L253.17 230.21L261.68 225.04L267.35 226.86L270.04 231.31L275.82 231.83C279.67 232.23 280.39 234.35 279.02 237.62C281.33 239 281.57 241.33 280.02 244.49C281.56 247.06 281.43 248.92 279.02 251.2C280.08 254.08 279.59 256.7 276.28 256.86H242.63L236.83 238.84Z" fill="white" stroke="#020000" stroke-linecap="round" stroke-linejoin="round"/>
<path d="M270.62 233.88C270.62 233.88 273.8 235.71 271.98 240.07C271.98 240.07 275.29 243.83 272.55 247.23C272.55 247.23 275.55 252.68 272.13 255.11" stroke="black" stroke-linecap="round" stroke-linejoin="round"/>
<path d="M261.68 231.31H270.04" stroke="black" stroke-linecap="round" stroke-linejoin="round"/>
<path d="M186.15 182.2C202.53 196.51 225.74 234.81 225.74 234.81H241.8C244.37 234.802 246.889 235.516 249.072 236.873C251.254 238.229 253.01 240.172 254.14 242.48C256.4 247.14 257.28 253.13 251.35 258.08H220.25C217.833 258.077 215.452 257.49 213.31 256.369C211.169 255.247 209.33 253.625 207.95 251.64L180.7 215.36" fill="white"/>
<path d="M186.15 182.2C202.53 196.51 225.74 234.81 225.74 234.81H241.8C244.37 234.802 246.889 235.516 249.072 236.873C251.254 238.229 253.01 240.172 254.14 242.48C256.4 247.14 257.28 253.13 251.35 258.08H220.25C217.833 258.077 215.452 257.49 213.31 256.369C211.169 255.247 209.33 253.625 207.95 251.64L180.7 215.36" stroke="black" stroke-linecap="round" stroke-linejoin="round"/>
<path d="M229.39 238.84C229.085 237.961 228.603 237.153 227.976 236.465C227.348 235.778 226.588 235.225 225.74 234.84L222.22 228.95" fill="white"/>
<path d="M229.39 238.84C229.085 237.961 228.603 237.153 227.976 236.465C227.348 235.778 226.588 235.225 225.74 234.84L222.22 228.95" stroke="black" stroke-linecap="round" stroke-linejoin="round"/>
<path d="M166.13 161C172.235 160.482 178.383 160.88 184.37 162.18C184.37 162.18 191.37 133.78 200.15 141.52L200.95 154.29L202.26 154.94L207.18 141.54L207.56 146.41L212.37 137.93L215.72 141.64L217.18 133L222 132.66L210.85 119.66C210.85 119.66 202.29 108.54 180.7 111.74C159.11 114.94 159 136 166.13 161Z" fill="#020000" stroke="#020000" stroke-linecap="round" stroke-linejoin="round"/>
<path d="M199.621 149.088C200.153 144.796 198.908 141.11 196.842 140.854C194.776 140.598 192.67 143.869 192.138 148.161C191.607 152.453 192.851 156.139 194.917 156.395C196.984 156.651 199.089 153.379 199.621 149.088Z" fill="white" stroke="#020000" stroke-linecap="round" stroke-linejoin="round"/>
<path d="M201.396 148.654C202.038 143.474 201.074 139.091 199.243 138.865C197.412 138.638 195.408 142.653 194.767 147.833C194.125 153.012 195.089 157.395 196.92 157.621C198.751 157.848 200.755 153.833 201.396 148.654Z" fill="white" stroke="#020000" stroke-linecap="round" stroke-linejoin="round"/>
<g style="mix-blend-mode:multiply">
<path d="M199.39 142.22C199.39 142.22 198.16 140.04 197.08 147.22C196 154.4 197.08 155.33 197.08 155.33" stroke="#020000" stroke-linecap="round" stroke-linejoin="round"/>
</g>
<g style="mix-blend-mode:multiply">
<path d="M198 144.91C198.316 145.15 198.581 145.45 198.78 145.794C198.98 146.137 199.109 146.516 199.16 146.91C199.16 148.04 198.1 147.71 198 150.75" stroke="#020000" stroke-linecap="round" stroke-linejoin="round"/>
</g>
<path d="M141.23 336.92H134.83V397.46H141.23V336.92Z" fill="#020000" stroke="black" stroke-linecap="round" stroke-linejoin="round"/>
<path d="M80.3102 336.92H73.9102V397.46H80.3102V336.92Z" fill="#FFE500" stroke="black" stroke-linecap="round" stroke-linejoin="round"/>
<path d="M287.41 326.77H65.6499V336.92H287.41V326.77Z" fill="#FFE500" stroke="black" stroke-linecap="round" stroke-linejoin="round"/>
<path d="M287.41 326.77H203.58V336.92H287.41V326.77Z" fill="white" stroke="black" stroke-linecap="round" stroke-linejoin="round"/>
<path d="M279.16 336.92H272.76V397.46H279.16V336.92Z" fill="#020000" stroke="black" stroke-linecap="round" stroke-linejoin="round"/>
<path d="M218.24 336.92H211.84V397.46H218.24V336.92Z" fill="#FFE500" stroke="black" stroke-linecap="round" stroke-linejoin="round"/>
<path d="M40.6201 397.46H502.62" stroke="#020000" stroke-linecap="round" stroke-linejoin="round"/>
<path d="M370.59 204.67L373.06 201.8" stroke="#020000" stroke-linecap="round" stroke-linejoin="round"/>
<path d="M301 185.88C303 184.88 314.06 180.13 317.13 192.57C316.58 192.49 320.83 189.34 322.08 194.57" stroke="#020000" stroke-linecap="round" stroke-linejoin="round"/>
</svg>
