<svg width="245" height="165" viewBox="0 0 245 165" fill="none" xmlns="http://www.w3.org/2000/svg">
<path d="M140.42 68.65H142.11C149.406 68.65 156.403 71.5484 161.563 76.7075C166.722 81.8666 169.62 88.8639 169.62 96.16V115.3C169.62 115.314 169.617 115.329 169.612 115.342C169.606 115.355 169.598 115.368 169.588 115.378C169.578 115.388 169.565 115.396 169.552 115.402C169.539 115.407 169.524 115.41 169.51 115.41H113C112.971 115.41 112.943 115.398 112.922 115.378C112.902 115.357 112.89 115.329 112.89 115.3V96.16C112.89 88.8639 115.788 81.8666 120.948 76.7075C126.107 71.5484 133.104 68.65 140.4 68.65H140.42Z" fill="white" stroke="black" stroke-width="5" stroke-linecap="round" stroke-linejoin="round"/>
<path d="M156.82 115.41V94.41" stroke="black" stroke-width="5" stroke-linecap="round" stroke-linejoin="round"/>
<path d="M125.71 115.41V94.41" stroke="black" stroke-width="5" stroke-linecap="round" stroke-linejoin="round"/>
<path d="M141.27 68.65C149.433 68.65 156.05 62.0328 156.05 53.87C156.05 45.7072 149.433 39.09 141.27 39.09C133.107 39.09 126.49 45.7072 126.49 53.87C126.49 62.0328 133.107 68.65 141.27 68.65Z" fill="white" stroke="black" stroke-width="5" stroke-linecap="round" stroke-linejoin="round"/>
<path d="M189.48 68.46H191.17C194.784 68.4613 198.363 69.1748 201.701 70.5598C205.04 71.9448 208.073 73.974 210.627 76.5316C213.181 79.0892 215.205 82.125 216.585 85.4655C217.966 88.8059 218.674 92.3856 218.67 96V115.14C218.67 115.154 218.667 115.169 218.662 115.182C218.656 115.195 218.648 115.208 218.638 115.218C218.628 115.228 218.615 115.236 218.602 115.242C218.589 115.247 218.574 115.25 218.56 115.25H162.08C162.066 115.25 162.051 115.247 162.038 115.242C162.025 115.236 162.012 115.228 162.002 115.218C161.992 115.208 161.984 115.195 161.978 115.182C161.973 115.169 161.97 115.154 161.97 115.14V96C161.966 92.3848 162.675 88.8043 164.055 85.4632C165.436 82.122 167.462 79.0858 170.017 76.5281C172.572 73.9704 175.606 71.9413 178.945 70.5569C182.285 69.1725 185.865 68.46 189.48 68.46Z" fill="white" stroke="black" stroke-width="5" stroke-linecap="round" stroke-linejoin="round"/>
<path d="M205.88 115.22V94.22" stroke="black" stroke-width="5" stroke-linecap="round" stroke-linejoin="round"/>
<path d="M174.77 115.22V94.22" stroke="black" stroke-width="5" stroke-linecap="round" stroke-linejoin="round"/>
<path d="M190.32 68.46C198.483 68.46 205.1 61.8428 205.1 53.68C205.1 45.5172 198.483 38.9 190.32 38.9C182.157 38.9 175.54 45.5172 175.54 53.68C175.54 61.8428 182.157 68.46 190.32 68.46Z" fill="white" stroke="black" stroke-width="5" stroke-linecap="round" stroke-linejoin="round"/>
<path d="M164.95 79.34H166.64C173.936 79.34 180.933 82.2384 186.092 87.3975C191.252 92.5566 194.15 99.5539 194.15 106.85V126C194.15 126.014 194.147 126.029 194.142 126.042C194.136 126.055 194.128 126.068 194.118 126.078C194.108 126.088 194.095 126.096 194.082 126.102C194.069 126.107 194.054 126.11 194.04 126.11H137.55C137.535 126.11 137.521 126.107 137.508 126.102C137.494 126.096 137.482 126.088 137.472 126.078C137.462 126.068 137.454 126.055 137.448 126.042C137.443 126.029 137.44 126.014 137.44 126V106.85C137.44 99.5539 140.338 92.5566 145.497 87.3975C150.657 82.2384 157.654 79.34 164.95 79.34Z" fill="white" stroke="black" stroke-width="5" stroke-linecap="round" stroke-linejoin="round"/>
<path d="M181.35 126.1V105.1" stroke="black" stroke-width="5" stroke-linecap="round" stroke-linejoin="round"/>
<path d="M150.24 126.1V105.1" stroke="black" stroke-width="5" stroke-linecap="round" stroke-linejoin="round"/>
<path d="M165.8 79.34C173.963 79.34 180.58 72.7228 180.58 64.56C180.58 56.3972 173.963 49.78 165.8 49.78C157.637 49.78 151.02 56.3972 151.02 64.56C151.02 72.7228 157.637 79.34 165.8 79.34Z" fill="white" stroke="black" stroke-width="5" stroke-linecap="round" stroke-linejoin="round"/>
<path d="M86.65 66.5H108.56" stroke="#FFE500" stroke-width="5" stroke-linecap="round" stroke-linejoin="round"/>
<path d="M102.13 60.08L108.56 66.5L102.43 72.63" stroke="#FFE500" stroke-width="5" stroke-linecap="round" stroke-linejoin="round"/>
<path d="M53.76 73.9H55.45C59.066 73.8947 62.6476 74.6024 65.9899 75.9826C69.3322 77.3627 72.3696 79.3883 74.9284 81.9433C77.4871 84.4984 79.5171 87.5328 80.9021 90.8731C82.2871 94.2134 83 97.794 83 101.41V120.55C83 120.579 82.9884 120.607 82.9678 120.628C82.9472 120.648 82.9192 120.66 82.89 120.66H26.36C26.3308 120.66 26.3028 120.648 26.2822 120.628C26.2616 120.607 26.25 120.579 26.25 120.55V101.41C26.25 94.1139 29.1484 87.1166 34.3075 81.9575C39.4666 76.7984 46.4639 73.9 53.76 73.9Z" fill="white" stroke="black" stroke-width="5" stroke-linecap="round" stroke-linejoin="round"/>
<path d="M70.16 120.66V99.66" stroke="black" stroke-width="5" stroke-linecap="round" stroke-linejoin="round"/>
<path d="M39.05 120.66V99.66" stroke="black" stroke-width="5" stroke-linecap="round" stroke-linejoin="round"/>
<path d="M54.5999 73.9C62.7627 73.9 69.3799 67.2828 69.3799 59.12C69.3799 50.9572 62.7627 44.34 54.5999 44.34C46.4372 44.34 39.8199 50.9572 39.8199 59.12C39.8199 67.2828 46.4372 73.9 54.5999 73.9Z" fill="white" stroke="black" stroke-width="5" stroke-linecap="round" stroke-linejoin="round"/>
</svg>
