<svg width="544" height="452" viewBox="0 0 544 452" fill="none" xmlns="http://www.w3.org/2000/svg">
<path d="M59.52 308.74L201.89 36.24L416.23 57.28L473.17 247.63L144.38 377.64L59.52 308.74Z" fill="#FFE500"/>
<path d="M329.45 415.35H321.12V420.73H329.45V415.35Z" fill="white" stroke="black" stroke-linecap="round" stroke-linejoin="round"/>
<path d="M329.45 420.73H333.05V415.35H329.45V420.73Z" fill="white" stroke="black" stroke-linecap="round" stroke-linejoin="round"/>
<path d="M278.15 415.35H269.82V420.73H278.15V415.35Z" fill="white" stroke="black" stroke-linecap="round" stroke-linejoin="round"/>
<path d="M278.15 420.73H281.75V415.35H278.15V420.73Z" fill="white" stroke="black" stroke-linecap="round" stroke-linejoin="round"/>
<path d="M307.87 325.47H272.69V420.73H307.87V325.47Z" fill="#020000" stroke="black" stroke-linecap="round" stroke-linejoin="round"/>
<path d="M298.69 325.47H272.69V420.73H298.69V325.47Z" fill="white" stroke="black" stroke-linecap="round" stroke-linejoin="round"/>
<path d="M335.39 420.73H245.17V431.34H335.39V420.73Z" fill="#020000" stroke="black" stroke-linecap="round" stroke-linejoin="round"/>
<path d="M313.81 420.73H245.17V431.34H313.81V420.73Z" fill="white" stroke="black" stroke-linecap="round" stroke-linejoin="round"/>
<path d="M259.95 415.35H251.62V420.73H259.95V415.35Z" fill="white" stroke="black" stroke-linecap="round" stroke-linejoin="round"/>
<path d="M259.95 420.73H263.55V415.35H259.95V420.73Z" fill="white" stroke="black" stroke-linecap="round" stroke-linejoin="round"/>
<path d="M310.24 415.35H301.91V420.73H310.24V415.35Z" fill="white" stroke="black" stroke-linecap="round" stroke-linejoin="round"/>
<path d="M310.23 420.73H313.83V415.35H310.23V420.73Z" fill="white" stroke="black" stroke-linecap="round" stroke-linejoin="round"/>
<path d="M367.99 69.41H212.57C206.285 69.41 201.19 74.505 201.19 80.79V340.62C201.19 346.905 206.285 352 212.57 352H367.99C374.275 352 379.37 346.905 379.37 340.62V80.79C379.37 74.505 374.275 69.41 367.99 69.41Z" fill="#020000" stroke="black" stroke-linecap="round" stroke-linejoin="round"/>
<path d="M349.05 69.41H212.57C206.285 69.41 201.19 74.505 201.19 80.79V340.62C201.19 346.905 206.285 352 212.57 352H349.05C355.335 352 360.43 346.905 360.43 340.62V80.79C360.43 74.505 355.335 69.41 349.05 69.41Z" fill="white" stroke="black" stroke-linecap="round" stroke-linejoin="round"/>
<path d="M342.17 92.79H218.29V317.32H342.17V92.79Z" fill="white" stroke="black" stroke-linecap="round" stroke-linejoin="round"/>
<path d="M222.2 92.79H218.29V317.32H222.2V92.79Z" fill="#020000" stroke="black" stroke-linecap="round" stroke-linejoin="round"/>
<path d="M293.68 332.45H249.89V336.08H293.68V332.45Z" fill="#020000" stroke="black" stroke-linecap="round" stroke-linejoin="round"/>
<path d="M293.68 81.99H249.89V85.62H293.68V81.99Z" fill="white" stroke="black" stroke-linecap="round" stroke-linejoin="round"/>
<path d="M286.3 137.7C285.562 139.822 285.187 142.053 285.19 144.3H245.6V137.7H286.3Z" fill="white" stroke="black" stroke-linecap="round" stroke-linejoin="round"/>
<path d="M323.14 141.39V144.3H323.08V267.55H245.6V144.3H285.19C285.187 142.053 285.562 139.822 286.3 137.7C287.672 133.666 290.274 130.162 293.739 127.682C297.204 125.202 301.359 123.869 305.62 123.87C310.266 123.873 314.721 125.719 318.006 129.004C321.291 132.289 323.137 136.744 323.14 141.39Z" fill="white" stroke="black" stroke-linecap="round" stroke-linejoin="round"/>
<path d="M299.04 139.96H278.51V147.58H299.04V139.96Z" fill="black" stroke="#020000" stroke-linecap="round" stroke-linejoin="round"/>
<path d="M302.72 147.58H308.18V139.96H302.72V147.58Z" fill="black" stroke="#020000" stroke-linecap="round" stroke-linejoin="round"/>
<path d="M256.28 147.58H273.18V139.96H256.28V147.58Z" fill="black" stroke="#020000" stroke-linecap="round" stroke-linejoin="round"/>
<path d="M315.59 196C315.651 204.136 313.127 212.082 308.38 218.69C302.67 226.47 294.09 231.42 284.5 231.42C280.531 231.415 276.61 230.559 273 228.91C271.243 228.105 269.568 227.13 268 226C259.26 219.73 253.45 208.65 253.45 196C253.42 191.224 254.25 186.482 255.9 182C259.4 172.69 266.3 165.44 274.82 162.26C280.432 160.157 286.576 159.943 292.32 161.65C293.254 161.935 294.171 162.269 295.07 162.65C307 167.58 315.59 180.64 315.59 196Z" fill="#020000" stroke="black" stroke-linecap="round" stroke-linejoin="round"/>
<path d="M285.84 211.06L284 215.06L281.89 216.11L281.34 222.4H277.68L273.87 228.24L273.01 228.87C271.251 228.078 269.573 227.117 268 226L265.9 217.83L261.96 214.54L260.25 207.94L258.67 205.7L259.59 199.41L257.23 195.51L254.99 189.67L255.99 182.07C259.49 172.76 266.39 165.51 274.91 162.33L276.59 165.26L278.15 176.71L270.98 177.48L264 186.1L261.8 187.83L261.3 183.5L260.3 182.74L257.21 186.35L257.42 187.92L259.59 187.83L259.36 194.07L261.36 196.76L264.14 195.48L266.68 198.21L275.45 202.21L276.24 206.11L285.84 211.06Z" fill="white" stroke="black" stroke-linecap="round" stroke-linejoin="round"/>
<path d="M281.34 161.69L279.41 162.17L278.74 164.38L281.34 165.43L280.43 169.76L282.2 173.31L284.05 172.74V169.85L288.78 168.03L287.34 162.55L284.39 161.34L281.34 161.69Z" fill="white" stroke="black" stroke-linecap="round" stroke-linejoin="round"/>
<path d="M308.38 218.67L309.61 211.85L308.85 202.53L305.31 200.22L299.41 202.53L296.79 197.53L295.36 191.86L297.21 186.86L301.35 182.16L309.61 181.49V179.37L308.68 178.24L305.56 175L306.32 178.29H303.62L300.67 175.38V178.29L297.55 179.42L296.62 181.54H292.83L291.98 172.4H296.29L297.04 170.1L293.71 169.3L292.32 161.74L295.1 162.79V162.71C307.1 167.63 315.62 180.71 315.62 196.03C315.662 204.152 313.127 212.079 308.38 218.67Z" fill="white" stroke="black" stroke-linecap="round" stroke-linejoin="round"/>
<path d="M263.74 171.22L261.64 165.59H263.74V155.97L266.34 159.37L268.17 153.56L270.69 160.88L272.31 157.15L273.46 161.72L275.07 160.63V168.08" fill="#FFE500"/>
<path d="M263.74 171.22L261.64 165.59H263.74V155.97L266.34 159.37L268.17 153.56L270.69 160.88L272.31 157.15L273.46 161.72L275.07 160.63V168.08" stroke="black" stroke-linecap="round" stroke-linejoin="round"/>
<path d="M307.07 189.37L305.11 181.6L307.77 183.75L311.06 176.87L311.75 184.38L314.51 182.23L313.73 188.03L316.47 187.59L314.04 190.18" fill="#FFE500"/>
<path d="M307.07 189.37L305.11 181.6L307.77 183.75L311.06 176.87L311.75 184.38L314.51 182.23L313.73 188.03L316.47 187.59L314.04 190.18" stroke="black" stroke-linecap="round" stroke-linejoin="round"/>
<path d="M264.76 203.86L262.53 200.89L264.04 201.01L263.23 197.8L265 199.18L267.14 194.36L268.22 199.58L270.57 198.29L269.95 202.81L272.09 202.47L270.2 204.48" fill="#FFE500"/>
<path d="M264.76 203.86L262.53 200.89L264.04 201.01L263.23 197.8L265 199.18L267.14 194.36L268.22 199.58L270.57 198.29L269.95 202.81L272.09 202.47L270.2 204.48" stroke="black" stroke-linecap="round" stroke-linejoin="round"/>
<path d="M281.41 164.28L280.1 161.21L281.41 161.74L282.18 154.37L284.41 158.93L286.03 157.52L285.72 164.28" fill="#FFE500"/>
<path d="M281.41 164.28L280.1 161.21L281.41 161.74L282.18 154.37L284.41 158.93L286.03 157.52L285.72 164.28" stroke="black" stroke-linecap="round" stroke-linejoin="round"/>
<path d="M277.5 213.87L277.09 210.19L277.96 210.96L280.18 205.64L280.84 209.72L282.37 209.13L280.63 214.12" fill="#FFE500"/>
<path d="M277.5 213.87L277.09 210.19L277.96 210.96L280.18 205.64L280.84 209.72L282.37 209.13L280.63 214.12" stroke="black" stroke-linecap="round" stroke-linejoin="round"/>
<path d="M291.68 173.51L291.85 175.19L292.85 175.29L292.73 174L291.68 173.51Z" fill="#FFE500" stroke="black" stroke-linecap="round" stroke-linejoin="round"/>
<path d="M301.94 164.54L305.64 163.63L304.97 161.36L301.94 164.54Z" fill="#FFE500" stroke="black" stroke-linecap="round" stroke-linejoin="round"/>
<path d="M293.91 164.21L292.45 159.22L293.91 160.75L295.25 152.46L297.92 158.34L299.02 155.07L299.61 159.03L302.66 157.94L299.65 166.58" fill="#FFE500"/>
<path d="M293.91 164.21L292.45 159.22L293.91 160.75L295.25 152.46L297.92 158.34L299.02 155.07L299.61 159.03L302.66 157.94L299.65 166.58" stroke="black" stroke-linecap="round" stroke-linejoin="round"/>
<path d="M313.53 226.78L286.04 197.01L312.17 165.69L309.12 162.38L282.99 193.7L255.49 163.93L252.59 167.41L280.08 197.18L253.96 228.5L257.01 231.81L283.14 200.49L310.63 230.25L313.53 226.78Z" fill="#FFE500" stroke="black" stroke-linecap="round" stroke-linejoin="round"/>
<path d="M315.6 241.72H293.55V245.65H315.6V241.72Z" fill="black" stroke="#020000" stroke-linecap="round" stroke-linejoin="round"/>
<path d="M315.59 249.76H287.03V253.69H315.59V249.76Z" fill="black" stroke="#020000" stroke-linecap="round" stroke-linejoin="round"/>
<path d="M315.59 257.8H298.27V261.73H315.59V257.8Z" fill="black" stroke="#020000" stroke-linecap="round" stroke-linejoin="round"/>
<path d="M293.68 257.8H288.58V261.73H293.68V257.8Z" fill="black" stroke="#020000" stroke-linecap="round" stroke-linejoin="round"/>
<path d="M305.62 123.87C301.359 123.869 297.204 125.202 293.739 127.682C290.274 130.162 287.672 133.666 286.3 137.7C285.562 139.822 285.187 142.053 285.19 144.3H220.27C220.269 141.617 220.796 138.96 221.822 136.48C222.849 134.001 224.354 131.748 226.251 129.851C228.148 127.954 230.401 126.449 232.88 125.422C235.36 124.396 238.017 123.869 240.7 123.87H305.62Z" fill="#FFE500" stroke="black" stroke-linecap="round" stroke-linejoin="round"/>
<path d="M212.64 199L217.06 195.85C218.424 193.212 220.309 190.877 222.6 188.986C224.891 187.096 227.541 185.689 230.39 184.85C232.76 184.15 235.1 183.4 237.17 182.64C240.947 182.95 244.743 182.95 248.52 182.64L260 185.05C260 185.05 259.82 189.05 255.08 188.76C252.575 188.679 250.087 188.303 247.67 187.64L239.79 188.69L243.59 188.18L244.95 189.18C245.816 189.83 246.468 190.723 246.825 191.745C247.181 192.768 247.225 193.873 246.95 194.92L246.17 197.92L243.17 202.97C243.17 202.97 232.07 206.97 226.71 206.36C223.08 205.96 222.88 206.61 222.88 206.61L217.53 209.38" fill="white"/>
<path d="M212.64 199L217.06 195.85C218.424 193.212 220.309 190.877 222.6 188.986C224.891 187.096 227.541 185.689 230.39 184.85C232.76 184.15 235.1 183.4 237.17 182.64C240.947 182.95 244.743 182.95 248.52 182.64L260 185.05C260 185.05 259.82 189.05 255.08 188.76C252.575 188.679 250.087 188.303 247.67 187.64L239.79 188.69L243.59 188.18L244.95 189.18C245.816 189.83 246.468 190.723 246.825 191.745C247.181 192.768 247.225 193.873 246.95 194.92L246.17 197.92L243.17 202.97C243.17 202.97 232.07 206.97 226.71 206.36C223.08 205.96 222.88 206.61 222.88 206.61L217.53 209.38" stroke="#020000" stroke-linecap="round" stroke-linejoin="round"/>
<path d="M245 191.84L248.16 194.3C248.873 194.958 249.341 195.841 249.484 196.801C249.628 197.761 249.44 198.742 248.95 199.58L245.58 203.76L238.79 204.43L233.43 203.5C233.43 203.5 232.48 200.41 236.28 201.29L238.63 201.37L242.96 200.54L244.61 197.6L242.99 197.1" fill="white"/>
<path d="M245 191.84L248.16 194.3C248.873 194.958 249.341 195.841 249.484 196.801C249.628 197.761 249.44 198.742 248.95 199.58L245.58 203.76L238.79 204.43L233.43 203.5C233.43 203.5 232.48 200.41 236.28 201.29L238.63 201.37L242.96 200.54L244.61 197.6L242.99 197.1" stroke="#020000" stroke-linecap="round" stroke-linejoin="round"/>
<path d="M243.73 188.2L247.1 191C248.63 192.15 249.1 195.56 247.9 197.09L244.25 202L236.95 202.83L231.21 201.83C231.21 201.83 230.21 198.26 234.28 199.25L236.81 199.32L241.47 198.32L243.26 194.92L241.52 194.35" fill="white"/>
<path d="M243.73 188.2L247.1 191C248.63 192.15 249.1 195.56 247.9 197.09L244.25 202L236.95 202.83L231.21 201.83C231.21 201.83 230.21 198.26 234.28 199.25L236.81 199.32L241.47 198.32L243.26 194.92L241.52 194.35" stroke="#020000" stroke-linecap="round" stroke-linejoin="round"/>
<path d="M244.22 188.68L245.22 189.43C245.913 189.956 246.37 190.735 246.492 191.596C246.613 192.458 246.39 193.332 245.87 194.03L242.41 198.63L235.51 199.42L230.07 198.42C230.07 198.42 229.13 195.04 232.98 195.98L235.37 196.05L239.78 195.05L240.36 192.99" fill="white"/>
<path d="M244.22 188.68L245.22 189.43C245.913 189.956 246.37 190.735 246.492 191.596C246.613 192.458 246.39 193.332 245.87 194.03L242.41 198.63L235.51 199.42L230.07 198.42C230.07 198.42 229.13 195.04 232.98 195.98L235.37 196.05L239.78 195.05L240.36 192.99" stroke="#020000" stroke-linecap="round" stroke-linejoin="round"/>
<path d="M219.78 200.14C227.08 201.7 227.98 194.62 227.98 194.62L219.78 200.14Z" fill="white"/>
<path d="M219.78 200.14C227.08 201.7 227.98 194.62 227.98 194.62" stroke="#020000" stroke-linecap="round" stroke-linejoin="round"/>
<path d="M229.51 188.65L231.51 188.87L237.27 190.33L242.72 193.77C242.72 193.77 242.94 196.98 238.43 196.58C238.43 196.58 236.54 195.67 235.29 195.19C233.884 194.796 232.445 194.535 230.99 194.41L226.99 195.33" fill="white"/>
<path d="M229.51 188.65L231.51 188.87L237.27 190.33L242.72 193.77C242.72 193.77 242.94 196.98 238.43 196.58C238.43 196.58 236.54 195.67 235.29 195.19C233.884 194.796 232.445 194.535 230.99 194.41L226.99 195.33" stroke="#020000" stroke-linecap="round" stroke-linejoin="round"/>
<path d="M193.06 405.07H178.41L177.74 417.58H192.39L193.06 405.07Z" fill="white" stroke="#020000" stroke-linecap="round" stroke-linejoin="round"/>
<path d="M196.7 397.43H174.23L173.9 405.07H196.37L196.7 397.43Z" fill="white" stroke="black" stroke-linecap="round" stroke-linejoin="round"/>
<path d="M218.1 427.13V431.34H174.33L176.57 413C176.57 413 176.72 411.23 180.2 411.23C180.97 411.231 181.738 411.315 182.49 411.48C184.246 411.857 185.829 412.799 187 414.16C187.502 414.814 188.136 415.355 188.862 415.746C189.588 416.137 190.388 416.37 191.21 416.43C194.31 416.43 192.97 412.18 192.97 412.18C193.333 412.059 193.717 412.015 194.098 412.052C194.479 412.089 194.847 412.206 195.18 412.394C195.513 412.583 195.803 412.839 196.03 413.147C196.257 413.455 196.417 413.806 196.5 414.18C200.12 416.05 205.85 418.6 210.41 418.67C214.97 418.74 217.57 423.37 218.1 427.13Z" fill="white" stroke="#020000" stroke-linecap="round" stroke-linejoin="round"/>
<g style="mix-blend-mode:multiply">
<path d="M175.18 427.13H218.1" stroke="#020000" stroke-linecap="round" stroke-linejoin="round"/>
</g>
<g style="mix-blend-mode:multiply">
<path d="M176 417.58H184.41C186.52 417.58 187 415.99 187 414.15" stroke="#020000" stroke-linecap="round" stroke-linejoin="round"/>
</g>
<g style="mix-blend-mode:multiply">
<path d="M209.53 431.34V427.13" stroke="#020000" stroke-linecap="round" stroke-linejoin="round"/>
</g>
<path d="M211.76 281.21L203.29 348.39L195.22 397.43H176.19L179.82 349V309.96" fill="#FFE500"/>
<path d="M211.76 281.21L203.29 348.39L195.22 397.43H176.19L179.82 349V309.96" stroke="black" stroke-linecap="round" stroke-linejoin="round"/>
<path d="M224.85 405.07H210.2L209.53 417.58H224.18L224.85 405.07Z" fill="white" stroke="#020000" stroke-linecap="round" stroke-linejoin="round"/>
<path d="M228.5 397.43H206.03L205.69 405.07H228.16L228.5 397.43Z" fill="white" stroke="black" stroke-linecap="round" stroke-linejoin="round"/>
<path d="M249.89 427.13V431.34H206.12L208.36 413C208.36 413 208.51 411.23 211.99 411.23C212.76 411.231 213.528 411.315 214.28 411.48C216.037 411.86 217.623 412.801 218.8 414.16C219.299 414.815 219.932 415.356 220.656 415.747C221.38 416.139 222.179 416.371 223 416.43C226.1 416.43 224.76 412.18 224.76 412.18C225.123 412.059 225.507 412.015 225.888 412.052C226.269 412.089 226.637 412.206 226.97 412.394C227.303 412.583 227.593 412.839 227.82 413.147C228.047 413.455 228.208 413.806 228.29 414.18C231.91 416.05 237.64 418.6 242.2 418.67C246.76 418.74 249.36 423.37 249.89 427.13Z" fill="white" stroke="black" stroke-linecap="round" stroke-linejoin="round"/>
<g style="mix-blend-mode:multiply">
<path d="M206.97 427.13H249.89" stroke="#020000" stroke-linecap="round" stroke-linejoin="round"/>
</g>
<g style="mix-blend-mode:multiply">
<path d="M196.96 419.74H194.31L200.34 427.13H202.99L203.01 419.74H201.05H196.96Z" fill="#FFE500"/>
<path d="M196.96 419.74H194.31L200.34 427.13H202.99L203.01 419.74H201.05H196.96Z" stroke="#020000" stroke-linecap="round" stroke-linejoin="round"/>
</g>
<g style="mix-blend-mode:multiply">
<path d="M232.84 419.74H228.75H226.1L232.13 427.13H234.78L234.8 419.74H232.84Z" fill="#FFE500"/>
<path d="M232.84 419.74H228.75H226.1L232.13 427.13H234.78L234.8 419.74H232.84Z" stroke="#020000" stroke-linecap="round" stroke-linejoin="round"/>
</g>
<g style="mix-blend-mode:multiply">
<path d="M207.79 417.58H216.2C218.31 417.58 218.8 415.99 218.8 414.15" stroke="#020000" stroke-linecap="round" stroke-linejoin="round"/>
</g>
<g style="mix-blend-mode:multiply">
<path d="M241.32 431.34V427.13" stroke="#020000" stroke-linecap="round" stroke-linejoin="round"/>
</g>
<path d="M179.82 310C174.1 297.37 179.82 281.25 179.82 281.25H233.5L231.5 344.86L227.78 397.47H207.71L208.1 347L202.38 310L190.66 309.66" fill="#FFE500"/>
<path d="M179.82 310C174.1 297.37 179.82 281.25 179.82 281.25H233.5L231.5 344.86L227.78 397.47H207.71L208.1 347L202.38 310L190.66 309.66" stroke="black" stroke-linecap="round" stroke-linejoin="round"/>
<path d="M208.26 427.13L209.11 417.58" stroke="#020000" stroke-linecap="round" stroke-linejoin="round"/>
<g style="mix-blend-mode:multiply">
<g style="mix-blend-mode:multiply">
<path d="M222.07 397.43C222.07 397.43 223.58 355.11 224.32 351.35C224.524 350.3 224.361 349.211 223.859 348.266C223.357 347.322 222.545 346.578 221.56 346.16C221.326 345.946 221.156 345.67 221.071 345.364C220.986 345.058 220.989 344.734 221.08 344.43C221.946 342.136 222.338 339.69 222.23 337.24L224.49 281.24" stroke="#020000" stroke-linecap="round" stroke-linejoin="round"/>
</g>
<g style="mix-blend-mode:multiply">
<path d="M223.74 297.65C223.74 297.65 230.74 298.65 233.14 292.42" stroke="#020000" stroke-linecap="round" stroke-linejoin="round"/>
</g>
<g style="mix-blend-mode:multiply">
<path d="M224 300.6C224 300.6 230 301.49 232.65 297.33" stroke="#020000" stroke-linecap="round" stroke-linejoin="round"/>
</g>
<g style="mix-blend-mode:multiply">
<path d="M226 346.45C222.903 347.117 219.733 347.375 216.57 347.22" stroke="#020000" stroke-linecap="round" stroke-linejoin="round"/>
</g>
<g style="mix-blend-mode:multiply">
<path d="M191.73 281.21C191.73 281.21 186.81 300.68 193.96 309.77" stroke="#020000" stroke-linecap="round" stroke-linejoin="round"/>
</g>
<g style="mix-blend-mode:multiply">
<path d="M202.38 310C202.38 310 197.51 341.61 196.77 343.36C196.03 345.11 194.77 347.99 195.66 349.74C196.55 351.49 197.48 351.74 195.36 353.89C193.24 356.04 190.83 397.42 190.83 397.42" stroke="#020000" stroke-linecap="round" stroke-linejoin="round"/>
</g>
<g style="mix-blend-mode:multiply">
<path d="M178.92 284.3H233.14" stroke="#020000" stroke-linecap="round" stroke-linejoin="round"/>
</g>
<g style="mix-blend-mode:multiply">
<path d="M197.55 288.7H217.18L217.8 303.39L206.69 307.83L198.05 304.62C197.162 299.361 196.994 294.005 197.55 288.7V288.7Z" stroke="#020000" stroke-linecap="round" stroke-linejoin="round"/>
</g>
<g style="mix-blend-mode:multiply">
<path d="M197.24 292.42H217.34" stroke="#020000" stroke-linecap="round" stroke-linejoin="round"/>
</g>
<g style="mix-blend-mode:multiply">
<path d="M206.25 304.16C206.786 304.16 207.22 303.726 207.22 303.19C207.22 302.654 206.786 302.22 206.25 302.22C205.714 302.22 205.28 302.654 205.28 303.19C205.28 303.726 205.714 304.16 206.25 304.16Z" fill="#020000"/>
</g>
</g>
<path d="M237.91 174.51L239.79 174.09C240.119 174.019 240.427 173.873 240.691 173.663C240.954 173.453 241.166 173.186 241.309 172.881C241.452 172.576 241.523 172.243 241.516 171.906C241.51 171.569 241.425 171.239 241.27 170.94L238.21 164.94" fill="white"/>
<path d="M237.91 174.51L239.79 174.09C240.119 174.019 240.427 173.873 240.691 173.663C240.954 173.453 241.166 173.186 241.309 172.881C241.452 172.576 241.523 172.243 241.516 171.906C241.51 171.569 241.425 171.239 241.27 170.94L238.21 164.94" stroke="#020000" stroke-linecap="round" stroke-linejoin="round"/>
<path d="M202.11 165.62C201.891 161.097 203.259 156.64 205.978 153.019C208.697 149.398 212.596 146.841 217 145.79C226.43 143.67 236.11 147.58 238.72 159.22C239.78 163.93 238.32 178.32 237.57 184.84C237.466 185.733 237.034 186.554 236.357 187.146C235.681 187.737 234.809 188.056 233.91 188.04L226.46 187.91C213 190.91 202.67 180.14 202.11 165.62Z" fill="white" stroke="#020000" stroke-linecap="round" stroke-linejoin="round"/>
<path d="M207.08 179.88L201.99 200.44L225.67 195.12L226.47 185.24" fill="white"/>
<path d="M207.08 179.88L201.99 200.44L225.67 195.12L226.47 185.24" stroke="#020000" stroke-linecap="round" stroke-linejoin="round"/>
<path d="M206.74 181.25C211.688 180.343 216.709 179.887 221.74 179.89C221.74 179.89 221.74 154.53 229.9 158.97L232.72 168.68L233.84 168.96C235.693 166.44 236.187 162.71 235.32 157.77L236.46 161.46C238.51 161.01 239.34 158.69 238.7 154.09C238.75 156.34 239.39 157.72 241.93 156.37C243.67 154.22 243.51 151.91 241.56 149.45C242.99 151.02 244.75 150.22 245.21 148.36C245.67 146.5 239.46 140.54 234.36 140.23C234.36 140.23 220.52 127.02 209.73 139.34C196.48 141.1 193.82 161 206.74 181.25Z" fill="#020000" stroke="#020000" stroke-linecap="round" stroke-linejoin="round"/>
<path d="M228.489 171.418C230.127 171.258 231.185 168.37 230.853 164.967C230.521 161.565 228.923 158.936 227.285 159.096C225.647 159.256 224.589 162.144 224.921 165.547C225.254 168.949 226.851 171.578 228.489 171.418Z" fill="white" stroke="#020000" stroke-linecap="round" stroke-linejoin="round"/>
<path d="M229.803 172.197C231.261 172.051 232.109 168.589 231.696 164.463C231.283 160.337 229.767 157.111 228.309 157.257C226.851 157.403 226.003 160.865 226.416 164.991C226.829 169.117 228.345 172.343 229.803 172.197Z" fill="white" stroke="#020000" stroke-linecap="round" stroke-linejoin="round"/>
<g style="mix-blend-mode:multiply">
<path d="M229.49 159.69C229.49 159.69 228.16 158.22 228.58 163.96C229 169.7 229.98 170.22 229.98 170.22" stroke="#020000" stroke-linecap="round" stroke-linejoin="round"/>
</g>
<g style="mix-blend-mode:multiply">
<path d="M228.88 162C229.166 162.13 229.424 162.317 229.637 162.549C229.85 162.781 230.014 163.053 230.12 163.35C230.32 164.22 229.45 164.15 229.89 166.51" stroke="#020000" stroke-linecap="round" stroke-linejoin="round"/>
</g>
<path d="M227.9 179.89C228.901 178.275 230.035 176.747 231.29 175.32C232.245 174.256 232.81 172.898 232.89 171.47L234.46 171.53C234.795 172.667 235.007 173.837 235.09 175.02C235.26 177.11 238.99 176.02 239.66 178.14C240.33 180.26 238.14 180.34 240.25 182.63C240.928 183.334 241.379 184.224 241.544 185.187C241.71 186.15 241.583 187.14 241.18 188.03C244.08 190.15 242.04 191.95 239.31 193.42C231.4 197.7 226.48 185.24 226.48 185.24L227.9 179.89Z" fill="#020000" stroke="#020000" stroke-linecap="round" stroke-linejoin="round"/>
<path d="M202.23 191.17L203.5 184.17C209.005 182.344 214.898 182.02 220.57 183.23C230.86 185.65 230.15 192.54 230.15 192.54L202.23 191.17Z" fill="white" stroke="black" stroke-linecap="round" stroke-linejoin="round"/>
<path d="M236.06 281.21C221.073 283.285 205.96 284.317 190.83 284.3C179.83 284.3 179.83 281.21 179.83 281.21C179.83 281.21 186.83 224.65 190.09 206.27C192.23 194.06 201.26 187 213.66 187C233.6 187 240.53 198.28 240.79 219.41C241 234.87 236.06 281.21 236.06 281.21Z" fill="white" stroke="black" stroke-linecap="round" stroke-linejoin="round"/>
<path d="M274.58 192.23L279.37 187.6L279.14 178.36L281.14 170.75L285.37 168.67L289.37 169.73L292.94 166.85C295.35 164.96 296.94 165.78 297.94 168.39C300.01 167.91 301.42 169.1 302.26 171.77C304.55 172.39 305.49 173.52 305.39 176.12C307.57 177.18 308.73 178.94 306.94 180.85L287.78 199.31L274.58 192.23Z" fill="white" stroke="#020000" stroke-linecap="round" stroke-linejoin="round"/>
<path d="M291.09 170.87C291.09 170.87 293.9 170.17 295.26 173.65C295.26 173.65 299.2 173.97 299.5 177.41C299.5 177.41 304.21 178.87 303.59 182.13" stroke="black" stroke-linecap="round" stroke-linejoin="round"/>
<path d="M284.59 174.32L289.35 169.73" stroke="black" stroke-linecap="round" stroke-linejoin="round"/>
<path d="M222.2 187.85L266.05 196L278.36 187C281.36 184.13 286.04 185.47 287.47 187C289.04 188.68 292.71 191.65 289.93 198.1L275.7 212.28C274.324 213.605 272.647 214.577 270.813 215.113C268.98 215.65 267.044 215.734 265.17 215.36L230.17 211.61" fill="white"/>
<path d="M222.2 187.85L266.05 196L278.36 187C281.36 184.13 286.04 185.47 287.47 187C289.04 188.68 292.71 191.65 289.93 198.1L275.7 212.28C274.324 213.605 272.647 214.577 270.813 215.113C268.98 215.65 267.044 215.734 265.17 215.36L230.17 211.61" stroke="black" stroke-linecap="round" stroke-linejoin="round"/>
<path d="M268.57 200.16C268.279 198.515 267.379 197.041 266.05 196.03" stroke="black" stroke-linecap="round" stroke-linejoin="round"/>
<path d="M223.78 210.65C223.78 210.65 200.11 206.28 189.25 211.28" stroke="black" stroke-linecap="round" stroke-linejoin="round"/>
<path d="M201.6 194.31L190.99 279.5" stroke="black" stroke-linecap="round" stroke-linejoin="round"/>
<path d="M238.07 212.46L234.53 214.72" stroke="black" stroke-linecap="round" stroke-linejoin="round"/>
<path d="M123.75 431.34H445.74" stroke="#020000" stroke-linecap="round" stroke-linejoin="round"/>
</svg>
