<svg width="245" height="165" viewBox="0 0 245 165" fill="none" xmlns="http://www.w3.org/2000/svg">
<path d="M174.54 26.28C175.566 26.28 176.551 26.6877 177.276 27.4135C178.002 28.1393 178.41 29.1236 178.41 30.15V36.15H170.67V30.15C170.67 29.1236 171.078 28.1393 171.803 27.4135C172.529 26.6877 173.514 26.28 174.54 26.28Z" fill="white" stroke="#020000" stroke-width="3" stroke-linecap="round" stroke-linejoin="round"/>
<g style="mix-blend-mode:multiply">
<path d="M204.19 89.33H40.8199V96.93H204.19V89.33Z" fill="white"/>
<path d="M204.19 89.33H40.8199V96.93H204.19V89.33Z" stroke="#020000" stroke-width="3" stroke-linecap="round" stroke-linejoin="round"/>
</g>
<g style="mix-blend-mode:multiply">
<path d="M192.98 43.31H124.62V48.32H192.98V43.31Z" fill="white"/>
<path d="M192.98 43.31H124.62V48.32H192.98V43.31Z" stroke="#020000" stroke-width="3" stroke-linecap="round" stroke-linejoin="round"/>
</g>
<g style="mix-blend-mode:multiply">
<path d="M51.66 96.93H46.12V143.34H51.66V96.93Z" fill="white"/>
<path d="M51.66 96.93H46.12V143.34H51.66V96.93Z" stroke="#020000" stroke-width="3" stroke-linecap="round" stroke-linejoin="round"/>
</g>
<g style="mix-blend-mode:multiply">
<path d="M198.89 96.93H193.35V143.34H198.89V96.93Z" fill="white"/>
<path d="M198.89 96.93H193.35V143.34H198.89V96.93Z" stroke="#020000" stroke-width="3" stroke-linecap="round" stroke-linejoin="round"/>
</g>
<path d="M114.25 85.17H71.1399V89.33H114.25V85.17Z" stroke="#020000" stroke-width="3" stroke-linecap="round" stroke-linejoin="round"/>
<path d="M112.68 59.2H72.72V85.17H112.68V59.2Z" fill="#020000" stroke="#020000" stroke-width="3" stroke-linecap="round" stroke-linejoin="round"/>
<path d="M110.82 61.11H74.58V83.26H110.82V61.11Z" fill="white"/>
<path d="M81.24 63.95L77.1 68.1" stroke="#020000" stroke-width="3" stroke-linecap="round" stroke-linejoin="round"/>
<path d="M87.71 64.26L77.71 74.26" stroke="#020000" stroke-width="3" stroke-linecap="round" stroke-linejoin="round"/>
<path d="M110.59 106.51H74.8099V112.48H110.59V106.51Z" fill="#FFE500" stroke="#020000" stroke-width="3" stroke-linecap="round" stroke-linejoin="round"/>
<path d="M95.56 112.49H89.83V143.33H95.56V112.49Z" fill="white" stroke="#020000" stroke-width="3" stroke-linecap="round" stroke-linejoin="round"/>
<path d="M79.0299 143.34H73.2999L84.0999 112.49H89.8299L79.0299 143.34Z" fill="white" stroke="#020000" stroke-width="3" stroke-linecap="round" stroke-linejoin="round"/>
<path d="M106.36 143.34H112.09L101.29 112.49H95.5599L106.36 143.34Z" fill="white" stroke="#020000" stroke-width="3" stroke-linecap="round" stroke-linejoin="round"/>
<path d="M173.86 85.17H130.75V89.33H173.86V85.17Z" stroke="#020000" stroke-width="3" stroke-linecap="round" stroke-linejoin="round"/>
<path d="M172.29 59.2H132.33V85.17H172.29V59.2Z" fill="#020000" stroke="#020000" stroke-width="3" stroke-linecap="round" stroke-linejoin="round"/>
<path d="M170.42 61.11H134.18V83.26H170.42V61.11Z" fill="white"/>
<path d="M140.85 63.95L136.7 68.1" stroke="#020000" stroke-width="3" stroke-linecap="round" stroke-linejoin="round"/>
<path d="M147.32 64.26L137.32 74.26" stroke="#020000" stroke-width="3" stroke-linecap="round" stroke-linejoin="round"/>
<path d="M170.19 106.51H134.41V112.48H170.19V106.51Z" fill="#FFE500" stroke="#020000" stroke-width="3" stroke-linecap="round" stroke-linejoin="round"/>
<path d="M155.17 112.49H149.44V143.33H155.17V112.49Z" fill="white" stroke="#020000" stroke-width="3" stroke-linecap="round" stroke-linejoin="round"/>
<path d="M138.64 143.34H132.91L143.71 112.49H149.44L138.64 143.34Z" fill="white" stroke="#020000" stroke-width="3" stroke-linecap="round" stroke-linejoin="round"/>
<path d="M165.97 143.34H171.7L160.9 112.49H155.17L165.97 143.34Z" fill="white" stroke="#020000" stroke-width="3" stroke-linecap="round" stroke-linejoin="round"/>
<path d="M62.54 89.32H46.12C46.12 87.1426 46.985 85.0543 48.5247 83.5146C50.0643 81.975 52.1526 81.11 54.33 81.11C56.5074 81.11 58.5957 81.975 60.1353 83.5146C61.675 85.0543 62.54 87.1426 62.54 89.32Z" fill="white" stroke="#020000" stroke-width="3" stroke-linecap="round" stroke-linejoin="round"/>
<path d="M54.33 81.11L43.59 57.03" stroke="#020000" stroke-width="3" stroke-linecap="round" stroke-linejoin="round"/>
<path d="M40.8199 59.2L70.0299 32.43" stroke="#020000" stroke-width="3" stroke-linecap="round" stroke-linejoin="round"/>
<path d="M67.3973 28.617L67.6589 28.3553C68.2553 27.759 69.0641 27.4239 69.9075 27.4239C70.7509 27.4239 71.5597 27.759 72.1561 28.3553L78.2302 34.4294L73.4713 39.1882L67.3973 33.1142C66.8009 32.5178 66.4659 31.709 66.4659 30.8656C66.4659 30.0222 66.8009 29.2133 67.3973 28.617Z" fill="white" stroke="#020000" stroke-width="3" stroke-linecap="round" stroke-linejoin="round"/>
<path d="M71.6951 32.6428C73.3361 31.0018 75.5617 30.0799 77.8823 30.0799C80.203 30.0799 82.4285 31.0018 84.0695 32.6428L88.7718 37.345L76.3974 49.7194L71.7022 45.0242C70.8882 44.212 70.2422 43.2473 69.8012 42.1853C69.3603 41.1233 69.133 39.9848 69.1323 38.8349C69.1316 37.685 69.3577 36.5463 69.7974 35.4838C70.2371 34.4213 70.882 33.4559 71.6951 32.6428Z" fill="white" stroke="#020000" stroke-width="3" stroke-linecap="round" stroke-linejoin="round"/>
<path d="M67.5299 28.49L65.7799 26.73" stroke="#020000" stroke-width="3" stroke-linecap="round" stroke-linejoin="round"/>
<path d="M133.19 23.49H128.3V43.31H133.19V23.49Z" fill="white" stroke="#020000" stroke-width="3" stroke-linecap="round" stroke-linejoin="round"/>
<path d="M138.08 23.49H133.19V43.31H138.08V23.49Z" fill="white" stroke="#020000" stroke-width="3" stroke-linecap="round" stroke-linejoin="round"/>
<path d="M148.109 22.253L143.316 23.1332L146.884 42.5568L151.676 41.6766L148.109 22.253Z" fill="white" stroke="#020000" stroke-width="3" stroke-linecap="round" stroke-linejoin="round"/>
<path d="M142.97 28.68H138.08V43.31H142.97V28.68Z" fill="#FFE500" stroke="#020000" stroke-width="3" stroke-linecap="round" stroke-linejoin="round"/>
<path d="M178.05 43.31H170.95L168.56 35.4H180.44L178.05 43.31Z" fill="#FFE500" stroke="#020000" stroke-width="3" stroke-linecap="round" stroke-linejoin="round"/>
<path d="M171.84 26.84L170.67 25.33" stroke="#020000" stroke-width="3" stroke-linecap="round" stroke-linejoin="round"/>
<path d="M178.01 28.43L180.2 26.83" stroke="#020000" stroke-width="3" stroke-linecap="round" stroke-linejoin="round"/>
<path d="M170.67 30.63L168.56 30.18" stroke="#020000" stroke-width="3" stroke-linecap="round" stroke-linejoin="round"/>
</svg>
