<svg width="149" height="136" viewBox="0 0 149 136" fill="none" xmlns="http://www.w3.org/2000/svg">
<path d="M40.1027 52.4647C40.4458 52.1323 40.6338 51.6861 40.6252 51.2242C40.6166 50.7622 40.4121 50.3224 40.0568 50.0014C39.7015 49.6805 39.2244 49.5047 38.7305 49.5127C38.2366 49.5208 37.7664 49.712 37.4232 50.0443L31.1467 55.9149C30.9767 56.075 30.8422 56.2648 30.7507 56.4735C30.6592 56.6821 30.6126 56.9056 30.6134 57.1312C30.6143 57.3567 30.6626 57.5799 30.7557 57.788C30.8487 57.9961 30.9847 58.1849 31.1558 58.3439C31.5014 58.6648 31.9692 58.8442 32.4562 58.8426C32.6973 58.8418 32.9359 58.7966 33.1584 58.7096C33.3809 58.6225 33.5828 58.4953 33.7527 58.3353L40.1027 52.4647Z" fill="black"/>
<path d="M44.3788 50.2503L33.6059 60.3437C33.4138 60.4976 33.2578 60.6869 33.1476 60.8999C33.0374 61.1128 32.9755 61.3448 32.9658 61.5812C32.956 61.8176 32.9986 62.0533 33.0909 62.2736C33.1831 62.4939 33.3231 62.694 33.5019 62.8613C33.6808 63.0285 33.8947 63.1594 34.1302 63.2457C34.3657 63.332 34.6178 63.3719 34.8705 63.3627C35.1232 63.3536 35.3713 63.2957 35.5989 63.1927C35.8266 63.0896 36.0291 62.9437 36.1936 62.764L46.9849 52.6878C47.2855 52.3595 47.4427 51.9371 47.4248 51.505C47.407 51.073 47.2155 50.6632 46.8886 50.3575C46.5618 50.0518 46.1237 49.8727 45.6618 49.856C45.1999 49.8393 44.7483 49.9863 44.3972 50.2675L44.3788 50.2503Z" fill="black"/>
<path d="M103.492 52.5675C103.793 52.2391 103.95 51.8167 103.932 51.3847C103.914 50.9527 103.723 50.5429 103.396 50.2371C103.069 49.9314 102.631 49.7523 102.169 49.7357C101.707 49.719 101.256 49.8659 100.905 50.1471L94.628 56.0178C94.4359 56.1716 94.2799 56.361 94.1697 56.574C94.0595 56.7869 93.9976 57.0189 93.9879 57.2553C93.9781 57.4917 94.0207 57.7274 94.113 57.9477C94.2052 58.168 94.3452 58.3681 94.524 58.5353C94.7029 58.7026 94.9168 58.8335 95.1523 58.9198C95.3878 59.0061 95.6398 59.046 95.8926 59.0368C96.1453 59.0277 96.3933 58.9698 96.621 58.8668C96.8487 58.7637 97.0512 58.6178 97.2157 58.4381L103.492 52.5675Z" fill="black"/>
<path d="M107.695 50.3532L96.9221 60.4466C96.7299 60.6005 96.5739 60.7898 96.4637 61.0028C96.3536 61.2157 96.2917 61.4477 96.2819 61.6841C96.2722 61.9205 96.3147 62.1563 96.407 62.3765C96.4993 62.5968 96.6392 62.7969 96.8181 62.9642C96.9969 63.1314 97.2108 63.2623 97.4463 63.3486C97.6818 63.4349 97.9339 63.4748 98.1866 63.4656C98.4394 63.4565 98.6874 63.3986 98.9151 63.2956C99.1428 63.1925 99.3452 63.0466 99.5098 62.8669L110.301 52.8251C110.602 52.4967 110.759 52.0743 110.741 51.6422C110.723 51.2102 110.532 50.8004 110.205 50.4947C109.878 50.189 109.44 50.0099 108.978 49.9932C108.516 49.9765 108.064 50.1235 107.713 50.4047L107.695 50.3532Z" fill="black"/>
<path d="M147.141 73.9806H132.331C132.405 73.6994 132.448 73.4118 132.459 73.1223C132.481 72.1184 132.126 71.1391 131.455 70.355C130.784 69.5709 129.841 69.0316 128.789 68.8309V46.5157C128.789 46.0605 128.595 45.6238 128.251 45.3019C127.907 44.98 127.44 44.7992 126.954 44.7992H90.2486C89.7619 44.7992 89.2951 44.98 88.9509 45.3019C88.6067 45.6238 88.4133 46.0605 88.4133 46.5157V68.8309C87.8015 68.926 87.217 69.1376 86.696 69.4525C86.175 69.7674 85.7287 70.1789 85.3847 70.6616C85.0406 71.1443 84.8061 71.688 84.6957 72.2588C84.5853 72.8297 84.6014 73.4157 84.7428 73.9806H69.9324C70.0068 73.6994 70.0499 73.4118 70.0608 73.1223C70.0825 72.1184 69.727 71.1391 69.0564 70.355C68.3857 69.5709 67.4423 69.0316 66.3903 68.8309V46.5157C66.3903 46.0605 66.197 45.6238 65.8528 45.3019C65.5086 44.98 65.0418 44.7992 64.5551 44.7992H27.8501C27.3633 44.7992 26.8965 44.98 26.5524 45.3019C26.2082 45.6238 26.0148 46.0605 26.0148 46.5157V68.8309C25.403 68.926 24.8185 69.1376 24.2975 69.4525C23.7765 69.7674 23.3302 70.1789 22.9862 70.6616C22.6421 71.1443 22.4076 71.688 22.2972 72.2588C22.1868 72.8297 22.2029 73.4157 22.3443 73.9806H21.8305C21.8369 73.9006 21.8369 73.8203 21.8305 73.7403C21.5372 71.8935 20.6203 70.1827 19.2138 68.8579C17.8073 67.5331 15.9847 66.6635 14.0123 66.3763L5.95555 43.1684L33.154 12.1846L33.7229 13.266C33.7757 13.3569 33.8371 13.443 33.9064 13.5235C32.387 15.2823 31.435 17.4097 31.162 19.6564C30.889 21.9031 31.3062 24.176 32.3648 26.2089L36.0353 33.2296C36.1866 33.5185 36.4217 33.7618 36.7138 33.9317C37.0058 34.1017 37.3431 34.1915 37.687 34.1908C37.9667 34.1919 38.2429 34.1332 38.4945 34.0192L58.2418 24.9043C58.4729 24.8032 58.6789 24.6582 58.8467 24.4785C59.0144 24.2989 59.1403 24.0884 59.2163 23.8607C59.2923 23.633 59.3167 23.3929 59.2879 23.1559C59.2592 22.9188 59.1779 22.69 59.0493 22.4839L55.3788 15.4632C54.3046 13.423 52.6267 11.7141 50.5447 10.5396C48.4626 9.36504 46.0638 8.77422 43.6332 8.83732C43.6396 8.75733 43.6396 8.677 43.6332 8.597L40.3848 2.43457C40.1681 2.02727 39.7873 1.71712 39.3262 1.57228C38.865 1.42744 38.3613 1.45975 37.9256 1.66212L36.2739 2.4174L35.4664 0.872505C35.232 0.498567 34.855 0.221423 34.4111 0.0967279C33.9673 -0.0279668 33.4894 0.00902121 33.0735 0.200264C32.6576 0.391507 32.3344 0.722844 32.1689 1.12774C32.0034 1.53263 32.0078 1.98109 32.1813 2.38307L32.9888 3.92797L31.3371 4.68326C31.1112 4.78027 30.9087 4.91919 30.7419 5.0916C30.5752 5.264 30.4476 5.46629 30.3669 5.6862C30.2863 5.90611 30.2542 6.13905 30.2727 6.37089C30.2912 6.60274 30.3598 6.82866 30.4745 7.03494L31.5206 8.99181C31.2087 9.08723 30.9298 9.25914 30.7131 9.48961L0.743442 43.7177C0.525618 43.9689 0.388067 44.2724 0.346632 44.5935C0.305198 44.9145 0.361566 45.24 0.509243 45.5324C0.65692 45.8248 0.889898 46.0722 1.18135 46.2462C1.47279 46.4202 1.81085 46.5136 2.15658 46.5157C2.51385 46.4997 2.85831 46.3863 3.14762 46.1896L10.3234 66.5651C8.58105 66.9742 7.00535 67.8526 5.79174 69.0914C4.57813 70.3303 3.78 71.8751 3.49632 73.5343C3.46674 73.7106 3.46674 73.8901 3.49632 74.0664C3.11469 74.1665 2.77794 74.3794 2.53645 74.6734C2.29496 74.9673 2.16169 75.3265 2.15658 75.6972V134.06C2.15658 134.515 2.34994 134.952 2.69412 135.274C3.03829 135.596 3.5051 135.777 3.99183 135.777C4.47857 135.777 4.94538 135.596 5.28955 135.274C5.63373 134.952 5.82708 134.515 5.82708 134.06V84.2799H145.306V134.06C145.306 134.515 145.499 134.952 145.844 135.274C146.188 135.596 146.655 135.777 147.141 135.777C147.628 135.777 148.095 135.596 148.439 135.274C148.783 134.952 148.977 134.515 148.977 134.06V75.6972C148.977 75.4717 148.929 75.2485 148.837 75.0403C148.745 74.832 148.609 74.6428 148.439 74.4834C148.269 74.324 148.066 74.1975 147.844 74.1113C147.621 74.025 147.382 73.9806 147.141 73.9806ZM46.9 12.7511C48.0274 13.1064 49.0685 13.6671 49.963 14.4007C50.8576 15.1343 51.588 16.0263 52.1121 17.0253L55.0118 22.4839L38.4945 30.0711L35.5948 24.5781C34.579 22.5182 34.4632 20.1686 35.2722 18.03C36.0812 15.8913 37.7511 14.1327 39.926 13.1287C40.9915 12.6325 42.1518 12.339 43.3395 12.2653C44.5272 12.1917 45.7187 12.3393 46.8449 12.6996L46.9 12.7511ZM39.9627 9.48961C39.4168 9.65627 38.8833 9.85699 38.3661 10.0904C37.7852 10.366 37.2269 10.6816 36.696 11.0345L34.5855 7.03494L37.8705 5.52437L39.9627 9.48961ZM92.0838 48.2323H125.118V68.8309H92.0838V48.2323ZM89.0006 73.9806C88.7572 73.9396 88.5413 73.8099 88.4001 73.62C88.259 73.43 88.2044 73.1955 88.2482 72.9678C88.292 72.7402 88.4307 72.5382 88.6337 72.4062C88.8368 72.2742 89.0876 72.2231 89.331 72.264H127.871C128.115 72.2208 128.366 72.2697 128.571 72.4001C128.776 72.5305 128.917 72.7316 128.963 72.9593C129.009 73.1869 128.957 73.4224 128.818 73.6139C128.678 73.8055 128.463 73.9374 128.22 73.9806H128.11H89.0924H89.0006ZM29.6853 48.2323H62.7198V68.8309H29.6853V48.2323ZM26.6021 73.9806C26.4816 73.9603 26.3666 73.918 26.2635 73.8561C26.1605 73.7943 26.0715 73.714 26.0016 73.62C25.9318 73.5259 25.8824 73.4199 25.8563 73.308C25.8302 73.1962 25.828 73.0806 25.8497 72.9678C25.8714 72.8551 25.9166 72.7475 25.9827 72.6512C26.0489 72.5548 26.1347 72.4715 26.2352 72.4062C26.3358 72.3408 26.4491 72.2947 26.5687 72.2703C26.6884 72.2459 26.812 72.2438 26.9325 72.264H65.4727C65.7161 72.214 65.9708 72.2564 66.1807 72.3819C66.3906 72.5075 66.5387 72.7059 66.5922 72.9335C66.6458 73.1611 66.6004 73.3993 66.4662 73.5957C66.332 73.7921 66.1198 73.9305 65.8765 73.9806H65.7664H26.6939H26.6021ZM12.7093 69.6892C14.0149 69.7023 15.2757 70.1365 16.2788 70.9183C17.2819 71.7001 17.9658 72.7818 18.215 73.9806H7.20352C7.44628 72.7789 8.12835 71.6935 9.13285 70.9106C10.1374 70.1276 11.4017 69.6958 12.7093 69.6892ZM5.82708 77.4137H145.306V80.8468H5.82708V77.4137Z" fill="black"/>
<path d="M88.4194 90.6928V99.4624H131.26V90.6928H88.4194Z" fill="#FFE500"/>
<path d="M126.16 102.475C128.161 102.475 130.08 101.693 131.495 100.3C132.91 98.9068 133.705 97.0175 133.705 95.0475C133.705 93.0775 132.91 91.1882 131.495 89.7952C130.08 88.4022 128.161 87.6196 126.16 87.6196H92.2075C90.2064 87.6196 88.2873 88.4022 86.8723 89.7952C85.4574 91.1882 84.6625 93.0775 84.6625 95.0475C84.6625 97.0175 85.4574 98.9068 86.8723 100.3C88.2873 101.693 90.2064 102.475 92.2075 102.475H107.298V123.552L91.4341 130.497C90.9764 130.696 90.6179 131.067 90.4375 131.526C90.2571 131.986 90.2695 132.497 90.4721 132.948C90.6747 133.399 91.0509 133.752 91.5178 133.929C91.9848 134.107 92.5042 134.095 92.962 133.895L109.184 126.783L125.387 133.877C125.844 134.076 126.364 134.088 126.831 133.911C127.298 133.733 127.674 133.38 127.877 132.929C128.079 132.479 128.092 131.967 127.911 131.508C127.731 131.048 127.372 130.678 126.915 130.478L111.07 123.552V102.475H126.16ZM92.2075 98.7614C91.207 98.7614 90.2474 98.3701 89.5399 97.6736C88.8324 96.9771 88.435 96.0325 88.435 95.0475C88.435 94.0625 88.8324 93.1178 89.5399 92.4213C90.2474 91.7248 91.207 91.3336 92.2075 91.3336H126.16C127.161 91.3336 128.12 91.7248 128.828 92.4213C129.535 93.1178 129.933 94.0625 129.933 95.0475C129.933 96.0325 129.535 96.9771 128.828 97.6736C128.12 98.3701 127.161 98.7614 126.16 98.7614H92.2075Z" fill="black"/>
<path d="M22.1884 90.2592V99.0288H65.0287V90.2592H22.1884Z" fill="#FFE500"/>
<path d="M60.8803 102.042C62.8813 102.042 64.8004 101.259 66.2154 99.8662C67.6304 98.4732 68.4253 96.5839 68.4253 94.6139C68.4253 92.6439 67.6304 90.7546 66.2154 89.3616C64.8004 87.9686 62.8813 87.186 60.8803 87.186H26.9277C24.9266 87.186 23.0075 87.9686 21.5926 89.3616C20.1776 90.7546 19.3827 92.6439 19.3827 94.6139C19.3827 96.5839 20.1776 98.4732 21.5926 99.8662C23.0075 101.259 24.9266 102.042 26.9277 102.042H42.0177V123.118L26.1543 130.063C25.6966 130.263 25.3381 130.633 25.1577 131.093C24.9773 131.552 24.9897 132.064 25.1924 132.514C25.395 132.965 25.7711 133.318 26.238 133.496C26.705 133.673 27.2245 133.661 27.6822 133.462L43.904 126.349L60.1069 133.443C60.5646 133.642 61.0841 133.655 61.5511 133.477C62.018 133.299 62.3941 132.947 62.5968 132.496C62.7994 132.045 62.8118 131.534 62.6314 131.074C62.451 130.614 62.0925 130.244 61.6348 130.045L45.7902 123.118V102.042H60.8803ZM26.9277 98.3278C25.9272 98.3278 24.9676 97.9365 24.2601 97.24C23.5527 96.5435 23.1552 95.5989 23.1552 94.6139C23.1552 93.6289 23.5527 92.6842 24.2601 91.9877C24.9676 91.2912 25.9272 90.9 26.9277 90.9H60.8803C61.8808 90.9 62.8403 91.2912 63.5478 91.9877C64.2553 92.6842 64.6528 93.6289 64.6528 94.6139C64.6528 95.5989 64.2553 96.5435 63.5478 97.24C62.8403 97.9365 61.8808 98.3278 60.8803 98.3278H26.9277Z" fill="black"/>
<path d="M89.5131 8.9834H78.2488V33.2456H89.5131V8.9834Z" fill="#FFE500"/>
<path d="M101.674 9.76965L98.4388 11.969L111.646 31.4068L114.881 29.2074L101.674 9.76965Z" fill="#FFE500"/>
<path d="M139.493 33.029H135.393L137.429 24.5921C137.479 24.377 137.48 24.1533 137.432 23.9377C137.384 23.7221 137.288 23.5202 137.15 23.3471C136.948 23.1127 136.676 22.9486 136.374 22.8784L136.828 19.8463H138.029C138.417 19.8463 138.79 19.692 139.064 19.4173C139.339 19.1426 139.493 18.7701 139.493 18.3816C139.493 17.9931 139.339 17.6206 139.064 17.3459C138.79 17.0712 138.417 16.9169 138.029 16.9169H137.063C136.943 15.0193 136.103 13.2392 134.715 11.9404C133.327 10.6417 131.495 9.92254 129.594 9.93003H129.375L128.423 7.17631C128.366 6.98791 128.271 6.81295 128.145 6.66191C128.019 6.51087 127.863 6.38683 127.688 6.29723C127.513 6.20762 127.321 6.15427 127.125 6.14037C126.928 6.12648 126.731 6.15231 126.545 6.21634C126.359 6.28038 126.188 6.38128 126.041 6.51304C125.895 6.64479 125.777 6.80469 125.694 6.98317C125.611 7.16165 125.565 7.35506 125.558 7.55183C125.551 7.7486 125.584 7.9447 125.655 8.1284L126.504 10.5745C125.784 10.9114 125.121 11.3614 124.542 11.9074L122.975 10.3402C122.695 10.1002 122.335 9.97481 121.966 9.98904C121.598 10.0033 121.248 10.1561 120.987 10.417C120.727 10.6778 120.574 11.0275 120.56 11.3962C120.545 11.7648 120.671 12.1252 120.911 12.4054L122.814 14.3096C122.282 15.4638 122.046 16.7323 122.126 18.0008L122.829 22.8344C122.527 22.9046 122.255 23.0687 122.053 23.3031C121.916 23.4762 121.819 23.6782 121.771 23.8938C121.723 24.1094 121.724 24.3331 121.775 24.5482L123.781 33.029H114.233L117.25 30.788C117.546 30.5538 117.74 30.2144 117.792 29.8405C117.843 29.4666 117.749 29.0872 117.528 28.7813L102.884 7.36673C102.773 7.20415 102.63 7.06564 102.465 6.95948C102.299 6.85332 102.113 6.78169 101.919 6.74888C101.725 6.71606 101.526 6.72273 101.335 6.76849C101.143 6.81425 100.963 6.89815 100.805 7.01519L96.3092 10.3695C96.0692 10.5602 95.895 10.8215 95.8113 11.1165C95.7302 11.0897 95.6469 11.0701 95.5624 11.0579H91.1693V9.59314C91.1693 9.20467 91.015 8.8321 90.7404 8.55741C90.4658 8.28272 90.0933 8.1284 89.7049 8.1284H77.99C77.6016 8.1284 77.2292 8.28272 76.9545 8.55741C76.6799 8.8321 76.5256 9.20467 76.5256 9.59314V33.029H73.5969C73.2085 33.029 72.8361 33.1834 72.5614 33.4581C72.2868 33.7328 72.1325 34.1053 72.1325 34.4938C72.1325 34.8823 72.2868 35.2548 72.5614 35.5295C72.8361 35.8042 73.2085 35.9585 73.5969 35.9585H139.493C139.882 35.9585 140.254 35.8042 140.529 35.5295C140.803 35.2548 140.958 34.8823 140.958 34.4938C140.958 34.1053 140.803 33.7328 140.529 33.4581C140.254 33.1834 139.882 33.029 139.493 33.029ZM127.5 13.4015C127.68 13.6835 127.951 13.8954 128.268 14.002C128.585 14.1086 128.929 14.1035 129.243 13.9874C129.472 13.9027 129.677 13.7618 129.838 13.5776C129.999 13.3934 130.112 13.1717 130.165 12.9328C131.228 13.0355 132.22 13.5132 132.962 14.2803C133.632 15.0082 134.048 15.9331 134.148 16.9169H133.636C133.248 16.9169 132.875 17.0712 132.6 17.3459C132.326 17.6206 132.172 17.9931 132.172 18.3816C132.172 18.7701 132.326 19.1426 132.6 19.4173C132.875 19.692 133.248 19.8463 133.636 19.8463H133.87L133.446 22.7758H125.728L124.996 17.7225C124.98 17.3291 125.015 16.9353 125.099 16.5507C125.4 16.7175 125.75 16.7729 126.088 16.7073C126.425 16.6416 126.729 16.4591 126.946 16.1917C127.163 15.9243 127.278 15.5891 127.272 15.2449C127.267 14.9008 127.14 14.5696 126.914 14.3096L126.592 13.9874C126.87 13.7555 127.175 13.5587 127.5 13.4015ZM125.025 25.7053H134.163L132.391 33.029H126.783L125.025 25.7053ZM101.42 10.2816L114.423 29.3232L112.271 30.9198L99.2672 11.8781L101.42 10.2816ZM88.2406 33.029H85.3118V11.0579H88.2406V33.029ZM79.4544 11.0579H82.3831V33.029H79.4544V11.0579ZM91.1693 33.029V13.9874H94.098V33.029H91.1693ZM97.0268 13.8702L110.206 33.029H97.0268V13.8702Z" fill="black"/>
</svg>
