<svg width="544" height="452" viewBox="0 0 544 452" fill="none" xmlns="http://www.w3.org/2000/svg">
<path d="M19.8999 270.91L182.25 68.67L523.34 157.79L403.42 325.3L19.8999 270.91Z" fill="#FFE500"/>
<path d="M92.6499 267C92.6499 267.796 92.966 268.559 93.5286 269.121C94.0912 269.684 94.8543 270 95.6499 270H98.8999C100.826 269.997 102.673 269.23 104.034 267.867C105.395 266.504 106.16 264.656 106.16 262.73V243H100.42V259.39C100.42 262.89 98.3299 264.07 95.7399 264.07H95.6499C94.8662 264.07 94.1136 264.376 93.5529 264.924C92.9923 265.471 92.6682 266.217 92.6499 267Z" fill="white" stroke="black" stroke-linecap="round" stroke-linejoin="round"/>
<path d="M106 243.15L100.55 242.35C100.93 240.11 101.33 237.69 101.76 235.12C101.86 234.5 101.97 233.88 102.08 233.24C102.19 232.6 102.19 232 102.24 231.36C102.386 229.92 102.606 228.46 102.9 226.98C104.03 220.98 106.53 214.98 109.24 209.13L110.24 206.92L110.74 205.81L110.99 205.25L111.17 204.87L111.36 204.54L113.83 200.2C115.53 197.33 117.26 194.46 119.01 191.62C122.5 185.93 126.01 180.31 129.01 174.76C131.898 169.573 134.357 164.159 136.36 158.57C137.976 153.971 139.027 149.193 139.49 144.34C139.665 142.462 139.722 140.575 139.66 138.69C139.66 137.86 139.6 137.08 139.57 136.37C139.57 136.01 139.57 135.67 139.57 135.37C139.57 135.07 139.48 134.74 139.44 134.45C139.11 132.11 138.93 130.81 138.93 130.81L139.68 134.42C139.74 134.71 139.8 135.01 139.86 135.34C139.92 135.67 139.93 136 139.97 136.34C140.043 137.06 140.123 137.84 140.21 138.68C140.393 140.581 140.45 142.492 140.38 144.4C140.2 149.373 139.401 154.305 138 159.08C136.293 164.897 134.091 170.558 131.42 176C128.66 181.8 125.42 187.65 122.23 193.5C120.63 196.41 119.05 199.34 117.5 202.25C116.74 203.71 116 205.16 115.25 206.61L115.15 206.82L115.08 206.99L114.85 207.57L114.38 208.71C114.08 209.46 113.77 210.21 113.46 210.96C111 216.91 108.91 222.55 108.05 227.96C107.82 229.29 107.65 230.61 107.55 231.9L107.48 232.9V233.38V233.63C107.491 233.783 107.491 233.937 107.48 234.09C107.38 234.77 107.27 235.44 107.17 236.09C106.68 238.57 106.31 241 106 243.15Z" fill="#FFE500" stroke="black" stroke-linecap="round" stroke-linejoin="round"/>
<path d="M105.92 243L100.42 242.68C100.54 240.68 100.74 238.43 101.05 236.09C101.13 235.5 101.21 234.91 101.3 234.31L101.45 233.36C101.56 232.74 101.65 232.56 101.72 232.24C102.06 231.04 102.42 229.81 102.82 228.56C104.54 223.255 106.68 218.095 109.22 213.13C112.081 207.789 115.635 202.85 119.79 198.44C123.85 193.99 128.22 189.95 132.4 186.14C140.82 178.59 148.4 171.7 153.2 165.97C154.41 164.56 155.51 163.28 156.38 162.08C157.25 160.88 158.09 159.9 158.64 159.01C159.79 157.26 160.44 156.29 160.44 156.29L158.84 159.13C158.35 160.07 157.6 161.13 156.79 162.37C155.98 163.61 154.99 165 153.87 166.51C149.46 172.6 142.23 180.1 134.31 188.12C130.38 192.12 126.31 196.4 122.64 200.9C118.972 205.236 115.871 210.021 113.41 215.14C111.203 220.001 109.348 225.013 107.86 230.14C107.51 231.33 107.2 232.5 106.86 233.64C106.8 233.91 106.7 234.31 106.72 234.28L106.61 235.1L106.4 236.79C106.2 238.94 106 241 105.92 243Z" fill="#FFE500" stroke="black" stroke-linecap="round" stroke-linejoin="round"/>
<path d="M105.94 242.92L100.45 242.5C100.67 240.08 100.9 237.5 101.15 234.69C101.3 233.27 101.37 231.92 101.6 230.35C101.83 228.78 102.17 227.35 102.52 225.82C103.2 222.656 104.065 219.534 105.11 216.47C105.63 214.89 106.11 213.28 106.69 211.65L107.5 209.16C107.604 208.806 107.759 208.469 107.96 208.16L108.28 207.62L108.93 206.53C116.209 194.75 121.474 181.84 124.51 168.33C126.885 157.047 127.415 145.453 126.08 134C125.95 132.89 125.85 131.83 125.72 130.83L125.27 128.01C125 126.25 124.76 124.73 124.48 123.51L123.69 119.68L124.69 123.45C125.04 124.67 125.37 126.17 125.75 127.92C125.94 128.79 126.15 129.73 126.36 130.72C126.57 131.71 126.72 132.77 126.91 133.88C128.944 145.45 129.039 157.279 127.19 168.88C124.788 182.937 119.967 196.471 112.94 208.88L112.32 210.03L112.01 210.6C111.974 210.662 111.951 210.729 111.94 210.8C111.71 211.59 111.48 212.38 111.26 213.16C110.79 214.75 110.34 216.32 109.89 217.87C108.98 220.827 108.232 223.831 107.65 226.87C107.36 228.32 107.1 229.8 106.89 231.14C106.68 232.48 106.66 233.93 106.54 235.26C106.34 238 106.13 240.56 105.94 242.92Z" fill="#FFE500" stroke="black" stroke-linecap="round" stroke-linejoin="round"/>
<path d="M105.93 242.82L100.43 242.51C100.6 239.98 100.77 237.23 100.96 234.3C101.014 233.567 101.064 232.827 101.11 232.08C101.11 231.7 101.11 231.32 101.18 230.94L101.24 230.18C101.283 229.913 101.343 229.649 101.42 229.39L102.59 224.76L105.08 215.02C105.11 214.926 105.11 214.824 105.08 214.73L104.88 213.41C104.74 212.52 104.61 211.63 104.47 210.73C104.2 208.93 103.87 207.12 103.75 205.27C103.63 203.42 103.41 201.56 103.23 199.68C103.05 197.8 103.08 195.91 103.01 194.01C102.94 192.11 102.95 190.2 103.01 188.29C103.07 186.38 103.01 184.47 103.21 182.57C103.6 174.95 104.62 167.45 105.68 160.33C106.74 153.21 107.76 146.44 108.38 140.23C108.61 137.13 108.9 134.17 108.93 131.39C108.93 130.01 109.05 128.66 109.01 127.39C108.97 126.12 108.95 124.86 108.92 123.68C108.92 121.3 108.62 119.17 108.49 117.29C108.4 116.29 108.32 115.47 108.24 114.66C108.16 113.85 108 113.13 107.9 112.47C107.49 109.83 107.26 108.37 107.26 108.37L108.13 112.43C108.27 113.08 108.43 113.81 108.6 114.61L108.99 117.22C109.23 119.1 109.65 121.22 109.78 123.62C109.87 124.81 109.97 126.06 110.07 127.36C110.17 128.66 110.16 130.02 110.2 131.42C110.33 134.23 110.2 137.22 110.11 140.37C109.81 146.67 109.11 153.54 108.42 160.69C107.73 167.84 107.03 175.27 106.97 182.69C106.9 184.55 106.97 186.41 106.97 188.27C106.97 190.13 107.04 191.98 107.21 193.81C107.38 195.64 107.46 197.48 107.64 199.3C107.82 201.12 108.11 202.9 108.34 204.68C108.57 206.46 108.9 208.2 109.21 209.93C109.37 210.8 109.53 211.65 109.69 212.51L109.93 213.78L110.13 214.93C110.106 215.313 110.039 215.692 109.93 216.06C109.15 219.473 108.4 222.77 107.68 225.95C107.31 227.52 106.96 229.05 106.61 230.55C106.541 230.784 106.511 231.027 106.52 231.27C106.52 231.65 106.52 232.03 106.52 232.41C106.48 233.163 106.44 233.903 106.4 234.63C106.23 237.55 106.07 240.29 105.93 242.82Z" fill="#FFE500" stroke="black" stroke-linecap="round" stroke-linejoin="round"/>
<path d="M105.89 242.62H100.39C100.39 239.93 100.39 237.02 100.39 233.92V233.5C100.365 233.328 100.365 233.152 100.39 232.98L100.52 232.25C100.59 231.86 100.66 231.48 100.74 231.08C100.88 230.3 101.02 229.51 101.17 228.7C101.47 227.1 101.77 225.45 102.08 223.76C102.39 222.07 102.72 220.36 103.08 218.61C103.246 217.594 103.487 216.591 103.8 215.61C104.194 214.538 104.739 213.527 105.42 212.61C105.919 211.98 106.368 211.311 106.76 210.61C107.076 209.961 107.299 209.271 107.42 208.56L107.49 208.21C107.504 208.109 107.524 208.009 107.55 207.91L107.63 207.63L107.81 206.97L108.17 205.64C108.44 204.76 108.63 203.85 108.82 202.94C110.414 195.418 110.627 187.669 109.45 180.07C108.255 172.401 106.289 164.873 103.58 157.6C101.05 150.46 98.2401 143.73 95.7601 137.6C93.2801 131.47 91.1101 125.81 89.4801 121.01C87.8501 116.21 86.7501 112.26 86.0901 109.5C85.7401 108.13 85.5001 107.05 85.3601 106.32C85.2201 105.59 85.1201 105.2 85.1201 105.2C85.1201 105.2 85.2201 105.58 85.4201 106.31C85.6201 107.04 85.8901 108.09 86.3101 109.44C87.1201 112.15 88.4201 116.04 90.3101 120.72C92.2001 125.4 94.6001 130.87 97.3801 136.91C100.16 142.95 103.28 149.55 106.18 156.66C109.285 164.015 111.631 171.668 113.18 179.5C113.926 183.539 114.337 187.633 114.41 191.74C114.466 195.809 114.131 199.875 113.41 203.88C113.23 204.88 113.06 205.88 112.8 206.82L112.46 208.26L112.28 208.98V209.07C112.28 209.13 112.28 209.07 112.28 209.07V209.42C112.101 210.574 111.764 211.698 111.28 212.76C110.798 213.707 110.239 214.614 109.61 215.47C108.81 216.66 108.337 218.039 108.24 219.47C107.947 221.243 107.667 222.98 107.4 224.68C107.12 226.38 106.84 228.05 106.58 229.68C106.44 230.5 106.31 231.3 106.18 232.09C106.11 232.48 106.05 232.87 105.98 233.26L105.91 233.7V233.76V233.91C105.85 237 105.87 239.92 105.89 242.62Z" fill="#FFE500" stroke="black" stroke-linecap="round" stroke-linejoin="round"/>
<path d="M105.89 242.68H100.39C100.39 240.29 100.3 237.68 100.11 234.97C99.9199 232.26 99.6599 229.23 99.4099 226.15C98.8799 219.97 98.2099 213.26 97.4099 206.31C95.8399 192.4 93.7299 177.53 91.0999 163.99C88.4699 150.45 85.2699 138.27 82.0999 129.71C80.8663 126.299 79.4407 122.96 77.8299 119.71C77.2799 118.55 76.7499 117.71 76.4299 117.11L75.9199 116.21L76.4799 117.08C76.8399 117.65 77.4199 118.47 78.0299 119.6C79.8415 122.749 81.4676 126.001 82.8999 129.34C86.5899 137.77 90.4999 149.86 93.8099 163.34C97.1199 176.82 99.9399 191.7 102.04 205.64C103.04 212.64 103.97 219.34 104.66 225.57C104.82 227.13 104.98 228.66 105.14 230.15C105.3 231.64 105.42 233.09 105.55 234.5C105.78 237.47 105.88 240.18 105.89 242.68Z" fill="#FFE500" stroke="black" stroke-linecap="round" stroke-linejoin="round"/>
<g style="mix-blend-mode:multiply">
<g style="mix-blend-mode:multiply">
<path d="M104.45 253.6H103.62" stroke="#020000" stroke-linecap="round" stroke-linejoin="round"/>
</g>
<g style="mix-blend-mode:multiply">
<path d="M102.56 249.82H100.9" stroke="#FFE500" stroke-linecap="round" stroke-linejoin="round"/>
</g>
<g style="mix-blend-mode:multiply">
<path d="M105.69 256.49H102.56" stroke="#FFE500" stroke-linecap="round" stroke-linejoin="round"/>
</g>
<g style="mix-blend-mode:multiply">
<path d="M105 249.82H105.69" stroke="#FFE500" stroke-linecap="round" stroke-linejoin="round"/>
</g>
<g style="mix-blend-mode:multiply">
<path d="M104.45 253.6H103.62" stroke="#FFE500" stroke-linecap="round" stroke-linejoin="round"/>
</g>
<g style="mix-blend-mode:multiply">
<path d="M102.56 249.82H100.9" stroke="#FFE500" stroke-linecap="round" stroke-linejoin="round"/>
</g>
<g style="mix-blend-mode:multiply">
<path d="M105.69 256.49H102.56" stroke="#FFE500" stroke-linecap="round" stroke-linejoin="round"/>
</g>
<g style="mix-blend-mode:multiply">
<path d="M105 249.82H105.69" stroke="#FFE500" stroke-linecap="round" stroke-linejoin="round"/>
</g>
</g>
<path d="M103.4 264.09H94.1699V340.37H103.4V264.09Z" fill="white" stroke="black" stroke-linecap="round" stroke-linejoin="round"/>
<g style="mix-blend-mode:multiply">
<path d="M100.44 283.16H103.13" stroke="#FFE500" stroke-linecap="round" stroke-linejoin="round"/>
</g>
<g style="mix-blend-mode:multiply">
<path d="M99.9302 279.78H100.96" stroke="#020000" stroke-linecap="round" stroke-linejoin="round"/>
</g>
<g style="mix-blend-mode:multiply">
<path d="M94.7402 276.34H97.4302" stroke="#020000" stroke-linecap="round" stroke-linejoin="round"/>
</g>
<g style="mix-blend-mode:multiply">
<path d="M98.48 272.66H101.17" stroke="#FFE500" stroke-linecap="round" stroke-linejoin="round"/>
</g>
<g style="mix-blend-mode:multiply">
<path d="M97.4302 287.92H94.7402" stroke="#FFE500" stroke-linecap="round" stroke-linejoin="round"/>
</g>
<g style="mix-blend-mode:multiply">
<path d="M100.44 296.78H94.5498" stroke="#020000" stroke-linecap="round" stroke-linejoin="round"/>
</g>
<g style="mix-blend-mode:multiply">
<path d="M103.13 300.39H100.44" stroke="#FFE500" stroke-linecap="round" stroke-linejoin="round"/>
</g>
<g style="mix-blend-mode:multiply">
<path d="M99.4 304.61H96.71" stroke="#FFE500" stroke-linecap="round" stroke-linejoin="round"/>
</g>
<path d="M131.57 320.46H67.3398L79.8298 383.03H119.09L131.57 320.46Z" fill="#FFE500" stroke="#020000" stroke-linecap="round" stroke-linejoin="round"/>
<path d="M96.8598 267C96.8598 267.796 96.5437 268.559 95.9811 269.121C95.4185 269.684 94.6555 270 93.8598 270H93.5198C90.941 269.997 88.4687 268.971 86.6461 267.147C84.8236 265.322 83.7998 262.849 83.7998 260.27V243H89.5298V259.39C89.5298 260.005 89.6512 260.615 89.887 261.183C90.1228 261.752 90.4684 262.268 90.9041 262.703C91.3397 263.137 91.8568 263.482 92.4258 263.717C92.9947 263.951 93.6044 264.071 94.2198 264.07H96.7898" fill="white"/>
<path d="M96.8598 267C96.8598 267.796 96.5437 268.559 95.9811 269.121C95.4185 269.684 94.6555 270 93.8598 270H93.5198C90.941 269.997 88.4687 268.971 86.6461 267.147C84.8236 265.322 83.7998 262.849 83.7998 260.27V243H89.5298V259.39C89.5298 260.005 89.6512 260.615 89.887 261.183C90.1228 261.752 90.4684 262.268 90.9041 262.703C91.3397 263.137 91.8568 263.482 92.4258 263.717C92.9947 263.951 93.6044 264.071 94.2198 264.07H96.7898" stroke="black" stroke-linecap="round" stroke-linejoin="round"/>
<path d="M89.4402 242.73H83.9402C83.9402 241.62 83.9402 240.48 83.8602 239.29V237.47C83.8602 236.85 83.7702 236.23 83.7302 235.6C83.6502 234.33 83.5702 233.02 83.4802 231.68C83.3902 230.34 83.1902 228.98 83.0302 227.58C82.3102 221.577 81.1843 215.63 79.6602 209.78C76.2794 197.168 71.2351 185.061 64.6602 173.78C59.1818 164.333 52.82 155.426 45.6602 147.18C42.6942 143.706 39.536 140.401 36.2002 137.28C39.7424 140.187 43.1115 143.299 46.2902 146.6C54.0209 154.476 60.9577 163.095 67.0002 172.33C74.3617 183.543 80.1175 195.731 84.1002 208.54C85.9264 214.554 87.3068 220.694 88.2302 226.91C88.4202 228.37 88.6102 229.8 88.7902 231.19C88.9702 232.58 89.0202 233.95 89.1302 235.27C89.1902 235.94 89.2402 236.59 89.2902 237.27C89.3402 237.95 89.2902 238.55 89.3502 239.17C89.3802 240.37 89.4102 241.58 89.4402 242.73Z" fill="#FFE500" stroke="black" stroke-linecap="round" stroke-linejoin="round"/>
<path d="M89.4401 242.79H83.9401C83.9473 232.879 82.2561 223.04 78.9401 213.7C76.9105 208.246 74.2881 203.031 71.1201 198.15C67.9425 193.271 64.2806 188.724 60.1901 184.58C53.2838 177.629 45.4658 171.648 36.9501 166.8C33.3934 164.734 29.6979 162.916 25.8901 161.36C29.8171 162.644 33.6469 164.208 37.3501 166.04C46.3311 170.375 54.659 175.95 62.0901 182.6C66.5863 186.647 70.6452 191.155 74.2001 196.05C77.8041 201.02 80.824 206.389 83.2001 212.05C87.2328 221.802 89.3513 232.238 89.4401 242.79Z" fill="#FFE500" stroke="black" stroke-linecap="round" stroke-linejoin="round"/>
<path d="M89.4501 242.75L83.9401 242.66C83.9401 240.31 83.9401 237.75 83.9401 235.04C83.9401 233.68 83.9401 232.28 83.9401 230.85C83.9743 229.379 83.9342 227.907 83.8201 226.44C83.6401 223.44 83.4501 220.31 83.2601 217.09C83.2601 216.28 83.1701 215.47 83.1201 214.65C83.0701 213.83 82.9301 213.02 82.8301 212.2C82.6301 210.55 82.4301 208.89 82.2301 207.2C80.6126 193.461 77.4355 179.95 72.7601 166.93C68.8522 156.091 63.6263 145.774 57.2001 136.21C55.9401 134.38 54.7101 132.78 53.6601 131.35C52.6101 129.92 51.6001 128.76 50.7601 127.84C49.9201 126.92 49.2901 126.16 48.8201 125.7L48.1201 124.97L48.8701 125.66C49.3601 126.09 50.0401 126.79 50.9301 127.66C51.8201 128.53 52.8301 129.66 54.0501 131.01C55.2701 132.36 56.5201 133.91 57.8901 135.69C64.9492 144.986 70.8056 155.136 75.3201 165.9C80.7761 178.928 84.6407 192.566 86.8301 206.52C87.1001 208.23 87.3601 209.92 87.6301 211.6C87.7601 212.44 87.8801 213.27 88.0101 214.1C88.1401 214.93 88.1601 215.77 88.2301 216.59C88.5301 219.88 88.8101 223.07 89.0801 226.14C89.2501 227.67 89.2901 229.14 89.3101 230.64C89.3301 232.14 89.3701 233.54 89.4001 234.93C89.3701 237.73 89.4101 240.34 89.4501 242.75Z" fill="#FFE500" stroke="black" stroke-linecap="round" stroke-linejoin="round"/>
<path d="M89.47 242.72L83.97 242.59C84.22 232.25 84.55 218.47 84.91 203.59C85.27 188.71 85.37 172.79 85.14 158.15C84.91 143.51 84.3 130.15 83.28 120.52C82.81 115.7 82.2 111.82 81.71 109.14C81.4475 107.757 81.1138 106.389 80.71 105.04C81.1919 106.351 81.6057 107.686 81.95 109.04C82.59 111.69 83.41 115.55 84.14 120.36C85.68 129.97 86.97 143.36 87.9 157.99C88.83 172.62 89.29 188.64 89.56 203.55C89.62 211 89.72 218.18 89.69 224.8C89.66 231.42 89.56 237.53 89.47 242.72Z" fill="#FFE500" stroke="black" stroke-linecap="round" stroke-linejoin="round"/>
<path d="M89.4702 242.69H83.9702C84.032 236.833 84.4561 230.985 85.2402 225.18C86.2252 218.3 87.6346 211.487 89.4602 204.78C93.4458 190.503 98.9122 176.681 105.77 163.54C111.369 152.688 117.718 142.239 124.77 132.27C130.23 124.6 134.04 120.15 134.04 120.15C134.04 120.15 130.49 124.81 125.49 132.75C119.015 143.018 113.235 153.709 108.19 164.75C102.128 177.967 97.375 191.746 94.0002 205.89C92.4644 212.456 91.2992 219.103 90.5102 225.8C89.7802 232.05 89.5202 237.78 89.4702 242.69Z" fill="#FFE500" stroke="black" stroke-linecap="round" stroke-linejoin="round"/>
<g style="mix-blend-mode:multiply">
<path d="M86.0498 260.07H86.8798" stroke="#FFE500" stroke-linecap="round" stroke-linejoin="round"/>
</g>
<g style="mix-blend-mode:multiply">
<path d="M87.52 255.99H89.18" stroke="#020000" stroke-linecap="round" stroke-linejoin="round"/>
</g>
<g style="mix-blend-mode:multiply">
<path d="M84.3901 249.82H86.0501" stroke="#FFE500" stroke-linecap="round" stroke-linejoin="round"/>
</g>
<g style="mix-blend-mode:multiply">
<path d="M86.6899 246.36H88.3499" stroke="#FFE500" stroke-linecap="round" stroke-linejoin="round"/>
</g>
<path d="M99.8198 268.59C100.088 269.019 100.461 269.374 100.903 269.621C101.346 269.867 101.843 269.998 102.35 270H105.27C107.794 269.997 110.214 268.994 111.999 267.209C113.783 265.424 114.787 263.004 114.79 260.48V243H109.05V259.39C109.05 260.005 108.928 260.615 108.693 261.183C108.457 261.752 108.111 262.268 107.676 262.703C107.24 263.137 106.723 263.482 106.154 263.717C105.585 263.951 104.975 264.071 104.36 264.07H102.16" fill="white"/>
<path d="M99.8198 268.59C100.088 269.019 100.461 269.374 100.903 269.621C101.346 269.867 101.843 269.998 102.35 270H105.27C107.794 269.997 110.214 268.994 111.999 267.209C113.783 265.424 114.787 263.004 114.79 260.48V243H109.05V259.39C109.05 260.005 108.928 260.615 108.693 261.183C108.457 261.752 108.111 262.268 107.676 262.703C107.24 263.137 106.723 263.482 106.154 263.717C105.585 263.951 104.975 264.071 104.36 264.07H102.16" stroke="black" stroke-linecap="round" stroke-linejoin="round"/>
<path d="M114.63 243.16L109.18 242.35C110.969 231.09 113.795 220.02 117.62 209.28C122.144 196.836 127.896 184.874 134.79 173.57C140.452 164.227 146.902 155.384 154.07 147.14C157.031 143.696 160.172 140.411 163.48 137.3C160.392 140.612 157.475 144.08 154.74 147.69C148.151 156.28 142.275 165.393 137.17 174.94C131.021 186.387 125.943 198.378 122 210.76C118.1 222.86 116.11 234.48 114.63 243.16Z" fill="#FFE500" stroke="black" stroke-linecap="round" stroke-linejoin="round"/>
<path d="M114.58 243L109.09 242.66C109.421 237.925 110.351 233.251 111.86 228.75C113.621 223.485 115.906 218.409 118.68 213.6C124.42 203.52 132.22 193.92 139.98 185.8C146.649 178.863 153.739 172.344 161.21 166.28C164.08 163.95 166.46 162.12 168.12 160.87L170.03 159.44C170.115 159.363 170.209 159.296 170.31 159.24C170.252 159.28 170.192 159.316 170.13 159.35L169.95 159.47L170.12 159.34C170.18 159.34 170.24 159.22 170.34 159.22C170.263 159.322 170.172 159.413 170.07 159.49L168.27 161.06C166.71 162.42 164.47 164.41 161.78 166.93C154.79 173.44 148.186 180.352 142 187.63C134.85 196.1 127.77 205.92 122.74 215.8C120.338 220.442 118.369 225.296 116.86 230.3C115.63 234.435 114.865 238.695 114.58 243Z" fill="#FFE500" stroke="black" stroke-linecap="round" stroke-linejoin="round"/>
<path d="M114.6 242.92L109.11 242.51C109.35 240.14 109.61 237.56 109.89 234.83C110.04 233.46 110.19 232.06 110.34 230.61C110.49 229.16 110.64 227.69 110.91 226.19C111.91 220.19 112.8 213.64 114.37 206.95C117.257 193.274 121.374 179.886 126.67 166.95C131.035 156.247 136.452 146.003 142.84 136.37C144.04 134.5 145.3 132.91 146.31 131.47C147.32 130.03 148.31 128.86 149.12 127.9C150.71 125.99 151.67 124.99 151.67 124.99C151.67 124.99 150.77 126.05 149.3 128.05C148.57 129.05 147.72 130.31 146.72 131.76C145.72 133.21 144.65 134.9 143.57 136.83C137.806 146.737 133.007 157.175 129.24 168C124.698 180.983 121.249 194.323 118.93 207.88C117.63 214.5 116.93 220.96 116.13 226.88C115.91 228.36 115.79 229.82 115.67 231.24C115.55 232.66 115.43 234.05 115.31 235.39C115.06 238.06 114.82 240.59 114.6 242.92Z" fill="#FFE500" stroke="black" stroke-linecap="round" stroke-linejoin="round"/>
<path d="M114.59 242.83L109.09 242.52C110.777 215.25 114.362 188.131 119.82 161.36C122.7 147.45 126 134.92 128.74 125.94C131.48 116.96 133.62 111.52 133.62 111.52C133.62 111.52 131.77 117.06 129.57 126.17C127.37 135.28 124.72 147.89 122.57 161.85C118 189.77 115.64 222.94 114.59 242.83Z" fill="#FFE500" stroke="black" stroke-linecap="round" stroke-linejoin="round"/>
<path d="M114.55 242.66H109C109 222.33 109.09 188.43 108.69 159.6C108.29 130.77 107.69 107.03 107.69 107.03C107.69 107.03 109.69 130.7 111.42 159.5C113.15 188.3 114.57 222.26 114.55 242.66Z" fill="#FFE500" stroke="black" stroke-linecap="round" stroke-linejoin="round"/>
<path d="M114.53 242.71H109.03C108.92 240.47 108.95 238.03 108.75 235.46C108.55 232.89 108.35 230.17 107.75 227.38L107.39 225.26C107.287 224.532 107.14 223.811 106.95 223.1L105.88 218.72C104.97 215.79 104.07 212.72 102.82 209.77C100.31 203.566 97.4554 197.506 94.2701 191.62C91.0602 185.62 87.8701 179.62 84.8102 173.81C78.7402 162.24 73.5902 151.48 70.1202 143.56C68.3302 139.63 67.0502 136.37 66.1202 134.14L64.6602 130.67C64.6602 130.67 65.2502 131.88 66.3302 134.05C67.4102 136.22 68.9102 139.38 70.9302 143.19C74.8602 150.87 80.5902 161.28 87.2502 172.47C90.5902 178.07 94.0801 183.93 97.5901 189.8C101.138 195.67 104.33 201.748 107.15 208C108.495 211.037 109.683 214.141 110.71 217.3C111.15 218.87 111.58 220.41 112 221.93C112.219 222.679 112.396 223.441 112.53 224.21C112.68 224.97 112.83 225.72 112.97 226.47C113.522 229.304 113.926 232.164 114.18 235.04C114.43 237.79 114.42 240.35 114.53 242.71Z" fill="#FFE500" stroke="black" stroke-linecap="round" stroke-linejoin="round"/>
<g style="mix-blend-mode:multiply">
<path d="M112.25 260.07H111.42" stroke="#FFE500" stroke-linecap="round" stroke-linejoin="round"/>
</g>
<g style="mix-blend-mode:multiply">
<path d="M110.78 255.99H109.12" stroke="#020000" stroke-linecap="round" stroke-linejoin="round"/>
</g>
<g style="mix-blend-mode:multiply">
<path d="M113.91 250.91H112.25" stroke="#FFE500" stroke-linecap="round" stroke-linejoin="round"/>
</g>
<g style="mix-blend-mode:multiply">
<path d="M112.89 247.74H109.95" stroke="#020000" stroke-linecap="round" stroke-linejoin="round"/>
</g>
<path d="M102.72 264.09H95.7402" stroke="black" stroke-linecap="round" stroke-linejoin="round"/>
<path d="M135.68 309.71H63.23V325.22H135.68V309.71Z" fill="#FFE500" stroke="#020000" stroke-linecap="round" stroke-linejoin="round"/>
<path d="M200.76 383.03H115.22C113.459 383.03 111.77 382.33 110.525 381.085C109.28 379.84 108.58 378.151 108.58 376.39L108.58 282.08C108.585 278.654 109.95 275.371 112.374 272.95C114.798 270.53 118.084 269.17 121.51 269.17H194.51C197.939 269.17 201.228 270.532 203.653 272.957C206.078 275.382 207.44 278.671 207.44 282.1V376.39C207.44 377.265 207.267 378.132 206.931 378.94C206.595 379.749 206.102 380.482 205.481 381.099C204.86 381.717 204.123 382.205 203.313 382.536C202.503 382.867 201.635 383.035 200.76 383.03Z" fill="#FFE500" stroke="black" stroke-linecap="round" stroke-linejoin="round"/>
<path d="M121.51 269.14H129.27C132.699 269.14 135.988 270.502 138.413 272.927C140.838 275.352 142.2 278.641 142.2 282.07V376.38C142.2 378.141 141.501 379.83 140.255 381.075C139.01 382.32 137.321 383.02 135.56 383.02H115.22C113.459 383.02 111.77 382.32 110.525 381.075C109.28 379.83 108.58 378.141 108.58 376.38V282.07C108.58 278.641 109.942 275.352 112.367 272.927C114.792 270.502 118.081 269.14 121.51 269.14Z" fill="white" stroke="black" stroke-linecap="round" stroke-linejoin="round"/>
<path d="M413.4 338.12H162.11V383.03H413.4V338.12Z" fill="#FFE500" stroke="black" stroke-linecap="round" stroke-linejoin="round"/>
<path d="M453.2 202H211.93C208.02 202.002 204.244 203.421 201.302 205.996C198.359 208.57 196.451 212.125 195.93 216L180.45 328.34H454.32L469.19 220.34C469.504 218.056 469.326 215.731 468.666 213.522C468.007 211.313 466.881 209.271 465.366 207.533C463.851 205.796 461.982 204.403 459.883 203.448C457.784 202.494 455.506 202 453.2 202Z" fill="white" stroke="black" stroke-linecap="round" stroke-linejoin="round"/>
<path d="M453.2 202C449.29 202.002 445.514 203.421 442.572 205.996C439.629 208.57 437.721 212.125 437.2 216L421.72 328.34H454.32L469.19 220.34C469.504 218.056 469.326 215.731 468.666 213.522C468.007 211.313 466.881 209.271 465.366 207.533C463.851 205.796 461.982 204.403 459.883 203.448C457.784 202.494 455.506 202 453.2 202Z" fill="#FFE500" stroke="black" stroke-linecap="round" stroke-linejoin="round"/>
<path d="M409.39 312.34H159.17C156.955 312.34 155.16 314.135 155.16 316.35V334.11C155.16 336.325 156.955 338.12 159.17 338.12H409.39C411.605 338.12 413.4 336.325 413.4 334.11V316.35C413.4 314.135 411.605 312.34 409.39 312.34Z" fill="white" stroke="black" stroke-linecap="round" stroke-linejoin="round"/>
<path d="M377.2 278.84C377.2 278.84 385.58 312.34 356.59 312.34H270.45L276.69 344.53H252.92C252.92 344.53 240.67 302.11 241.92 295.15C245.11 277.21 263.28 278.84 291.36 278.84H377.2Z" fill="#FFE500" stroke="#020000" stroke-linecap="round" stroke-linejoin="round"/>
<path d="M316.43 278.8V283.53C316.43 284.614 316.216 285.688 315.801 286.689C315.386 287.691 314.777 288.601 314.01 289.367C313.243 290.133 312.332 290.741 311.33 291.155C310.328 291.569 309.254 291.781 308.17 291.78H261.36C255.29 291.78 250.93 296.78 252.85 302.53L267.62 346.77" stroke="#020000" stroke-linecap="round" stroke-linejoin="round"/>
<path d="M260.84 351.42H277.55L282.93 366.88H266.21L260.84 351.42Z" fill="white" stroke="#020000" stroke-linecap="round" stroke-linejoin="round"/>
<path d="M282.93 366.88H266.21L262.34 355.74H279.06L282.93 366.88Z" fill="white" stroke="black" stroke-linecap="round" stroke-linejoin="round"/>
<path d="M263.13 358.03H279.85" stroke="black" stroke-linecap="round" stroke-linejoin="round"/>
<path d="M251.46 344.38L280.27 344.4L280.83 351.46L252.02 351.44L251.46 344.38Z" fill="#FFE500" stroke="black" stroke-linecap="round" stroke-linejoin="round"/>
<g style="mix-blend-mode:multiply">
<path d="M267 351.45L266.46 344.39" stroke="#020000" stroke-linecap="round" stroke-linejoin="round"/>
</g>
<path d="M268.47 302.32L270.42 312.34" stroke="#020000" stroke-linecap="round" stroke-linejoin="round"/>
<path d="M272.82 304.67L270.42 312.34" stroke="#020000" stroke-linecap="round" stroke-linejoin="round"/>
<path d="M285.8 383H235.54C234.818 383.002 234.108 382.821 233.476 382.472C232.845 382.124 232.312 381.62 231.93 381.008C231.547 380.396 231.327 379.697 231.291 378.976C231.254 378.256 231.402 377.538 231.72 376.89L231.87 376.56H286.16L287.76 379.85C287.922 380.183 287.998 380.552 287.979 380.923C287.959 381.293 287.847 381.652 287.651 381.967C287.455 382.282 287.182 382.542 286.859 382.722C286.535 382.903 286.171 382.999 285.8 383Z" fill="white" stroke="black" stroke-linecap="round" stroke-linejoin="round"/>
<path d="M286.16 376.59H231.87C232.295 374.123 233.363 371.813 234.966 369.89C236.569 367.968 238.65 366.502 241 365.64L262 360.88C264.3 360.575 266.639 360.797 268.84 361.53C271.73 362.53 274.69 365.41 277.68 365.41C284.68 365.41 280.18 358.84 280.18 358.84C284.59 358.84 284.44 361.07 284.44 361.07L286.16 376.59Z" fill="#020000" stroke="black" stroke-linecap="round" stroke-linejoin="round"/>
<path d="M377.2 278.84C377.2 278.84 385.58 312.34 356.59 312.34H307.64L313.88 344.53H292.33C292.33 344.53 277.86 302.11 279.1 295.15C282.3 277.21 300.46 278.84 328.54 278.84H377.2Z" fill="#FFE500" stroke="#020000" stroke-linecap="round" stroke-linejoin="round"/>
<path d="M353.61 278.8V283.53C353.61 285.718 352.741 287.816 351.194 289.364C349.647 290.911 347.548 291.78 345.36 291.78H298.55C292.48 291.78 288.1 296.78 290.04 302.53L304.92 346.73" stroke="#020000" stroke-linecap="round" stroke-linejoin="round"/>
<path d="M298.02 351.42H314.74L320.11 366.88H303.4L298.02 351.42Z" fill="white" stroke="#020000" stroke-linecap="round" stroke-linejoin="round"/>
<path d="M289.88 344.4L316.13 344.42L316.69 351.49L290.44 351.47L289.88 344.4Z" fill="#FFE500" stroke="black" stroke-linecap="round" stroke-linejoin="round"/>
<g style="mix-blend-mode:multiply">
<path d="M302.86 351.48L302.32 344.41" stroke="#020000" stroke-linecap="round" stroke-linejoin="round"/>
</g>
<path d="M320.12 366.88H303.4L299.52 355.74H316.24L320.12 366.88Z" fill="white" stroke="black" stroke-linecap="round" stroke-linejoin="round"/>
<path d="M300.32 358.03H317.04" stroke="black" stroke-linecap="round" stroke-linejoin="round"/>
<path d="M323 383H272.72C271.999 383 271.291 382.816 270.661 382.467C270.03 382.118 269.499 381.614 269.118 381.003C268.736 380.392 268.515 379.694 268.477 378.975C268.439 378.255 268.584 377.538 268.9 376.89L269.07 376.56H323.35L324.94 379.85C325.102 380.182 325.177 380.549 325.159 380.918C325.141 381.286 325.03 381.644 324.836 381.959C324.643 382.273 324.373 382.533 324.052 382.715C323.731 382.897 323.369 382.995 323 383Z" fill="white" stroke="black" stroke-linecap="round" stroke-linejoin="round"/>
<path d="M323.35 376.59H269.07C269.487 374.122 270.551 371.809 272.153 369.885C273.755 367.962 275.838 366.497 278.19 365.64L299.19 360.88C299.891 360.775 300.601 360.731 301.31 360.75C302.909 360.752 304.496 361.016 306.01 361.53C308.9 362.53 311.88 365.41 314.87 365.41C317.86 365.41 318.7 364.27 318.78 362.93C318.691 361.47 318.203 360.062 317.37 358.86C321.78 358.86 321.64 361.09 321.64 361.09L323.35 376.59Z" fill="#020000" stroke="black" stroke-linecap="round" stroke-linejoin="round"/>
<path d="M305.68 302.32L307.64 312.34" stroke="#020000" stroke-linecap="round" stroke-linejoin="round"/>
<path d="M310.04 304.67L307.64 312.34" stroke="#020000" stroke-linecap="round" stroke-linejoin="round"/>
<path d="M303.53 199.85C297.37 206.04 299.73 239.79 299.73 239.79L276.92 253.63C276.226 254.028 275.622 254.565 275.147 255.209C274.671 255.853 274.335 256.588 274.159 257.369C273.983 258.149 273.972 258.958 274.125 259.743C274.278 260.528 274.593 261.273 275.05 261.93L278.74 267.26C281.02 270.54 284.23 270.54 287.63 268.43L308.77 257.08C312.77 253.83 316.6 251.28 316.68 246.75L311.86 210.42C311.86 210.42 309.69 193.67 303.53 199.85Z" fill="white" stroke="black" stroke-linecap="round" stroke-linejoin="round"/>
<path d="M305.32 239.32C303.448 238.977 301.518 239.139 299.73 239.79" stroke="black" stroke-linecap="round" stroke-linejoin="round"/>
<path d="M272.48 260.41C275.29 259.41 275.54 258.23 277.94 257.23C280.2 257.17 282.25 259.23 282.86 261.46C283.47 263.69 284.28 266.75 281.78 268.46C278.794 270.4 275.496 271.81 272.03 272.63C269.695 273.097 267.277 272.928 265.03 272.14C263.303 271.705 261.517 271.55 259.74 271.68C257.609 271.976 255.564 272.718 253.74 273.86C252.922 274.372 251.964 274.617 251 274.56C246.43 274.56 241.58 274.07 237 273.95C236.28 273.95 236.45 273.24 236.72 272.73C237.32 271.62 238.28 270.29 238.93 269.12C240.884 267.791 242.623 266.172 244.09 264.32C246.305 262.904 248.718 261.825 251.25 261.12C254.45 261.12 257.43 260.22 260.69 260.22C263.95 260.22 269.66 261.4 272.48 260.41Z" fill="white" stroke="#020000" stroke-linecap="round" stroke-linejoin="round"/>
<path d="M274.9 260.69C274.168 260.652 273.439 260.558 272.72 260.41" stroke="black" stroke-linecap="round" stroke-linejoin="round"/>
<path d="M247.55 274.54C248.95 273.26 249.71 272.09 251.19 270.75C252.67 269.41 254.78 267.87 256.33 266.43C257.88 266.11 259.33 265.72 260.88 265.33" stroke="black" stroke-linecap="round" stroke-linejoin="round"/>
<path d="M242.63 274.27C243.87 272.67 245.16 271.1 246.28 269.42C248.16 268.14 250.04 266.85 251.81 265.42C253.51 264.9 255.21 264.42 256.88 263.8" stroke="black" stroke-linecap="round" stroke-linejoin="round"/>
<path d="M238.76 274C240.13 272.4 241.02 270.75 242.57 269.23C244.12 267.71 246.39 266.3 247.93 264.63C249 264.36 250.02 264.08 251.05 263.77" stroke="black" stroke-linecap="round" stroke-linejoin="round"/>
<path d="M278.72 267.13C278.919 267.918 278.845 268.75 278.508 269.489C278.172 270.229 277.594 270.832 276.87 271.2C275.725 271.736 274.524 272.145 273.29 272.42" stroke="black" stroke-linecap="round" stroke-linejoin="round"/>
<path d="M307.27 215.55C306.36 224.87 306.99 234.01 310.8 240.79C318 253.66 319 267 323 278.8C348.15 278.8 337.54 280.28 358.29 283.71C375.5 286.56 377.29 278.8 377.29 278.8L355.65 204.7C347.32 190.52 336.14 190.52 321.49 190.52C311.85 190.52 306.49 195.8 303.49 199.85" fill="white"/>
<path d="M307.27 215.55C306.36 224.87 306.99 234.01 310.8 240.79C318 253.66 319 267 323 278.8C348.15 278.8 337.54 280.28 358.29 283.71C375.5 286.56 377.29 278.8 377.29 278.8L355.65 204.7C347.32 190.52 336.14 190.52 321.49 190.52C311.85 190.52 306.49 195.8 303.49 199.85" stroke="black" stroke-linecap="round" stroke-linejoin="round"/>
<path d="M338.16 211.61L344.16 248.49C344.16 248.49 316.84 259.49 312.86 260.69C308.88 261.89 309.1 265.11 309.1 265.11L314.58 275.53L358.14 262.72C364.54 260.84 365.74 254.08 364.56 246.81L360.56 212.21C353.45 188.06 330.78 190.21 323.19 190.52" fill="white"/>
<path d="M338.16 211.61L344.16 248.49C344.16 248.49 316.84 259.49 312.86 260.69C308.88 261.89 309.1 265.11 309.1 265.11L314.58 275.53L358.14 262.72C364.54 260.84 365.74 254.08 364.56 246.81L360.56 212.21C353.45 188.06 330.78 190.21 323.19 190.52" stroke="black" stroke-linecap="round" stroke-linejoin="round"/>
<path d="M347.79 246.76L344.16 248.49" stroke="black" stroke-linecap="round" stroke-linejoin="round"/>
<path d="M306.42 264.22L311.42 263.44C312.298 263.292 313.2 263.403 314.016 263.758C314.833 264.113 315.529 264.697 316.02 265.44C316.629 266.418 317.006 267.523 317.12 268.67C317.7 273.46 314.49 274.85 314.49 274.85L304.06 276.13C301.905 276.423 299.711 276.169 297.68 275.39C296.081 274.807 294.36 274.642 292.68 274.91C289.27 275.33 288.46 276.59 287.14 277.53C286.42 278.064 285.578 278.408 284.69 278.53L271.2 280.19C270.67 280.25 270.49 279.6 270.7 279.05C271.16 277.82 271.81 276.36 272.28 274.99C274.068 273.239 275.603 271.246 276.84 269.07C278.951 267.197 281.412 265.76 284.08 264.84L293.8 263.15L306.42 264.22Z" fill="white" stroke="#020000" stroke-linecap="round" stroke-linejoin="round"/>
<path d="M308.91 265.27L306.42 264.22" stroke="black" stroke-linecap="round" stroke-linejoin="round"/>
<path d="M281.44 278.91L284.37 274.63L289.31 269.76L293.83 268.43" stroke="black" stroke-linecap="round" stroke-linejoin="round"/>
<path d="M276.75 279.49L279.53 273.96L284.75 269.11L289.85 267.05" stroke="black" stroke-linecap="round" stroke-linejoin="round"/>
<path d="M273 279.95L275.78 274.42L280.78 268.81L283.9 267.53" stroke="black" stroke-linecap="round" stroke-linejoin="round"/>
<path d="M311.56 272.53C311.583 273.26 311.332 273.973 310.856 274.528C310.381 275.083 309.715 275.441 308.99 275.53L305.32 275.97" stroke="black" stroke-linecap="round" stroke-linejoin="round"/>
<path d="M310 196.39C310 196.39 307.41 202.21 311.18 205.23C313.753 207.146 316.924 208.085 320.126 207.88C323.327 207.675 326.352 206.339 328.66 204.11C334.66 198.51 333.92 192.79 331.61 190.52" stroke="#FFE500" stroke-linecap="round" stroke-linejoin="round"/>
<path d="M329.78 192.87C329.78 192.87 327.94 200.24 320.6 202.75C313.26 205.26 312.5 200.81 312.5 200.81L308.26 191.76L325.5 182.06L329.78 192.87Z" fill="white" stroke="#020000" stroke-linecap="round" stroke-linejoin="round"/>
<path d="M325.74 182.67C326.163 175.843 325.611 168.991 324.1 162.32C322.49 155.25 320.83 144.07 307.35 146.24C283.91 150.03 289.14 173.24 289.14 173.24L292.14 177.38C292.292 180.145 292.717 182.889 293.41 185.57C294.49 189.42 304.41 201.18 308.76 201.07C314.4 200.92 324.52 184.9 324.52 184.9" fill="white"/>
<path d="M325.74 182.67C326.163 175.843 325.611 168.991 324.1 162.32C322.49 155.25 320.83 144.07 307.35 146.24C283.91 150.03 289.14 173.24 289.14 173.24L292.14 177.38C292.292 180.145 292.717 182.889 293.41 185.57C294.49 189.42 304.41 201.18 308.76 201.07C314.4 200.92 324.52 184.9 324.52 184.9" stroke="#020000" stroke-linecap="round" stroke-linejoin="round"/>
<path d="M315.91 144.82C315.91 144.82 311.91 133.46 323.71 134.59C335.88 135.76 330.63 147.94 324.38 147.97C318.13 148 315.91 144.82 315.91 144.82Z" fill="#FFE500" stroke="#020000" stroke-linecap="round" stroke-linejoin="round"/>
<path d="M313.1 143.83C313.1 143.83 305.04 136.92 291.55 151.65C280.55 163.65 290.47 175.18 290.47 175.18C290.47 175.18 287.56 162.12 294.55 159.54C301.14 157.11 314.2 152.51 313.1 143.83Z" fill="#FFE500" stroke="#020000" stroke-linecap="round" stroke-linejoin="round"/>
<path d="M301.21 165.69C307.91 167.78 315.26 170.37 322.08 168.12C322.08 168.12 322.48 165.59 326.23 165.54L325.9 173.16L325.67 183.08C327.875 181.478 329.979 179.742 331.97 177.88C334.3 175.59 336.51 168.3 333.32 157.76C330.13 147.22 325.7 143.82 321.24 142.33C316.78 140.84 310.37 140.7 307.24 142.33C304.11 143.96 297.24 150.77 295.32 153.28C290.47 159.54 293.75 163.37 301.21 165.69Z" fill="#FFE500" stroke="#020000" stroke-linecap="round" stroke-linejoin="round"/>
<path d="M301.64 191.5C301.64 191.5 305.33 195 309.03 190.8" stroke="#020000" stroke-linecap="round" stroke-linejoin="round"/>
<path d="M306.913 179.051C307.79 178.848 308.242 177.567 307.923 176.19C307.604 174.812 306.635 173.86 305.758 174.063C304.881 174.267 304.429 175.548 304.748 176.925C305.067 178.303 306.036 179.255 306.913 179.051Z" fill="#020000"/>
<path d="M297.009 181.397C297.886 181.194 298.338 179.912 298.019 178.535C297.7 177.158 296.731 176.206 295.854 176.409C294.977 176.612 294.524 177.893 294.843 179.271C295.162 180.648 296.132 181.6 297.009 181.397Z" fill="#020000"/>
<path d="M300.17 171.44C300.17 171.44 302.17 165.01 308.8 167.99" stroke="#020000" stroke-linecap="round" stroke-linejoin="round"/>
<path d="M290.47 173.16C290.47 173.16 291.17 169.59 296.47 172.74" stroke="#020000" stroke-linecap="round" stroke-linejoin="round"/>
<path d="M300.17 177.1L300.61 182.1L299.46 187.1C301.19 188.51 303.14 188.42 305.31 186.85" stroke="#020000" stroke-linecap="round" stroke-linejoin="round"/>
<path d="M295.263 184.652C297.885 184.347 299.696 181.4 299.309 178.07C298.921 174.74 296.481 172.288 293.859 172.593C291.237 172.899 289.425 175.846 289.813 179.175C290.2 182.505 292.64 184.957 295.263 184.652Z" stroke="#020000" stroke-linecap="round" stroke-linejoin="round"/>
<path d="M299.46 177.1C299.46 177.1 298.96 175.99 302.21 176.46" stroke="#FFE500" stroke-linecap="round" stroke-linejoin="round"/>
<path d="M308.378 181.834C311.395 181.483 313.527 178.498 313.139 175.169C312.752 171.839 309.992 169.424 306.974 169.775C303.957 170.127 301.825 173.111 302.213 176.441C302.601 179.77 305.361 182.185 308.378 181.834Z" stroke="#020000" stroke-linecap="round" stroke-linejoin="round"/>
<path d="M313.1 172.11L321.24 168.37" stroke="#FFE500" stroke-linecap="round" stroke-linejoin="round"/>
<path d="M268.69 283.78H201.34V383.03H268.69V283.78Z" fill="white" stroke="black" stroke-linecap="round" stroke-linejoin="round"/>
<path d="M342.94 283.78H127.08V294.25H342.94V283.78Z" fill="white" stroke="black" stroke-linecap="round" stroke-linejoin="round"/>
<g style="mix-blend-mode:multiply">
<path d="M210.44 294.38V373.97" stroke="#FFE500" stroke-linecap="round" stroke-linejoin="round"/>
</g>
<g style="mix-blend-mode:multiply">
<path d="M223.48 294.38V373.97" stroke="#FFE500" stroke-linecap="round" stroke-linejoin="round"/>
</g>
<g style="mix-blend-mode:multiply">
<path d="M236.53 294.38V373.97" stroke="#FFE500" stroke-linecap="round" stroke-linejoin="round"/>
</g>
<g style="mix-blend-mode:multiply">
<path d="M249.57 294.38V373.97" stroke="#FFE500" stroke-linecap="round" stroke-linejoin="round"/>
</g>
<g style="mix-blend-mode:multiply">
<path d="M262.61 294.38V373.97" stroke="#FFE500" stroke-linecap="round" stroke-linejoin="round"/>
</g>
<g style="mix-blend-mode:multiply">
<path d="M143.88 283.78V294.25" stroke="#FFE500" stroke-linecap="round" stroke-linejoin="round"/>
</g>
<g style="mix-blend-mode:multiply">
<path d="M169.83 283.78V294.25" stroke="#FFE500" stroke-linecap="round" stroke-linejoin="round"/>
</g>
<g style="mix-blend-mode:multiply">
<path d="M195.79 283.78V294.25" stroke="#FFE500" stroke-linecap="round" stroke-linejoin="round"/>
</g>
<g style="mix-blend-mode:multiply">
<path d="M221.75 283.78V294.25" stroke="#FFE500" stroke-linecap="round" stroke-linejoin="round"/>
</g>
<g style="mix-blend-mode:multiply">
<path d="M247.7 283.78V294.25" stroke="#FFE500" stroke-linecap="round" stroke-linejoin="round"/>
</g>
<g style="mix-blend-mode:multiply">
<path d="M273.66 283.78V294.25" stroke="#FFE500" stroke-linecap="round" stroke-linejoin="round"/>
</g>
<g style="mix-blend-mode:multiply">
<path d="M299.62 283.78V294.25" stroke="#FFE500" stroke-linecap="round" stroke-linejoin="round"/>
</g>
<g style="mix-blend-mode:multiply">
<path d="M325.57 283.78V294.25" stroke="#FFE500" stroke-linecap="round" stroke-linejoin="round"/>
</g>
<path d="M291.69 375.17H178.35V383.02H291.69V375.17Z" fill="white" stroke="black" stroke-linecap="round" stroke-linejoin="round"/>
<g style="mix-blend-mode:multiply">
<path d="M185.67 375.17V383.03" stroke="#FFE500" stroke-linecap="round" stroke-linejoin="round"/>
</g>
<g style="mix-blend-mode:multiply">
<path d="M211.63 375.17V383.03" stroke="#FFE500" stroke-linecap="round" stroke-linejoin="round"/>
</g>
<g style="mix-blend-mode:multiply">
<path d="M237.58 375.17V383.03" stroke="#FFE500" stroke-linecap="round" stroke-linejoin="round"/>
</g>
<g style="mix-blend-mode:multiply">
<path d="M263.54 375.17V383.03" stroke="#FFE500" stroke-linecap="round" stroke-linejoin="round"/>
</g>
<g style="mix-blend-mode:multiply">
<path d="M289.5 375.17V383.03" stroke="#FFE500" stroke-linecap="round" stroke-linejoin="round"/>
</g>
<path d="M182.26 283.78H166.75L164.07 254.17H184.94L182.26 283.78Z" fill="white" stroke="black" stroke-linecap="round" stroke-linejoin="round"/>
<path d="M184.29 261.39L182.26 283.78H166.74L164.73 261.39H184.29Z" fill="#FFE500" stroke="black" stroke-linecap="round" stroke-linejoin="round"/>
<path d="M170.48 263.76V255C170.48 253.11 172.78 253 172.78 254.16" stroke="black" stroke-linecap="round" stroke-linejoin="round"/>
<g style="mix-blend-mode:multiply">
<path d="M172.78 254.17L172.7 268.68L171.63 269.19L169.23 275.87L170.33 277.33L175.93 277.09L176.8 275.32L173.79 269.3L172.7 268.68" fill="#FFE500"/>
<path d="M172.78 254.17L172.7 268.68L171.63 269.19L169.23 275.87L170.33 277.33L175.93 277.09L176.8 275.32L173.79 269.3L172.7 268.68" stroke="#FFE500" stroke-linecap="round" stroke-linejoin="round"/>
</g>
<path d="M172.49 269.31H167.68L168.48 263.76H173.28L172.49 269.31Z" fill="white" stroke="black" stroke-linecap="round" stroke-linejoin="round"/>
<path d="M154.62 216.28V222.38C154.62 224.727 155.553 226.978 157.212 228.638C158.872 230.298 161.123 231.23 163.47 231.23V231.23C165.82 231.23 168.074 232.163 169.735 233.825C171.397 235.487 172.33 237.74 172.33 240.09V246.53" stroke="#020000" stroke-linecap="round" stroke-linejoin="round"/>
<path d="M179.53 206.31V209.89C179.53 210.319 179.614 210.744 179.779 211.14C179.943 211.536 180.184 211.896 180.488 212.199C180.792 212.502 181.153 212.741 181.549 212.905C181.946 213.068 182.371 213.151 182.8 213.15V213.15C183.665 213.153 184.495 213.498 185.106 214.111C185.717 214.724 186.06 215.554 186.06 216.42V216.92C186.06 217.786 185.717 218.616 185.106 219.229C184.495 219.842 183.665 220.187 182.8 220.19H180.07C179.64 220.189 179.214 220.272 178.817 220.436C178.42 220.6 178.059 220.841 177.755 221.145C177.451 221.449 177.21 221.81 177.046 222.207C176.882 222.604 176.798 223.03 176.8 223.46V235" stroke="#020000" stroke-linecap="round" stroke-linejoin="round"/>
<path d="M213.48 280.46H282.68V283.78H213.48C213.215 283.78 212.96 283.675 212.773 283.487C212.585 283.3 212.48 283.045 212.48 282.78V281.47C212.479 281.338 212.504 281.207 212.553 281.084C212.603 280.962 212.676 280.85 212.769 280.756C212.862 280.662 212.973 280.588 213.095 280.537C213.217 280.486 213.348 280.46 213.48 280.46Z" fill="white" stroke="black" stroke-linecap="round" stroke-linejoin="round"/>
<path d="M312.8 283.78H282.69V280.46H312.8C313.065 280.46 313.319 280.565 313.507 280.753C313.694 280.94 313.8 281.195 313.8 281.46V282.77C313.801 282.902 313.776 283.033 313.727 283.156C313.677 283.278 313.603 283.39 313.51 283.484C313.417 283.578 313.307 283.652 313.185 283.703C313.063 283.754 312.932 283.78 312.8 283.78Z" fill="white" stroke="black" stroke-linecap="round" stroke-linejoin="round"/>
<path d="M211.74 283.71H282C282.167 283.709 282.332 283.671 282.483 283.599C282.633 283.526 282.766 283.421 282.87 283.29C282.975 283.16 283.049 283.008 283.087 282.845C283.125 282.682 283.126 282.513 283.09 282.35L273.66 238.75C273.502 237.975 273.081 237.279 272.469 236.778C271.857 236.277 271.091 236.002 270.3 236H204.79C204.276 236.001 203.769 236.116 203.306 236.338C202.842 236.559 202.434 236.882 202.111 237.281C201.788 237.681 201.558 238.148 201.439 238.648C201.319 239.147 201.313 239.667 201.42 240.17L210.64 282.79C210.685 283.049 210.82 283.283 211.022 283.451C211.223 283.62 211.478 283.712 211.74 283.71Z" fill="white" stroke="black" stroke-linecap="round" stroke-linejoin="round"/>
<path d="M279.65 283.71H211.74C211.483 283.713 211.233 283.627 211.033 283.467C210.832 283.306 210.693 283.081 210.64 282.83L201.42 240.21C201.313 239.707 201.319 239.187 201.439 238.688C201.558 238.188 201.788 237.721 202.111 237.321C202.434 236.922 202.842 236.599 203.306 236.378C203.769 236.156 204.276 236.041 204.79 236.04H268C268.787 236.04 269.55 236.309 270.162 236.801C270.775 237.294 271.202 237.982 271.37 238.75L280.8 282.35C280.837 282.518 280.835 282.693 280.794 282.86C280.752 283.028 280.673 283.183 280.562 283.315C280.45 283.446 280.31 283.55 280.152 283.619C279.994 283.688 279.822 283.719 279.65 283.71Z" fill="white" stroke="black" stroke-linecap="round" stroke-linejoin="round"/>
<g style="mix-blend-mode:multiply">
<g style="mix-blend-mode:multiply">
<path d="M242.89 269.2C241.3 269.841 239.543 269.943 237.89 269.49C236.21 269.914 234.44 269.812 232.82 269.2C233.758 268.53 234.469 267.59 234.86 266.506C235.252 265.422 235.304 264.244 235.01 263.13C234.691 261.789 234.076 260.537 233.211 259.464C232.346 258.392 231.252 257.526 230.01 256.93C231.17 256.39 232.87 256.34 235.31 257.09C236.971 256.398 238.829 256.341 240.53 256.93C239.523 257.575 238.747 258.522 238.313 259.637C237.88 260.751 237.812 261.975 238.12 263.13C238.427 264.427 239.013 265.642 239.836 266.69C240.66 267.738 241.702 268.595 242.89 269.2Z" fill="#020000"/>
</g>
<g style="mix-blend-mode:multiply">
<path d="M231.55 253.2C230.682 252.441 230.027 251.469 229.65 250.38C230.778 250.534 231.845 250.986 232.74 251.69C233.608 252.449 234.262 253.421 234.64 254.51C233.512 254.356 232.445 253.904 231.55 253.2Z" fill="#020000"/>
</g>
<g style="mix-blend-mode:multiply">
<path d="M242.89 269.2C241.3 269.841 239.543 269.943 237.89 269.49C236.21 269.914 234.44 269.812 232.82 269.2C233.758 268.53 234.469 267.59 234.86 266.506C235.252 265.422 235.304 264.244 235.01 263.13C234.691 261.789 234.076 260.537 233.211 259.464C232.346 258.392 231.252 257.526 230.01 256.93C231.17 256.39 232.87 256.34 235.31 257.09C236.971 256.398 238.829 256.341 240.53 256.93C239.523 257.575 238.747 258.522 238.313 259.637C237.88 260.751 237.812 261.975 238.12 263.13C238.427 264.427 239.013 265.642 239.836 266.69C240.66 267.738 241.702 268.595 242.89 269.2V269.2Z" stroke="#020000" stroke-linecap="round" stroke-linejoin="round"/>
</g>
<g style="mix-blend-mode:multiply">
<path d="M231.55 253.2C230.682 252.441 230.027 251.469 229.65 250.38C230.778 250.534 231.845 250.986 232.74 251.69C233.608 252.449 234.262 253.421 234.64 254.51C233.512 254.356 232.445 253.904 231.55 253.2V253.2Z" stroke="#020000" stroke-linecap="round" stroke-linejoin="round"/>
</g>
</g>
<path d="M321.8 169.32C321.4 166.95 322.17 164.39 324.51 163.76C326.85 163.13 328.88 165.61 329.51 169.03C330.14 172.45 329.15 176.61 326.69 177.03C326.224 177.11 325.747 177.09 325.29 176.97" fill="white"/>
<path d="M321.8 169.32C321.4 166.95 322.17 164.39 324.51 163.76C326.85 163.13 328.88 165.61 329.51 169.03C330.14 172.45 329.15 176.61 326.69 177.03C326.224 177.11 325.747 177.09 325.29 176.97" stroke="#020000" stroke-linecap="round" stroke-linejoin="round"/>
<path d="M458.79 383.03H373.25C371.489 383.03 369.8 382.33 368.555 381.085C367.31 379.84 366.61 378.151 366.61 376.39V282.08C366.616 278.654 367.98 275.371 370.404 272.95C372.829 270.53 376.114 269.17 379.54 269.17H452.54C455.969 269.17 459.258 270.532 461.683 272.957C464.108 275.382 465.47 278.671 465.47 282.1V376.39C465.47 377.265 465.297 378.132 464.961 378.94C464.625 379.749 464.132 380.482 463.511 381.099C462.89 381.717 462.154 382.205 461.344 382.536C460.533 382.867 459.666 383.035 458.79 383.03Z" fill="#FFE500" stroke="black" stroke-linecap="round" stroke-linejoin="round"/>
<path d="M379.54 269.14H387.3C390.729 269.14 394.018 270.502 396.443 272.927C398.868 275.352 400.23 278.641 400.23 282.07V376.38C400.23 378.141 399.53 379.83 398.285 381.075C397.04 382.32 395.351 383.02 393.59 383.02H373.25C371.489 383.02 369.8 382.32 368.555 381.075C367.309 379.83 366.61 378.141 366.61 376.38V282.07C366.61 278.641 367.972 275.352 370.397 272.927C372.822 270.502 376.111 269.14 379.54 269.14Z" fill="white" stroke="black" stroke-linecap="round" stroke-linejoin="round"/>
<path d="M35.0801 383.03H497.09" stroke="#020000" stroke-linecap="round" stroke-linejoin="round"/>
<path d="M326.89 166.76C326.89 166.76 323.89 164.28 323.71 168.37C323.53 172.46 325.05 169 325.8 171.05C326.19 172.11 325.14 172.5 325.22 173.17C325.227 173.418 325.299 173.66 325.427 173.873C325.556 174.085 325.737 174.261 325.953 174.382C326.169 174.504 326.414 174.568 326.662 174.568C326.91 174.567 327.154 174.503 327.37 174.38" fill="white"/>
<path d="M326.89 166.76C326.89 166.76 323.89 164.28 323.71 168.37C323.53 172.46 325.05 169 325.8 171.05C326.19 172.11 325.14 172.5 325.22 173.17C325.227 173.418 325.299 173.66 325.427 173.873C325.556 174.085 325.737 174.261 325.953 174.382C326.169 174.504 326.414 174.568 326.662 174.568C326.91 174.567 327.154 174.503 327.37 174.38" stroke="#020000" stroke-linecap="round" stroke-linejoin="round"/>
<path d="M323.71 168.37C323.71 168.37 326.83 168.66 326.83 170.49L323.71 168.37Z" fill="white"/>
<path d="M323.71 168.37C323.71 168.37 326.83 168.66 326.83 170.49" stroke="#020000" stroke-linecap="round" stroke-linejoin="round"/>
</svg>
