<svg width="407" height="346" viewBox="0 0 407 346" fill="none" xmlns="http://www.w3.org/2000/svg">
<path d="M397.45 68.39L235.3 5.07999L73.16 68.39V78.39L235.3 15.08L397.45 78.39V68.39Z" stroke="#FFE500" stroke-width="5" stroke-linecap="round" stroke-linejoin="round"/>
<path d="M3.05005 68.39L164.72 5.07999H235.3L73.16 68.39V78.39H3.05005V68.39Z" stroke="#FFE500" stroke-width="5" stroke-linecap="round" stroke-linejoin="round"/>
<path d="M373.69 149.31H96.91V156.39H373.69V149.31Z" stroke="#FFE500" stroke-width="5" stroke-linecap="round" stroke-linejoin="round"/>
<path d="M123.76 86.82H103.39V149.31H123.76V86.82Z" stroke="#FFE500" stroke-width="5" stroke-linecap="round" stroke-linejoin="round"/>
<path d="M118.11 142.31V93.82H109.04V142.31H118.11Z" fill="#FFE500" stroke="#FFE500" stroke-miterlimit="10"/>
<path d="M144.13 86.82H123.76V149.31H144.13V86.82Z" stroke="#FFE500" stroke-width="5" stroke-linecap="round" stroke-linejoin="round"/>
<path d="M138.48 142.31V93.82H129.41V142.31H138.48Z" fill="#FFE500" stroke="#FFE500" stroke-miterlimit="10"/>
<path d="M156.67 142.31V93.82H149.63V142.31H156.67Z" fill="#FFE500" stroke="#FFE500" stroke-miterlimit="10"/>
<path d="M165.83 142.31V93.82H158.79V142.31H165.83Z" fill="#FFE500" stroke="#FFE500" stroke-miterlimit="10"/>
<path d="M174.98 142.32V93.83H167.94V142.32H174.98Z" fill="#FFE500" stroke="#FFE500" stroke-miterlimit="10"/>
<path d="M144.13 149.32H180.44V86.83H144.13V149.32Z" stroke="#FFE500" stroke-width="5" stroke-linecap="round" stroke-linejoin="round"/>
<path d="M200.1 149.32H236.41V86.83H200.1V149.32Z" stroke="#FFE500" stroke-width="5" stroke-linecap="round" stroke-linejoin="round"/>
<path d="M216.77 142.31V93.82H205.91V142.31H216.77Z" fill="#FFE500" stroke="#FFE500" stroke-miterlimit="10"/>
<path d="M230.6 142.32V93.83H219.74V142.32H230.6Z" fill="#FFE500" stroke="#FFE500" stroke-miterlimit="10"/>
<path d="M236.41 149.32H272.72V86.83H236.41V149.32Z" stroke="#FFE500" stroke-width="5" stroke-linecap="round" stroke-linejoin="round"/>
<path d="M253.08 142.31V93.82H242.22V142.31H253.08Z" fill="#FFE500" stroke="#FFE500" stroke-miterlimit="10"/>
<path d="M266.91 142.32V93.83H256.05V142.32H266.91Z" fill="#FFE500" stroke="#FFE500" stroke-miterlimit="10"/>
<path d="M294.59 149.32H330.9V86.83H294.59V149.32Z" stroke="#FFE500" stroke-width="5" stroke-linecap="round" stroke-linejoin="round"/>
<path d="M311.26 142.32V93.83H300.4V142.32H311.26Z" fill="#FFE500" stroke="#FFE500" stroke-miterlimit="10"/>
<path d="M325.09 142.32V93.83H314.23V142.32H325.09Z" fill="#FFE500" stroke="#FFE500" stroke-miterlimit="10"/>
<path d="M330.9 149.32H367.21V86.83H330.9V149.32Z" stroke="#FFE500" stroke-width="5" stroke-linecap="round" stroke-linejoin="round"/>
<path d="M347.57 142.32V93.83H336.71V142.32H347.57Z" fill="#FFE500" stroke="#FFE500" stroke-miterlimit="10"/>
<path d="M361.4 142.32V93.83H350.54V142.32H361.4Z" fill="#FFE500" stroke="#FFE500" stroke-miterlimit="10"/>
<path d="M172.44 231.64H100.21V238.72H172.44V231.64Z" stroke="#FFE500" stroke-width="5" stroke-linecap="round" stroke-linejoin="round"/>
<path d="M168.07 174.95H104.57V231.64H168.07V174.95Z" stroke="#FFE500" stroke-width="5" stroke-linecap="round" stroke-linejoin="round"/>
<path d="M124.89 225.97V180.47H110.61V225.97H124.89Z" fill="#FFE500" stroke="#FFE500" stroke-miterlimit="10"/>
<path d="M143.46 225.97V180.47H129.18V225.97H143.46Z" fill="#FFE500" stroke="#FFE500" stroke-miterlimit="10"/>
<path d="M162.04 225.97V180.47H147.76V225.97H162.04Z" fill="#FFE500" stroke="#FFE500" stroke-miterlimit="10"/>
<path d="M256.99 231.64H184.76V238.72H256.99V231.64Z" stroke="#FFE500" stroke-width="5" stroke-linecap="round" stroke-linejoin="round"/>
<path d="M252.62 174.95H189.12V231.64H252.62V174.95Z" stroke="#FFE500" stroke-width="5" stroke-linecap="round" stroke-linejoin="round"/>
<path d="M209.43 225.97V180.47H195.15V225.97H209.43Z" fill="#FFE500" stroke="#FFE500" stroke-miterlimit="10"/>
<path d="M228.01 225.96V180.46H213.73V225.96H228.01Z" fill="#FFE500" stroke="#FFE500" stroke-miterlimit="10"/>
<path d="M246.58 225.97V180.47H232.3V225.97H246.58Z" fill="#FFE500" stroke="#FFE500" stroke-miterlimit="10"/>
<path d="M311.11 241.16H278.08V248.24H311.11V241.16Z" stroke="#FFE500" stroke-width="5" stroke-linecap="round" stroke-linejoin="round"/>
<path d="M309.11 194.54H280.07V241.16H309.11V194.54Z" stroke="#FFE500" stroke-width="5" stroke-linecap="round" stroke-linejoin="round"/>
<path d="M303.74 235.48V200.06H285.43V235.48H303.74Z" fill="#FFE500" stroke="#FFE500" stroke-miterlimit="10"/>
<path d="M364.08 241.16H331.05V248.24H364.08V241.16Z" stroke="#FFE500" stroke-width="5" stroke-linecap="round" stroke-linejoin="round"/>
<path d="M362.09 194.54H333.05V241.16H362.09V194.54Z" stroke="#FFE500" stroke-width="5" stroke-linecap="round" stroke-linejoin="round"/>
<path d="M356.72 235.48V200.06H338.41V235.48H356.72Z" fill="#FFE500" stroke="#FFE500" stroke-miterlimit="10"/>
<path d="M364.08 314.03H331.05V321.11H364.08V314.03Z" stroke="#FFE500" stroke-width="5" stroke-linecap="round" stroke-linejoin="round"/>
<path d="M362.09 277.41H333.05V314.03H362.09V277.41Z" stroke="#FFE500" stroke-width="5" stroke-linecap="round" stroke-linejoin="round"/>
<path d="M362.09 277.41H333.05V285.47H362.09V277.41Z" stroke="#FFE500" stroke-width="5" stroke-linecap="round" stroke-linejoin="round"/>
<path d="M386.95 265.34H83.65V343.17H386.95V265.34Z" stroke="#FFE500" stroke-width="5" stroke-linecap="round" stroke-linejoin="round"/>
<path d="M386.95 257.81V74.27L235.3 15.08L83.65 74.27V257.81H386.95Z" stroke="#FFE500" stroke-width="5" stroke-linecap="round" stroke-linejoin="round"/>
<path d="M289.01 343.18H319.66V285.47H289.01V343.18Z" stroke="#FFE500" stroke-width="5" stroke-linecap="round" stroke-linejoin="round"/>
<path d="M289.01 297.07H319.66V285.47H289.01V297.07Z" stroke="#FFE500" stroke-width="5" stroke-linecap="round" stroke-linejoin="round"/>
<path d="M256.9 343.17H268.07V265.34H256.9V343.17Z" stroke="#FFE500" stroke-width="5" stroke-linecap="round" stroke-linejoin="round"/>
<path d="M159.4 343.17H170.57V265.34H159.4V343.17Z" stroke="#FFE500" stroke-width="5" stroke-linecap="round" stroke-linejoin="round"/>
<path d="M216.56 272.83H177.88V335.68H216.56V272.83Z" fill="#FFE500" stroke="#FFE500" stroke-miterlimit="10"/>
<path d="M221.68 335.68H248.76V272.83H221.68V335.68Z" fill="#FFE500" stroke="#FFE500" stroke-miterlimit="10"/>
<path d="M393.01 257.81H77.6001V265.34H393.01V257.81Z" stroke="#FFE500" stroke-width="5" stroke-linecap="round" stroke-linejoin="round"/>
<path d="M362.23 149.31H296.43V185.63H362.23V149.31Z" stroke="#FFE500" stroke-width="3" stroke-linejoin="round"/>
<path d="M83.65 265.34H14.03V343.17H83.65V265.34Z" fill="#FFE500" stroke="#FFE500" stroke-width="5" stroke-linecap="round" stroke-linejoin="round"/>
<path d="M9.4001 265.34H77.6001V257.81H9.4001V265.34Z" fill="#FFE500" stroke="#FFE500" stroke-width="5" stroke-linecap="round" stroke-linejoin="round"/>
<path d="M73.16 78.39H14.03V257.81H83.65V74.29L73.16 78.39Z" fill="#FFE500" stroke="#FFE500" stroke-width="5" stroke-linecap="round" stroke-linejoin="round"/>
<path d="M73.1501 68.39H3.05005V78.39H73.1501V68.39Z" fill="#FFE500" stroke="#FFE500" stroke-width="5" stroke-linecap="round" stroke-linejoin="round"/>
<path d="M403.57 66.05L241.43 2.73999L79.28 66.05V76.05L241.43 12.74L403.57 76.05V66.05Z" stroke="#020000" stroke-width="5" stroke-linecap="round" stroke-linejoin="round"/>
<path d="M9.18005 66.05L170.85 2.73999H241.43L79.2801 66.05V76.05H9.18005V66.05Z" stroke="#020000" stroke-width="5" stroke-linecap="round" stroke-linejoin="round"/>
<path d="M379.82 146.97H103.04V154.05H379.82V146.97Z" stroke="#020000" stroke-width="5" stroke-linecap="round" stroke-linejoin="round"/>
<path d="M129.89 84.48H109.52V146.97H129.89V84.48Z" stroke="#020000" stroke-width="5" stroke-linecap="round" stroke-linejoin="round"/>
<path d="M124.23 139.97V91.48H115.16V139.97H124.23Z" fill="#020000" stroke="#020000" stroke-miterlimit="10"/>
<path d="M150.26 84.48H129.89V146.97H150.26V84.48Z" stroke="#020000" stroke-width="5" stroke-linecap="round" stroke-linejoin="round"/>
<path d="M144.6 139.97V91.48H135.53V139.97H144.6Z" fill="#020000" stroke="#020000" stroke-miterlimit="10"/>
<path d="M162.8 139.97V91.48H155.76V139.97H162.8Z" fill="#020000" stroke="#020000" stroke-miterlimit="10"/>
<path d="M171.95 139.97V91.48H164.91V139.97H171.95Z" fill="#020000" stroke="#020000" stroke-miterlimit="10"/>
<path d="M181.11 139.98V91.49H174.07V139.98H181.11Z" fill="#020000" stroke="#020000" stroke-miterlimit="10"/>
<path d="M150.26 146.98H186.57V84.49H150.26V146.98Z" stroke="#020000" stroke-width="5" stroke-linecap="round" stroke-linejoin="round"/>
<path d="M206.23 146.98H242.54V84.49H206.23V146.98Z" stroke="#020000" stroke-width="5" stroke-linecap="round" stroke-linejoin="round"/>
<path d="M222.9 139.97V91.48H212.04V139.97H222.9Z" fill="#020000" stroke="#020000" stroke-miterlimit="10"/>
<path d="M236.73 139.97V91.48H225.87V139.97H236.73Z" fill="#020000" stroke="#020000" stroke-miterlimit="10"/>
<path d="M242.53 146.98H278.84V84.49H242.53V146.98Z" stroke="#020000" stroke-width="5" stroke-linecap="round" stroke-linejoin="round"/>
<path d="M259.2 139.97V91.48H248.34V139.97H259.2Z" fill="#020000" stroke="#020000" stroke-miterlimit="10"/>
<path d="M273.04 139.97V91.48H262.18V139.97H273.04Z" fill="#020000" stroke="#020000" stroke-miterlimit="10"/>
<path d="M300.72 146.98H337.03V84.49H300.72V146.98Z" stroke="#020000" stroke-width="5" stroke-linecap="round" stroke-linejoin="round"/>
<path d="M317.39 139.97V91.48H306.53V139.97H317.39Z" fill="#020000" stroke="#020000" stroke-miterlimit="10"/>
<path d="M331.22 139.98V91.49H320.36V139.98H331.22Z" fill="#020000" stroke="#020000" stroke-miterlimit="10"/>
<path d="M337.03 146.98H373.34V84.49H337.03V146.98Z" stroke="#020000" stroke-width="5" stroke-linecap="round" stroke-linejoin="round"/>
<path d="M353.7 139.97V91.48H342.84V139.97H353.7Z" fill="#020000" stroke="#020000" stroke-miterlimit="10"/>
<path d="M367.53 139.98V91.49H356.67V139.98H367.53Z" fill="#020000" stroke="#020000" stroke-miterlimit="10"/>
<path d="M178.57 229.3H106.34V236.38H178.57V229.3Z" stroke="#020000" stroke-width="5" stroke-linecap="round" stroke-linejoin="round"/>
<path d="M174.2 172.61H110.7V229.3H174.2V172.61Z" stroke="#020000" stroke-width="5" stroke-linecap="round" stroke-linejoin="round"/>
<path d="M131.02 223.63V178.13H116.74V223.63H131.02Z" fill="#020000" stroke="#020000" stroke-miterlimit="10"/>
<path d="M149.6 223.62V178.12H135.32V223.62H149.6Z" fill="#020000" stroke="#020000" stroke-miterlimit="10"/>
<path d="M168.17 223.63V178.13H153.89V223.63H168.17Z" fill="#020000" stroke="#020000" stroke-miterlimit="10"/>
<path d="M263.11 229.3H190.88V236.38H263.11V229.3Z" stroke="#020000" stroke-width="5" stroke-linecap="round" stroke-linejoin="round"/>
<path d="M258.75 172.61H195.25V229.3H258.75V172.61Z" stroke="#020000" stroke-width="5" stroke-linecap="round" stroke-linejoin="round"/>
<path d="M215.57 223.63V178.13H201.29V223.63H215.57Z" fill="#020000" stroke="#020000" stroke-miterlimit="10"/>
<path d="M234.15 223.62V178.12H219.87V223.62H234.15Z" fill="#020000" stroke="#020000" stroke-miterlimit="10"/>
<path d="M252.72 223.63V178.13H238.44V223.63H252.72Z" fill="#020000" stroke="#020000" stroke-miterlimit="10"/>
<path d="M317.23 238.82H284.2V245.9H317.23V238.82Z" stroke="#020000" stroke-width="5" stroke-linecap="round" stroke-linejoin="round"/>
<path d="M315.24 192.2H286.2V238.82H315.24V192.2Z" stroke="#020000" stroke-width="5" stroke-linecap="round" stroke-linejoin="round"/>
<path d="M309.87 233.14V197.72H291.56V233.14H309.87Z" fill="#020000" stroke="#020000" stroke-miterlimit="10"/>
<path d="M370.21 238.82H337.18V245.9H370.21V238.82Z" stroke="#020000" stroke-width="5" stroke-linecap="round" stroke-linejoin="round"/>
<path d="M368.22 192.2H339.18V238.82H368.22V192.2Z" stroke="#020000" stroke-width="5" stroke-linecap="round" stroke-linejoin="round"/>
<path d="M362.85 233.14V197.72H344.54V233.14H362.85Z" fill="#020000" stroke="#020000" stroke-miterlimit="10"/>
<path d="M370.21 311.69H337.18V318.77H370.21V311.69Z" stroke="#020000" stroke-width="5" stroke-linecap="round" stroke-linejoin="round"/>
<path d="M368.22 275.07H339.18V311.69H368.22V275.07Z" stroke="#020000" stroke-width="5" stroke-linecap="round" stroke-linejoin="round"/>
<path d="M368.22 275.07H339.18V283.13H368.22V275.07Z" stroke="#020000" stroke-width="5" stroke-linecap="round" stroke-linejoin="round"/>
<path d="M393.08 263H89.78V340.83H393.08V263Z" stroke="#020000" stroke-width="5" stroke-linecap="round" stroke-linejoin="round"/>
<path d="M393.08 255.47V71.93L241.43 12.74L89.78 71.93V255.47H393.08Z" stroke="#020000" stroke-width="5" stroke-linecap="round" stroke-linejoin="round"/>
<path d="M295.14 340.84H325.79V283.13H295.14V340.84Z" stroke="#020000" stroke-width="5" stroke-linecap="round" stroke-linejoin="round"/>
<path d="M295.14 294.72H325.79V283.12H295.14V294.72Z" stroke="#020000" stroke-width="5" stroke-linecap="round" stroke-linejoin="round"/>
<path d="M263.03 340.83H274.2V263H263.03V340.83Z" stroke="#020000" stroke-width="5" stroke-linecap="round" stroke-linejoin="round"/>
<path d="M165.52 340.83H176.69V263H165.52V340.83Z" stroke="#020000" stroke-width="5" stroke-linecap="round" stroke-linejoin="round"/>
<path d="M222.69 270.49H184.01V333.34H222.69V270.49Z" fill="#020000" stroke="#020000" stroke-miterlimit="10"/>
<path d="M227.8 333.34H254.88V270.49H227.8V333.34Z" fill="#020000" stroke="#020000" stroke-miterlimit="10"/>
<path d="M399.14 255.47H83.7301V263H399.14V255.47Z" stroke="#020000" stroke-width="5" stroke-linecap="round" stroke-linejoin="round"/>
<path d="M368.36 146.97H302.56V183.29H368.36V146.97Z" fill="#FFE500" stroke="#020000" stroke-width="3" stroke-linejoin="round"/>
<path d="M312.16 171H310.64C308.64 171 307.64 169.85 307.64 167.62V160H311V167.27C311 167.93 311.23 168.27 312 168.27H312.18L312.16 171Z" fill="#020000"/>
<path d="M317.47 165.94V167.61C316.54 167.61 316.23 167.84 316.23 168.29C316.231 168.378 316.25 168.464 316.286 168.544C316.322 168.624 316.374 168.696 316.439 168.755C316.503 168.814 316.579 168.859 316.662 168.887C316.745 168.916 316.833 168.927 316.92 168.92C317.109 168.926 317.298 168.889 317.47 168.81V170.81C316.917 171.064 316.318 171.2 315.71 171.21C315.362 171.24 315.011 171.2 314.678 171.091C314.345 170.983 314.038 170.809 313.774 170.579C313.51 170.35 313.295 170.07 313.141 169.755C312.988 169.441 312.899 169.099 312.88 168.75C312.88 166.24 315.31 166 317.47 165.94ZM318.15 171.04V165.94C318.11 165.641 317.955 165.369 317.718 165.182C317.481 164.996 317.18 164.909 316.88 164.94C316.067 164.945 315.272 165.173 314.58 165.6C314.25 165.1 313.88 164.36 313.48 163.79C314.653 163.072 316.016 162.723 317.39 162.79C319.63 162.79 321.39 163.68 321.39 166.68V171L318.15 171.04Z" fill="#020000"/>
<path d="M329.93 171H326.56V160H329.93V171ZM335.21 166.48V167.48C335.279 168.39 334.984 169.289 334.389 169.981C333.795 170.673 332.95 171.101 332.04 171.17C331.547 171.178 331.058 171.075 330.61 170.87V168.5C330.68 168.51 330.75 168.51 330.82 168.5C330.939 168.5 331.057 168.476 331.166 168.429C331.276 168.383 331.375 168.314 331.457 168.228C331.539 168.142 331.603 168.04 331.645 167.929C331.687 167.818 331.705 167.699 331.7 167.58V166.72C331.7 166.05 331.4 165.58 330.82 165.58C330.75 165.57 330.68 165.57 330.61 165.58V163.16C331.098 162.934 331.632 162.825 332.17 162.84C333.7 162.9 335.21 164.16 335.21 166.51V166.48Z" fill="#020000"/>
<path d="M340.7 165.94V167.61C339.76 167.61 339.46 167.84 339.46 168.29C339.461 168.378 339.48 168.464 339.516 168.544C339.552 168.624 339.604 168.696 339.669 168.755C339.733 168.814 339.809 168.859 339.892 168.887C339.975 168.916 340.063 168.927 340.15 168.92C340.339 168.926 340.528 168.889 340.7 168.81V170.81C340.147 171.062 339.548 171.199 338.94 171.21C338.592 171.24 338.241 171.2 337.908 171.091C337.575 170.983 337.268 170.809 337.004 170.579C336.74 170.35 336.525 170.07 336.371 169.755C336.218 169.441 336.129 169.099 336.11 168.75C336.11 166.24 338.53 166 340.7 165.94ZM341.38 171.04V165.94C341.34 165.639 341.184 165.366 340.944 165.179C340.705 164.992 340.402 164.906 340.1 164.94C339.291 164.946 338.499 165.174 337.81 165.6C337.48 165.1 337.11 164.36 336.7 163.79C337.878 163.073 339.243 162.725 340.62 162.79C342.86 162.79 344.62 163.68 344.62 166.68V171L341.38 171.04Z" fill="#020000"/>
<path d="M349.94 169.15V171.15C348.441 171.232 346.958 170.798 345.74 169.92L346.97 168.35C347.765 168.873 348.699 169.145 349.65 169.13L349.94 169.15ZM354.16 168.45C354.16 169.78 353.06 171.01 350.62 171.16V168.7C350.62 168.36 349.95 168.26 348.88 168.11C347.22 167.89 345.81 167.03 345.81 165.52C345.81 164.01 347.01 162.95 349.39 162.85V165.3C349.39 165.67 350.39 165.75 351.22 165.9C352.87 166.14 354.16 167.08 354.16 168.45ZM350.07 164.88V162.88C351.357 162.903 352.619 163.247 353.74 163.88L352.62 165.61C351.913 165.191 351.111 164.957 350.29 164.93C350.22 164.902 350.145 164.885 350.07 164.88Z" fill="#020000"/>
<path d="M359.66 162.82V164.82C359.66 164.82 359.61 164.82 359.59 164.82C359.435 164.814 359.28 164.841 359.136 164.899C358.992 164.957 358.862 165.046 358.755 165.159C358.648 165.271 358.566 165.405 358.515 165.552C358.465 165.699 358.446 165.855 358.46 166.01V171.14C356.19 170.88 355.04 169.58 355.04 167.63V166.38C355.04 164.47 356.68 162.83 359.27 162.83C359.4 162.817 359.53 162.813 359.66 162.82ZM359.14 168.03V166.3C359.91 166.24 360.34 166.01 360.34 165.49V162.88C362.02 163.13 363.28 163.99 363.28 165.47C363.28 166.95 361.63 168.05 359.98 168.05C359.699 168.05 359.419 168.033 359.14 168V168.03ZM359.14 171.17V168.92C359.368 169.003 359.608 169.043 359.85 169.04C360.576 169.066 361.286 168.828 361.85 168.37L363.14 169.89C362.641 170.341 362.056 170.687 361.421 170.907C360.785 171.127 360.111 171.217 359.44 171.17H359.14Z" fill="#020000"/>
<path d="M89.78 263H20.16V340.83H89.78V263Z" stroke="#020000" stroke-width="5" stroke-linecap="round" stroke-linejoin="round"/>
<path d="M15.5201 263H83.7201V255.47H15.5201V263Z" stroke="#020000" stroke-width="5" stroke-linecap="round" stroke-linejoin="round"/>
<path d="M79.28 76.05H20.16V255.47H89.78V71.95L79.28 76.05Z" stroke="#020000" stroke-width="5" stroke-linecap="round" stroke-linejoin="round"/>
<path d="M79.2801 66.05H9.18005V76.05H79.2801V66.05Z" stroke="#020000" stroke-width="5" stroke-linecap="round" stroke-linejoin="round"/>
</svg>
