<svg width="335" height="287" viewBox="0 0 335 287" fill="none" xmlns="http://www.w3.org/2000/svg">
<path d="M314.73 111.86V127.32L254.69 178.64L192.98 125.88V111.86H176.58V204.15H332.81V111.86H314.73Z" stroke="white" stroke-width="3" stroke-linecap="round" stroke-linejoin="round"/>
<path d="M254.69 178.64L314.73 127.32V72.33H192.98V125.88L254.69 178.64Z" stroke="white" stroke-width="3" stroke-linecap="round" stroke-linejoin="round"/>
<path d="M332.81 204.15H176.58V111.86L254.69 178.64L332.81 111.86V204.15Z" stroke="white" stroke-width="3" stroke-linecap="round" stroke-linejoin="round"/>
<path d="M314.73 111.86H332.81L314.73 98.21V111.86Z" stroke="white" stroke-width="3" stroke-linecap="round" stroke-linejoin="round"/>
<path d="M192.98 99.48L176.58 111.86H192.98V99.48Z" stroke="white" stroke-width="3" stroke-linecap="round" stroke-linejoin="round"/>
<path d="M280.43 72.33L254.69 52.91L228.96 72.33H280.43Z" stroke="white" stroke-width="3" stroke-linecap="round" stroke-linejoin="round"/>
<path d="M211.77 98.21H235.89" stroke="white" stroke-width="3" stroke-linecap="round" stroke-linejoin="round"/>
<path d="M211.77 122.02H288.19" stroke="white" stroke-width="3" stroke-linecap="round" stroke-linejoin="round"/>
<path d="M215.46 141.84H296.92" stroke="white" stroke-width="3" stroke-linecap="round" stroke-linejoin="round"/>
<path d="M235.89 161.66H273.12" stroke="white" stroke-width="3" stroke-linecap="round" stroke-linejoin="round"/>
<path d="M254.69 178.64L228.96 203.66" stroke="white" stroke-width="3" stroke-linecap="round" stroke-linejoin="round"/>
<path d="M98.35 237.54C114.61 227.36 131.42 212.76 141.4 192.54" stroke="white" stroke-width="3" stroke-linecap="round" stroke-linejoin="round"/>
<path d="M72.38 250.89C74.6 249.96 76.94 248.94 79.38 247.8" stroke="white" stroke-width="3" stroke-linecap="round" stroke-linejoin="round"/>
<path d="M100.43 275.38C119.88 265.38 143.19 248.79 155.74 223.45" stroke="white" stroke-width="3" stroke-linecap="round" stroke-linejoin="round"/>
<path d="M146.17 285C156.024 276.395 164.138 265.98 170.07 254.32" stroke="white" stroke-width="3" stroke-linecap="round" stroke-linejoin="round"/>
<path d="M312.73 108.86V124.32L252.69 175.64L190.98 122.88V108.86H174.58V201.15H330.81V108.86H312.73Z" stroke="#020000" stroke-width="5" stroke-linecap="round" stroke-linejoin="round"/>
<path d="M252.69 175.64L312.73 124.32V69.33H190.98V122.88L252.69 175.64Z" stroke="#020000" stroke-width="5" stroke-linecap="round" stroke-linejoin="round"/>
<path d="M330.81 201.15H174.58V108.86L252.69 175.64L330.81 108.86V201.15Z" stroke="#020000" stroke-width="5" stroke-linecap="round" stroke-linejoin="round"/>
<path d="M312.73 108.86H330.81L312.73 95.21V108.86Z" stroke="#020000" stroke-width="5" stroke-linecap="round" stroke-linejoin="round"/>
<path d="M190.98 96.48L174.58 108.86H190.98V96.48Z" stroke="#020000" stroke-width="5" stroke-linecap="round" stroke-linejoin="round"/>
<path d="M278.43 69.33L252.69 49.91L226.96 69.33H278.43Z" stroke="#020000" stroke-width="5" stroke-linecap="round" stroke-linejoin="round"/>
<path d="M209.77 95.21H233.89" stroke="#020000" stroke-width="5" stroke-linecap="round" stroke-linejoin="round"/>
<path d="M209.77 119.02H286.19" stroke="#020000" stroke-width="5" stroke-linecap="round" stroke-linejoin="round"/>
<path d="M213.46 138.84H294.92" stroke="#020000" stroke-width="5" stroke-linecap="round" stroke-linejoin="round"/>
<path d="M233.89 158.66H271.12" stroke="#020000" stroke-width="5" stroke-linecap="round" stroke-linejoin="round"/>
<path d="M252.69 175.64L226.96 200.66" stroke="#020000" stroke-width="5" stroke-linecap="round" stroke-linejoin="round"/>
<path d="M96.35 234.54C112.61 224.36 129.42 209.76 139.4 189.54" stroke="#020000" stroke-width="5" stroke-linecap="round" stroke-linejoin="round"/>
<path d="M70.38 247.89C72.6 246.96 74.94 245.94 77.38 244.8" stroke="#020000" stroke-width="5" stroke-linecap="round" stroke-linejoin="round"/>
<path d="M98.43 272.38C117.88 262.38 141.19 245.79 153.74 220.45" stroke="#020000" stroke-width="5" stroke-linecap="round" stroke-linejoin="round"/>
<path d="M144.17 282C154.024 273.395 162.138 262.98 168.07 251.32" stroke="#020000" stroke-width="5" stroke-linecap="round" stroke-linejoin="round"/>
</svg>
