<svg width="544" height="452" viewBox="0 0 544 452" fill="none" xmlns="http://www.w3.org/2000/svg">
<path d="M36.3001 266.19C51.8301 358.71 152.93 367.82 230.89 348.54C308.85 329.26 383.96 336.34 411.37 348.54C438.78 360.74 483.72 342.7 503.62 297.27C523.52 251.84 473.37 111.8 354 97.09C206.34 78.91 20.7601 173.68 36.3001 266.19Z" fill="#FFE500"/>
<path d="M482.17 312.65L402.43 312.85L386.33 196.4L466.06 196.2L482.17 312.65Z" fill="white" stroke="black" stroke-linecap="round" stroke-linejoin="round"/>
<path d="M76.3901 324.52L130.03 324.64L140.87 252.53L87.2201 252.41L76.3901 324.52Z" fill="white" stroke="black" stroke-linecap="round" stroke-linejoin="round"/>
<path d="M101.39 205.08L107.13 205.06L115.86 336.83L110.13 336.85L101.39 205.08Z" fill="#FFE500" stroke="black" stroke-linecap="round" stroke-linejoin="round"/>
<path d="M256.61 204.48L262.34 204.46L271.08 336.23L265.35 336.25L256.61 204.48Z" fill="#FFE500" stroke="black" stroke-linecap="round" stroke-linejoin="round"/>
<path d="M262.86 276.53C211.78 286.71 159.78 287.27 109.04 277.13L104.49 208.52C156.637 221.56 207.91 221.36 258.31 207.92L262.86 276.53Z" fill="black" stroke="#020000" stroke-linecap="round" stroke-linejoin="round"/>
<path d="M429.91 203.11L435.59 203.84L427.01 335.63L421.32 334.9L429.91 203.11Z" fill="#FFE500" stroke="black" stroke-linecap="round" stroke-linejoin="round"/>
<path d="M426.68 275.37C373 282.52 312.41 283.54 265 276.53L260.45 207.91C312.6 220.96 379.45 213.48 431.18 206.75L426.68 275.37Z" fill="black" stroke="#020000" stroke-linecap="round" stroke-linejoin="round"/>
<path d="M164.72 279.29L165.21 281.19C165.314 281.598 165.317 282.025 165.22 282.434C165.122 282.843 164.927 283.223 164.65 283.54L163.65 284.72L163.91 285.72C164.095 286.441 164.116 287.194 163.972 287.924C163.829 288.654 163.524 289.343 163.08 289.94L155.26 300.46L153.71 310.32C152.07 312.32 146.15 313.48 143.54 308.65L145.19 298.7L141.75 287.2L141.7 279.9L152.33 277.81L161.27 268.81L164.72 279.29Z" fill="white" stroke="black" stroke-linecap="round" stroke-linejoin="round"/>
<path d="M154.15 300.65C152.516 301.581 150.592 301.863 148.76 301.44" stroke="black" stroke-linecap="round" stroke-linejoin="round"/>
<path d="M162.6 125.08C163.126 125.08 163.646 125.188 164.129 125.398C164.611 125.608 165.046 125.914 165.405 126.299C165.764 126.683 166.04 127.137 166.217 127.633C166.393 128.129 166.466 128.655 166.43 129.18L154.38 310.49H146.67L158.76 128.67C158.826 127.696 159.259 126.784 159.972 126.118C160.685 125.451 161.624 125.08 162.6 125.08Z" fill="#FFE500" stroke="black" stroke-linecap="round" stroke-linejoin="round"/>
<path d="M164.55 279.32L161.24 268.87C161.13 268.567 160.954 268.292 160.726 268.064C160.498 267.836 160.223 267.66 159.92 267.55C159.617 267.438 159.292 267.395 158.971 267.425C158.649 267.454 158.338 267.555 158.06 267.72L149.29 272.87C148.823 273.182 148.494 273.66 148.368 274.206C148.242 274.753 148.33 275.327 148.614 275.811C148.897 276.295 149.355 276.653 149.893 276.811C150.432 276.968 151.01 276.914 151.51 276.66L158 272.85L160.37 279.47" fill="white"/>
<path d="M164.55 279.32L161.24 268.87C161.13 268.567 160.954 268.292 160.726 268.064C160.498 267.836 160.223 267.66 159.92 267.55C159.617 267.438 159.292 267.395 158.971 267.425C158.649 267.454 158.338 267.555 158.06 267.72L149.29 272.87C148.823 273.182 148.494 273.66 148.368 274.206C148.242 274.753 148.33 275.327 148.614 275.811C148.897 276.295 149.355 276.653 149.893 276.811C150.432 276.968 151.01 276.914 151.51 276.66L158 272.85L160.37 279.47" stroke="black" stroke-linecap="round" stroke-linejoin="round"/>
<path d="M164.25 281L160.18 273.17C160.036 272.892 159.834 272.648 159.588 272.455C159.342 272.262 159.057 272.123 158.753 272.049C158.448 271.975 158.132 271.968 157.824 272.026C157.517 272.085 157.226 272.209 156.97 272.39L152.31 274.48L148 276.38C147.505 276.422 147.039 276.629 146.677 276.97C146.315 277.31 146.079 277.763 146.008 278.254C145.936 278.745 146.032 279.247 146.281 279.676C146.531 280.106 146.918 280.438 147.38 280.62C147.7 280.737 148.041 280.785 148.38 280.76L152.78 280.4C153.172 280.372 153.549 280.237 153.87 280.01L157.53 277.44L160.44 283.04" fill="white"/>
<path d="M164.25 281L160.18 273.17C160.036 272.892 159.834 272.648 159.588 272.455C159.342 272.262 159.057 272.123 158.753 272.049C158.448 271.975 158.132 271.968 157.824 272.026C157.517 272.085 157.226 272.209 156.97 272.39L152.31 274.48L148 276.38C147.505 276.422 147.039 276.629 146.677 276.97C146.315 277.31 146.079 277.763 146.008 278.254C145.936 278.745 146.032 279.247 146.281 279.676C146.531 280.106 146.918 280.438 147.38 280.62C147.7 280.737 148.041 280.785 148.38 280.76L152.78 280.4C153.172 280.372 153.549 280.237 153.87 280.01L157.53 277.44L160.44 283.04" stroke="black" stroke-linecap="round" stroke-linejoin="round"/>
<path d="M162.67 282.76L158.78 276.64C158.631 276.354 158.421 276.105 158.165 275.909C157.909 275.714 157.613 275.577 157.298 275.508C156.984 275.439 156.658 275.441 156.343 275.512C156.029 275.583 155.734 275.722 155.48 275.92L151.09 279.33L148.64 279.69C148.157 279.757 147.71 279.982 147.37 280.331C147.03 280.68 146.816 281.133 146.762 281.617C146.709 282.101 146.818 282.59 147.073 283.005C147.328 283.42 147.714 283.739 148.17 283.91C148.523 284.046 148.906 284.087 149.28 284.03L152.28 283.59C152.647 283.536 152.992 283.384 153.28 283.15L156.05 281L158.97 285.28C158.97 285.28 157.5 285.55 157.36 286.63" fill="white"/>
<path d="M162.67 282.76L158.78 276.64C158.631 276.354 158.421 276.105 158.165 275.909C157.909 275.714 157.613 275.577 157.298 275.508C156.984 275.439 156.658 275.441 156.343 275.512C156.029 275.583 155.734 275.722 155.48 275.92L151.09 279.33L148.64 279.69C148.157 279.757 147.71 279.982 147.37 280.331C147.03 280.68 146.816 281.133 146.762 281.617C146.709 282.101 146.818 282.59 147.073 283.005C147.328 283.42 147.714 283.739 148.17 283.91C148.523 284.046 148.906 284.087 149.28 284.03L152.28 283.59C152.647 283.536 152.992 283.384 153.28 283.15L156.05 281L158.97 285.28C158.97 285.28 157.5 285.55 157.36 286.63" stroke="black" stroke-linecap="round" stroke-linejoin="round"/>
<path d="M141.72 287.24C141.72 287.24 141.8 281.3 141.67 279.94C141.44 277.51 144.42 275.54 146.32 276.4C148.22 277.26 148.12 277.81 148.37 278.32C148.62 278.83 149.24 281.95 149.75 283.99C149.87 284.444 149.856 284.923 149.708 285.368C149.561 285.814 149.287 286.207 148.92 286.5C148.58 286.834 148.122 287.021 147.645 287.021C147.168 287.021 146.711 286.834 146.37 286.5C145.204 285.338 144.357 283.895 143.91 282.31" fill="white"/>
<path d="M141.72 287.24C141.72 287.24 141.8 281.3 141.67 279.94C141.44 277.51 144.42 275.54 146.32 276.4C148.22 277.26 148.12 277.81 148.37 278.32C148.62 278.83 149.24 281.95 149.75 283.99C149.87 284.444 149.856 284.923 149.708 285.368C149.561 285.814 149.287 286.207 148.92 286.5C148.58 286.834 148.122 287.021 147.645 287.021C147.168 287.021 146.711 286.834 146.37 286.5C145.204 285.338 144.357 283.895 143.91 282.31" stroke="black" stroke-linecap="round" stroke-linejoin="round"/>
<path d="M150.53 312.56C152.656 312.56 154.38 311.548 154.38 310.3C154.38 309.052 152.656 308.04 150.53 308.04C148.404 308.04 146.68 309.052 146.68 310.3C146.68 311.548 148.404 312.56 150.53 312.56Z" fill="#FFE500" stroke="black" stroke-linecap="round" stroke-linejoin="round"/>
<path d="M226.84 223.81L90.4399 222.21L96.3799 131.78L227.37 132.12L226.84 223.81Z" fill="white" stroke="black" stroke-linecap="round" stroke-linejoin="round"/>
<path d="M112 162.76C109.52 162.1 108.27 160.08 108.44 157.21C108.61 154.34 110.11 152.04 112.66 151.29L112 162.76ZM113.09 155.31L113.33 151.12C113.736 151.051 114.148 151.017 114.56 151.02C115.474 150.97 116.385 151.162 117.202 151.576C118.018 151.991 118.711 152.613 119.21 153.38L116.38 155.67C116.173 155.334 115.876 155.062 115.523 154.885C115.169 154.708 114.774 154.634 114.38 154.67C114.118 154.675 113.86 154.734 113.622 154.844C113.385 154.954 113.173 155.113 113 155.31H113.09ZM112.66 162.89L112.89 158.81C113.05 158.989 113.246 159.133 113.464 159.233C113.683 159.333 113.92 159.386 114.16 159.39C114.549 159.396 114.934 159.308 115.282 159.134C115.63 158.96 115.931 158.705 116.16 158.39L118.81 160.68C118.24 161.438 117.492 162.046 116.632 162.448C115.773 162.851 114.828 163.037 113.88 162.99C113.455 162.997 113.029 162.963 112.61 162.89H112.66Z" fill="black"/>
<path d="M123.89 151.27L123.29 162.78H119.76L120.39 151.27H123.89ZM130.31 151.27L129.74 162.78H126.21L126.42 158.78H124.17L124.35 155.21H126.6L126.8 151.26L130.31 151.27Z" fill="black"/>
<path d="M134.49 162.84H130.92L135.31 151.34H135.61L136.61 156.4L134.49 162.84ZM137.68 158.3L136.3 151.3H139.05L142.35 162.85H138.8L138.35 161.02H135.79L136.72 158.28L137.68 158.3Z" fill="black"/>
<path d="M144 151.45V151.38H147.53C147.53 151.38 147.9 152.06 150.06 155.88L149.82 161.78L144 151.45ZM143.5 162.89L143.94 152.82L147.22 158.65L147.04 162.91L143.5 162.89ZM154.5 151.41L154.05 163H150.5L150.97 151.46L154.5 151.41Z" fill="black"/>
<path d="M159.59 151.59L159.18 162.84C158.123 162.476 157.218 161.767 156.611 160.828C156.004 159.889 155.729 158.774 155.83 157.66V156.66C155.841 155.526 156.211 154.425 156.887 153.514C157.562 152.603 158.508 151.93 159.59 151.59ZM160.14 154.93L160.27 151.4C160.75 151.299 161.24 151.249 161.73 151.25C162.667 151.206 163.6 151.404 164.437 151.826C165.275 152.249 165.989 152.88 166.51 153.66L163.45 155.35C163.262 155.055 163.001 154.813 162.693 154.647C162.385 154.481 162.04 154.396 161.69 154.4C161.125 154.371 160.569 154.56 160.14 154.93ZM163.26 159.33H166.86C166.496 160.498 165.752 161.51 164.746 162.206C163.741 162.902 162.531 163.241 161.31 163.17C160.819 163.168 160.329 163.111 159.85 163L159.98 159.39C160.176 159.591 160.411 159.75 160.671 159.857C160.931 159.963 161.209 160.016 161.49 160.01C161.818 160.045 162.149 160.002 162.457 159.883C162.765 159.765 163.04 159.576 163.26 159.33ZM160.8 155.93H167.23V157.33C167.217 157.75 167.17 158.168 167.09 158.58H160.74L160.8 155.93Z" fill="black"/>
<path d="M168.87 151.48H172.38L172 163.06H168.47L168.87 151.48ZM172.97 154.38L173.06 151.49H177.2L177.11 154.38H172.97ZM172.84 158.64L172.92 155.9H176.52L176.45 158.64H172.84ZM172.7 163.06L172.79 160.18H176.95L176.87 163.05L172.7 163.06Z" fill="black"/>
<path d="M182 151.66L181.84 157.8C181.818 158.083 181.853 158.367 181.942 158.636C182.031 158.906 182.173 159.154 182.359 159.368C182.545 159.582 182.772 159.757 183.026 159.883C183.28 160.009 183.557 160.082 183.84 160.1C184.105 160.103 184.368 160.053 184.613 159.954C184.859 159.854 185.082 159.707 185.27 159.52L185.18 163.2C184.71 163.295 184.23 163.338 183.75 163.33C180.59 163.33 178.12 161.33 178.22 157.83V156.77C178.195 155.62 178.552 154.494 179.236 153.569C179.921 152.644 180.893 151.972 182 151.66ZM186.05 156.86C186.072 156.577 186.037 156.293 185.948 156.024C185.859 155.754 185.717 155.506 185.531 155.292C185.345 155.078 185.119 154.903 184.864 154.777C184.61 154.652 184.333 154.578 184.05 154.56C183.511 154.569 182.996 154.783 182.61 155.16L182.71 151.49C183.178 151.396 183.653 151.35 184.13 151.35C187.29 151.35 189.76 153.35 189.68 156.82V157.89C189.712 159.038 189.363 160.165 188.689 161.094C188.014 162.024 187.052 162.704 185.95 163.03L186.05 156.86Z" fill="black"/>
<path d="M191.31 151.67V151.59H194.87C194.87 151.59 195.26 152.27 197.52 156.11L197.41 162.04L191.31 151.67ZM191.06 163.17L191.28 153.04L194.72 158.9L194.63 163.19L191.06 163.17ZM201.87 151.63L201.67 163.23H198.09L198.3 151.63H201.87Z" fill="black"/>
<path d="M207.17 151.51L207.11 154.95C207.11 155.56 208.2 155.67 209.48 155.95C212.03 156.42 213.21 157.77 213.19 159.67C213.19 161.27 212.08 162.99 209.39 163.35L209.44 159.81C209.44 158.37 203.32 159.62 203.39 155.03C203.42 153.26 204.46 151.78 207.17 151.51ZM208.75 160.51V163.36C208.604 163.37 208.457 163.37 208.31 163.36C206.599 163.371 204.921 162.884 203.48 161.96C203.95 161.15 204.48 160.38 204.91 159.57C205.904 160.228 207.079 160.56 208.27 160.52C208.43 160.536 208.592 160.529 208.75 160.5V160.51ZM207.8 154.3V151.47H208.13C209.763 151.457 211.363 151.927 212.73 152.82L211.38 155.23C210.481 154.649 209.449 154.305 208.38 154.23C208.185 154.232 207.991 154.252 207.8 154.29V154.3Z" fill="black"/>
<path d="M108 172.29H111.71L111 184.64H107.27L108 172.29ZM116.12 180.84L115.91 184.67H111.71L111.93 180.84H116.12Z" fill="black"/>
<path d="M118 172.36H121.69L121 184.72H117.3L118 172.36ZM122.23 175.47L122.4 172.39H126.75L126.59 175.47H122.23ZM122 180L122.16 177.08H125.94L125.79 180.01L122 180ZM121.76 184.71L121.92 181.64H126.28L126.13 184.71H121.76Z" fill="black"/>
<path d="M135.83 172.33L135.66 175.99C135.66 176.64 136.77 176.76 138.1 176.99C140.75 177.5 141.95 178.99 141.86 180.99C141.78 182.7 140.58 184.52 137.76 184.9L137.93 181.13C138 179.6 131.53 180.91 131.76 176.03C131.85 174.18 133 172.61 135.83 172.33ZM137.18 181.9L137.04 184.9H136.58C134.801 184.91 133.06 184.387 131.58 183.4C132.1 182.54 132.65 181.72 133.16 180.87C134.186 181.561 135.404 181.911 136.64 181.87C136.818 181.905 137 181.916 137.18 181.9ZM136.4 175.29L136.54 172.29H136.88C138.581 172.272 140.247 172.778 141.65 173.74L140.15 176.29C139.207 175.684 138.12 175.339 137 175.29C136.801 175.267 136.599 175.267 136.4 175.29Z" fill="black"/>
<path d="M150.51 180.49L150.33 184.95H146.57L146.77 180.08L143 172.53H147L147.24 173.07L150.51 180.49ZM154.93 172.61L150.93 179.4L149.28 175.73L150.95 172.58L154.93 172.61Z" fill="black"/>
<path d="M159.62 172.49L159.49 176.16C159.49 176.81 160.62 176.93 161.95 177.16C164.63 177.66 165.84 179.11 165.77 181.16C165.72 182.87 164.53 184.7 161.69 185.08L161.83 181.3C161.83 179.77 155.39 181.08 155.58 176.19C155.65 174.34 156.78 172.77 159.62 172.49ZM161.08 182.08L160.98 185.08H160.51C158.732 185.085 156.992 184.563 155.51 183.58C156.02 182.72 156.56 181.9 157.07 181.04C158.108 181.73 159.335 182.079 160.58 182.04C160.745 182.072 160.913 182.085 161.08 182.08ZM160.23 175.46L160.34 172.46H160.68C162.393 172.446 164.07 172.951 165.49 173.91L164 176.45C163.044 175.849 161.949 175.505 160.82 175.45C160.624 175.431 160.426 175.434 160.23 175.46Z" fill="black"/>
<path d="M176.48 176.6L166.9 176.53L167.02 172.71L176.59 172.77L176.48 176.6ZM169.48 185.1L169.73 177.34H173.5L173.27 185.11L169.48 185.1Z" fill="black"/>
<path d="M178 172.76H181.73L181.4 185.17H177.65L178 172.76ZM184.17 171.33H182.17L180.57 169.16H183.28C183.58 169.88 183.89 170.62 184.21 171.33H184.17ZM182.36 175.89L182.44 172.79H186.85L186.77 175.89H182.36ZM182.25 180.46L182.32 177.52H186.15L186.08 180.46H182.25ZM182.12 185.2L182.2 182.11H186.63L186.55 185.2H182.12Z" fill="black"/>
<path d="M188 185.25L188.86 173.79L192.2 181L191.78 185.27L188 185.25ZM194.3 183.68L189.24 172.84H192.74L195 178L196.55 174.76L196.88 180.85L195.45 183.69L194.3 183.68ZM201.3 172.92C201.427 177.06 201.567 181.207 201.72 185.36H197.92L197.28 173.43L197.52 172.92H201.3Z" fill="black"/>
<path d="M203.63 172.94H207.38L207.2 185.38H203.43L203.63 172.94ZM208.06 176.07V172.97H212.49V176.07H208.06ZM207.99 180.65V177.65H211.84V180.65H207.99ZM207.92 185.41L207.97 182.31H212.41V185.4L207.92 185.41Z" fill="black"/>
<path d="M106 201.69L106.6 191.54H109.6L109.01 201.7L106 201.69ZM109.78 199.35L109.92 196.83H110.76C111.068 196.822 111.36 196.694 111.575 196.474C111.79 196.254 111.91 195.958 111.91 195.65V195.29C111.94 195.143 111.937 194.991 111.9 194.846C111.863 194.7 111.794 194.565 111.698 194.45C111.602 194.334 111.482 194.242 111.345 194.18C111.209 194.118 111.06 194.087 110.91 194.09H110.07L110.22 191.58H112.03C112.463 191.598 112.887 191.706 113.275 191.899C113.662 192.091 114.005 192.364 114.281 192.698C114.556 193.032 114.758 193.42 114.874 193.837C114.989 194.255 115.015 194.692 114.95 195.12V195.86C114.962 196.755 114.627 197.62 114.016 198.274C113.404 198.929 112.564 199.321 111.67 199.37L109.78 199.35Z" fill="black"/>
<path d="M118.09 201.8H115L118.87 191.66H119.14L119.96 196.13L118.09 201.8ZM120.88 197.8L119.73 191.64H122.12L124.9 201.85H121.82L121.45 200.24H119.23L120.05 197.83L120.88 197.8Z" fill="black"/>
<path d="M129.25 191.6L129.1 194.6C129.1 195.14 130.01 195.24 131.1 195.45C133.27 195.86 134.24 197.06 134.16 198.73C134.098 199.587 133.72 200.39 133.099 200.983C132.478 201.576 131.659 201.917 130.8 201.94L130.95 198.83C131.01 197.57 125.72 198.65 125.95 194.61C126 193.12 126.93 191.82 129.25 191.6ZM130.33 199.5L130.21 202H129.83C128.373 202.008 126.947 201.576 125.74 200.76C126.16 200.05 126.61 199.37 127.04 198.67C127.873 199.246 128.868 199.54 129.88 199.51C130.03 199.523 130.181 199.519 130.33 199.5ZM129.71 194.04L129.83 191.55H130.11C131.503 191.539 132.865 191.958 134.01 192.75L132.77 194.86C132.006 194.34 131.113 194.039 130.19 193.99C130.031 193.971 129.869 193.975 129.71 194V194.04Z" fill="black"/>
<path d="M139.05 191.8H142.11L141.66 202H138.59L139.05 191.8ZM145.84 198.9L145.7 202.07H142.25L142.39 198.9H145.84Z" fill="black"/>
<path d="M147.31 191.87H150.31L149.91 202.08H146.85L147.31 191.87ZM150.84 194.46L150.94 191.91H154.52L154.43 194.46H150.84ZM150.69 198.22L150.78 195.8H153.9L153.81 198.22H150.69ZM150.53 202.12L150.63 199.58H154.23L154.13 202.12H150.53Z" fill="black"/>
<path d="M161.8 202.27C159.61 201.68 158.47 199.87 158.56 197.27C158.65 194.67 159.93 192.67 162.15 192.01L161.8 202.27ZM162.61 195.64L162.74 191.92C163.093 191.859 163.452 191.829 163.81 191.83C164.623 191.797 165.431 191.974 166.154 192.346C166.878 192.717 167.493 193.27 167.94 193.95L165.5 195.95C165.319 195.66 165.062 195.425 164.757 195.269C164.453 195.114 164.111 195.045 163.77 195.07C163.547 195.076 163.328 195.13 163.128 195.228C162.928 195.327 162.751 195.467 162.61 195.64ZM162.38 202.39L162.5 198.76C162.642 198.921 162.815 199.05 163.01 199.14C163.205 199.23 163.416 199.277 163.63 199.28C163.97 199.288 164.307 199.212 164.611 199.059C164.914 198.905 165.175 198.679 165.37 198.4L167.73 200.4C167.243 201.067 166.595 201.6 165.847 201.95C165.099 202.3 164.274 202.454 163.45 202.4C163.094 202.429 162.736 202.425 162.38 202.39Z" fill="black"/>
<path d="M169 192.06H172.08L171.77 202.29H168.68L169 192.06ZM175.93 199.18L175.84 202.36H172.36L172.46 199.18H175.93Z" fill="black"/>
<path d="M180.12 202.41H177.02L177.3 192.16H180.39L180.12 202.41Z" fill="black"/>
<path d="M181.55 202.42L182.28 192.96L185.02 198.96L184.67 202.48L181.55 202.42ZM186.71 201.13L182.6 192.18H185.46L187.28 196.43H187.34L188.62 193.75L188.87 198.75L187.69 201.08L186.71 201.13ZM192.45 192.27C192.54 195.68 192.64 199.11 192.75 202.53H189.64L189.16 192.68L189.35 192.27H192.45Z" fill="black"/>
<path d="M196.6 202.56H193.46L197 192.3H197.26L198.26 196.81L196.6 202.56ZM199.29 198.56L197.91 192.34H200.33L203.52 202.64H200.39L200 201H197.75L198.5 198.56H199.29Z" fill="black"/>
<path d="M211.66 195.62L203.75 195.55L203.8 192.38L211.7 192.45L211.66 195.62ZM206.04 202.62L206.13 196.18H209.24L209.15 202.62H206.04Z" fill="black"/>
<path d="M392.18 325.02H343.89L338.13 253.65L386.42 253.64L392.18 325.02Z" fill="white" stroke="black" stroke-linecap="round" stroke-linejoin="round"/>
<path d="M365.39 280.71L367.64 283.85C368.127 284.523 368.441 285.306 368.554 286.129C368.668 286.952 368.577 287.79 368.29 288.57L367.24 291.46L368.47 293.2C369.319 294.394 369.892 295.761 370.146 297.204C370.4 298.647 370.33 300.128 369.94 301.54L363.06 326.46L367.24 345.71C365.64 350.54 355.58 356.92 347.35 349.89L343.29 330.42L328.76 311.72L341.53 286.92L359.4 270L365.39 280.71Z" fill="white" stroke="black" stroke-linecap="round" stroke-linejoin="round"/>
<path d="M361.19 327.52C361.19 327.52 357.45 332.35 351.83 332.82" stroke="black" stroke-linecap="round" stroke-linejoin="round"/>
<path d="M168.29 280.71L166 283.85C165.517 284.525 165.207 285.308 165.095 286.131C164.983 286.953 165.074 287.791 165.36 288.57L166.36 291.46L165.13 293.2C164.281 294.394 163.708 295.761 163.454 297.204C163.2 298.647 163.27 300.128 163.66 301.54L170.54 326.46L166.36 345.71C167.96 350.54 178.01 356.92 186.25 349.89L190.31 330.42L204.84 311.72L192.07 286.92L174.29 270L168.29 280.71Z" fill="white" stroke="black" stroke-linecap="round" stroke-linejoin="round"/>
<path d="M172.5 327.52C172.5 327.52 176.24 332.35 181.85 332.82" stroke="black" stroke-linecap="round" stroke-linejoin="round"/>
<path d="M350.89 169.83H181.56V327.52H350.89V169.83Z" fill="#FFE500" stroke="black" stroke-linecap="round" stroke-linejoin="round"/>
<path d="M318.72 250.14C318.714 261.082 315.287 271.748 308.918 280.645C302.549 289.543 293.557 296.226 283.201 299.759C272.846 303.293 261.644 303.5 251.165 300.351C240.686 297.203 231.454 290.857 224.76 282.201C218.067 273.545 214.248 263.013 213.837 252.078C213.427 241.144 216.445 230.355 222.471 221.222C228.496 212.088 237.226 205.068 247.44 201.142C257.653 197.217 268.839 196.583 279.43 199.33C281.01 199.737 282.56 200.217 284.08 200.77C294.229 204.44 303 211.149 309.199 219.983C315.397 228.818 318.722 239.348 318.72 250.14Z" fill="#020000" stroke="black" stroke-linecap="round" stroke-linejoin="round"/>
<path d="M268.49 272.48L265.39 278.48L261.83 280L260.9 289.31H254.73L248.3 298L246.85 298.94C243.873 297.751 241.011 296.291 238.3 294.58L234.76 282.47L228.11 277.6L225.22 267.83L222.56 264.51L224.11 255.18L220.11 249.41L216.34 240.76L218 229.49C220.942 222.627 225.313 216.469 230.82 211.425C236.327 206.382 242.845 202.569 249.94 200.24L252.77 204.58L255.4 221.58L243.3 222.72L231.6 235.5L227.89 238.06L227.04 231.65L225.33 230.53L220.12 235.87L220.49 238.2L224.14 238.06L223.76 247.31L227.18 251.31L231.88 249.41L236.15 253.41L251 259.39L252.33 265.16L268.49 272.48Z" fill="white" stroke="black" stroke-linecap="round" stroke-linejoin="round"/>
<path d="M260.9 199.33L257.65 200.04L256.51 203.32L260.9 204.88L259.36 211.29L262.35 216.56L265.48 215.7V211.43L273.46 208.73L271.04 200.61L266.05 198.81L260.9 199.33Z" fill="white" stroke="black" stroke-linecap="round" stroke-linejoin="round"/>
<path d="M306.54 283.75L308.63 273.66L307.35 259.84L301.35 256.43L291.35 259.84L286.93 252.44L284.51 244.04L287.65 236.63L294.65 229.63L308.65 228.63V225.5L307.08 223.82L301.79 219L303.08 223.87H298.52L293.52 219.57V223.87L288.24 225.55L286.68 228.68H280.27L278.85 215.15H286.11L287.39 211.74L281.77 210.56L279.41 199.35L284.12 200.91L284.07 200.79C292.004 203.658 299.13 208.397 304.844 214.604C310.557 220.811 314.691 228.304 316.893 236.448C319.096 244.592 319.303 253.147 317.498 261.388C315.692 269.629 311.926 277.313 306.52 283.79L306.54 283.75Z" fill="white" stroke="black" stroke-linecap="round" stroke-linejoin="round"/>
<path d="M229.24 217.01L226.35 210.22H229.24V198.6L232.81 202.71L236.39 192.8L239.86 201.64L242.08 197.13L243.67 202.64L245.87 201.34V210.32" fill="#FFE500"/>
<path d="M229.24 217.01L226.35 210.22H229.24V198.6L232.81 202.71L236.39 192.8L239.86 201.64L242.08 197.13L243.67 202.64L245.87 201.34V210.32" stroke="black" stroke-linecap="round" stroke-linejoin="round"/>
<path d="M303.6 236.83L301.02 227.85L304.53 230.33L308.86 222.38L309.76 231.06L313.4 228.57L312.37 235.28L315.98 234.76L312.78 237.75" fill="#FFE500"/>
<path d="M303.6 236.83L301.02 227.85L304.53 230.33L308.86 222.38L309.76 231.06L313.4 228.57L312.37 235.28L315.98 234.76L312.78 237.75" stroke="black" stroke-linecap="round" stroke-linejoin="round"/>
<path d="M239.88 261.41L236.11 257.02L238.66 257.19L237.3 252.44L240.28 254.48L243.9 247.34L245.72 255.08L249.68 253.16L248.64 259.87L252.25 259.35L249.06 262.34" fill="#FFE500"/>
<path d="M239.88 261.41L236.11 257.02L238.66 257.19L237.3 252.44L240.28 254.48L243.9 247.34L245.72 255.08L249.68 253.16L248.64 259.87L252.25 259.35L249.06 262.34" stroke="black" stroke-linecap="round" stroke-linejoin="round"/>
<path d="M283.08 224.51L281.32 220.9L283.08 221.51L284.11 212.85L287.1 218.21L289.26 216.56L288.85 224.51" fill="#FFE500"/>
<path d="M283.08 224.51L281.32 220.9L283.08 221.51L284.11 212.85L287.1 218.21L289.26 216.56L288.85 224.51" stroke="black" stroke-linecap="round" stroke-linejoin="round"/>
<path d="M254.42 276.64L253.73 271.19L255.19 272.33L258.94 264.45L260.06 270.5L262.64 269.62L259.71 277.02" fill="#FFE500"/>
<path d="M254.42 276.64L253.73 271.19L255.19 272.33L258.94 264.45L260.06 270.5L262.64 269.62L259.71 277.02" stroke="black" stroke-linecap="round" stroke-linejoin="round"/>
<path d="M278.36 216.84L278.65 219.34L280.33 219.49L280.13 217.58L278.36 216.84Z" fill="#FFE500" stroke="black" stroke-linecap="round" stroke-linejoin="round"/>
<path d="M298.38 206.13L301.61 205.43L301.02 203.69L298.38 206.13Z" fill="#FFE500" stroke="black" stroke-linecap="round" stroke-linejoin="round"/>
<path d="M291.38 205.88L290.11 202.06L291.38 203.22L292.55 196.88L294.88 201.38L295.84 198.88L296.35 201.91L299.01 201.08L296.39 207.69" fill="#FFE500"/>
<path d="M291.38 205.88L290.11 202.06L291.38 203.22L292.55 196.88L294.88 201.38L295.84 198.88L296.35 201.91L299.01 201.08L296.39 207.69" stroke="black" stroke-linecap="round" stroke-linejoin="round"/>
<path d="M185.79 225.29H260.81" stroke="#FFE500" stroke-linecap="round" stroke-linejoin="round"/>
<path d="M185.79 224.51H260.81" stroke="black" stroke-linecap="round" stroke-linejoin="round"/>
<path d="M289.27 277.41H346.01" stroke="#FFE500" stroke-linecap="round" stroke-linejoin="round"/>
<path d="M289.27 276.62H346.01" stroke="black" stroke-linecap="round" stroke-linejoin="round"/>
<path d="M179.4 279.77C178.252 279.77 177.151 279.314 176.339 278.502C175.526 277.69 175.07 276.588 175.07 275.44V244.44C175.07 243.292 175.526 242.19 176.339 241.378C177.151 240.566 178.252 240.11 179.4 240.11C180.549 240.11 181.65 240.566 182.462 241.378C183.274 242.19 183.73 243.292 183.73 244.44V275.44C183.73 276.588 183.274 277.69 182.462 278.502C181.65 279.314 180.549 279.77 179.4 279.77Z" fill="white" stroke="black" stroke-linecap="round" stroke-linejoin="round"/>
<path d="M168.29 280.71L178.84 261.84C179.168 261.293 179.613 260.825 180.143 260.47C180.672 260.115 181.274 259.882 181.905 259.786C182.535 259.691 183.179 259.736 183.79 259.918C184.401 260.1 184.965 260.415 185.44 260.84L200.33 274.28C200.76 274.659 201.111 275.119 201.361 275.634C201.612 276.149 201.758 276.709 201.791 277.281C201.824 277.853 201.743 278.426 201.553 278.966C201.363 279.507 201.067 280.004 200.684 280.43C200.3 280.855 199.835 281.2 199.317 281.445C198.799 281.69 198.238 281.829 197.665 281.855C197.093 281.881 196.521 281.793 195.983 281.597C195.445 281.4 194.951 281.099 194.53 280.71L183.53 270.77L176.32 282.62" fill="white"/>
<path d="M168.29 280.71L178.84 261.84C179.168 261.293 179.613 260.825 180.143 260.47C180.672 260.115 181.274 259.882 181.905 259.786C182.535 259.691 183.179 259.736 183.79 259.918C184.401 260.1 184.965 260.415 185.44 260.84L200.33 274.28C200.76 274.659 201.111 275.119 201.361 275.634C201.612 276.149 201.758 276.709 201.791 277.281C201.824 277.853 201.743 278.426 201.553 278.966C201.363 279.507 201.067 280.004 200.684 280.43C200.3 280.855 199.835 281.2 199.317 281.445C198.799 281.69 198.238 281.829 197.665 281.855C197.093 281.881 196.521 281.793 195.983 281.597C195.445 281.4 194.951 281.099 194.53 280.71L183.53 270.77L176.32 282.62" stroke="black" stroke-linecap="round" stroke-linejoin="round"/>
<path d="M167.92 284.21L181 272.71C181.463 272.303 182.009 271.999 182.599 271.82C183.189 271.641 183.811 271.589 184.423 271.67C185.034 271.75 185.622 271.961 186.146 272.287C186.669 272.613 187.118 273.047 187.46 273.56L194.46 284.03L201.24 287.31C202.124 287.736 202.837 288.45 203.262 289.335C203.687 290.22 203.799 291.223 203.579 292.179C203.359 293.136 202.821 293.989 202.053 294.6C201.284 295.211 200.331 295.542 199.35 295.54C198.701 295.541 198.061 295.39 197.48 295.1L189.63 291.32C188.934 290.981 188.34 290.464 187.91 289.82L183 282.48L173.65 290.71" fill="white"/>
<path d="M167.92 284.21L181 272.71C181.463 272.303 182.009 271.999 182.599 271.82C183.189 271.641 183.811 271.589 184.423 271.67C185.034 271.75 185.622 271.961 186.146 272.287C186.669 272.613 187.118 273.047 187.46 273.56L194.46 284.03L201.24 287.31C202.124 287.736 202.837 288.45 203.262 289.335C203.687 290.22 203.799 291.223 203.579 292.179C203.359 293.136 202.821 293.989 202.053 294.6C201.284 295.211 200.331 295.542 199.35 295.54C198.701 295.541 198.061 295.39 197.48 295.1L189.63 291.32C188.934 290.981 188.34 290.464 187.91 289.82L183 282.48L173.65 290.71" stroke="black" stroke-linecap="round" stroke-linejoin="round"/>
<path d="M166.45 291.46L178 283C178.477 282.585 179.04 282.28 179.649 282.107C180.257 281.934 180.896 281.898 181.52 282C182.139 282.105 182.727 282.342 183.245 282.696C183.763 283.05 184.198 283.512 184.52 284.05L190.17 293.46L194.42 295.87C195.384 296.454 196.082 297.39 196.367 298.481C196.651 299.571 196.499 300.729 195.944 301.71C195.388 302.69 194.472 303.415 193.39 303.73C192.308 304.046 191.146 303.928 190.15 303.4L184.91 300.4C184.26 300.038 183.718 299.51 183.34 298.87L179.77 292.93L171.36 298.72C171.36 298.72 173.87 300.26 173.36 302.36" fill="white"/>
<path d="M166.45 291.46L178 283C178.477 282.585 179.04 282.28 179.649 282.107C180.257 281.934 180.896 281.898 181.52 282C182.139 282.105 182.727 282.342 183.245 282.696C183.763 283.05 184.198 283.512 184.52 284.05L190.17 293.46L194.42 295.87C195.384 296.454 196.082 297.39 196.367 298.481C196.651 299.571 196.499 300.729 195.944 301.71C195.388 302.69 194.472 303.415 193.39 303.73C192.308 304.046 191.146 303.928 190.15 303.4L184.91 300.4C184.26 300.038 183.718 299.51 183.34 298.87L179.77 292.93L171.36 298.72C171.36 298.72 173.87 300.26 173.36 302.36" stroke="black" stroke-linecap="round" stroke-linejoin="round"/>
<path d="M365.39 280.71L354.85 261.84C354.522 261.293 354.077 260.825 353.547 260.47C353.018 260.115 352.416 259.882 351.786 259.786C351.155 259.691 350.511 259.736 349.9 259.918C349.289 260.1 348.725 260.415 348.25 260.84L333.35 274.28C332.513 275.053 332.015 276.125 331.963 277.263C331.911 278.402 332.31 279.514 333.073 280.361C333.836 281.207 334.902 281.718 336.04 281.783C337.177 281.849 338.295 281.463 339.15 280.71L350.15 270.77L357.36 282.62" fill="white"/>
<path d="M365.39 280.71L354.85 261.84C354.522 261.293 354.077 260.825 353.547 260.47C353.018 260.115 352.416 259.882 351.786 259.786C351.155 259.691 350.511 259.736 349.9 259.918C349.289 260.1 348.725 260.415 348.25 260.84L333.35 274.28C332.513 275.053 332.015 276.125 331.963 277.263C331.911 278.402 332.31 279.514 333.073 280.361C333.836 281.207 334.902 281.718 336.04 281.783C337.177 281.849 338.295 281.463 339.15 280.71L350.15 270.77L357.36 282.62" stroke="black" stroke-linecap="round" stroke-linejoin="round"/>
<path d="M365.77 284.21L352.7 272.71C352.233 272.312 351.686 272.017 351.097 271.845C350.508 271.672 349.888 271.626 349.28 271.71C348.675 271.794 348.094 272.006 347.577 272.332C347.059 272.658 346.617 273.09 346.28 273.6L339.28 284.07L332.5 287.35C331.617 287.776 330.904 288.489 330.479 289.373C330.054 290.257 329.942 291.258 330.16 292.214C330.378 293.17 330.915 294.024 331.681 294.635C332.448 295.247 333.399 295.58 334.38 295.58C335.032 295.58 335.676 295.429 336.26 295.14L344.1 291.36C344.801 291.024 345.398 290.506 345.83 289.86L350.72 282.52L360.06 290.75" fill="white"/>
<path d="M365.77 284.21L352.7 272.71C352.233 272.312 351.686 272.017 351.097 271.845C350.508 271.672 349.888 271.626 349.28 271.71C348.675 271.794 348.094 272.006 347.577 272.332C347.059 272.658 346.617 273.09 346.28 273.6L339.28 284.07L332.5 287.35C331.617 287.776 330.904 288.489 330.479 289.373C330.054 290.257 329.942 291.258 330.16 292.214C330.378 293.17 330.915 294.024 331.681 294.635C332.448 295.247 333.399 295.58 334.38 295.58C335.032 295.58 335.676 295.429 336.26 295.14L344.1 291.36C344.801 291.024 345.398 290.506 345.83 289.86L350.72 282.52L360.06 290.75" stroke="black" stroke-linecap="round" stroke-linejoin="round"/>
<path d="M367.24 291.46L355.72 283C355.244 282.58 354.682 282.27 354.073 282.091C353.465 281.912 352.824 281.868 352.196 281.964C351.569 282.059 350.97 282.291 350.442 282.643C349.914 282.994 349.47 283.458 349.14 284L343.49 293.41L339.25 295.82C338.286 296.404 337.588 297.34 337.303 298.431C337.019 299.521 337.171 300.679 337.727 301.66C338.282 302.64 339.198 303.365 340.28 303.68C341.362 303.996 342.524 303.878 343.52 303.35L348.75 300.35C349.403 299.989 349.948 299.461 350.33 298.82L353.89 292.88L362.3 298.67C362.3 298.67 359.8 300.21 360.3 302.31" fill="white"/>
<path d="M367.24 291.46L355.72 283C355.244 282.58 354.682 282.27 354.073 282.091C353.465 281.912 352.824 281.868 352.196 281.964C351.569 282.059 350.97 282.291 350.442 282.643C349.914 282.994 349.47 283.458 349.14 284L343.49 293.41L339.25 295.82C338.286 296.404 337.588 297.34 337.303 298.431C337.019 299.521 337.171 300.679 337.727 301.66C338.282 302.64 339.198 303.365 340.28 303.68C341.362 303.996 342.524 303.878 343.52 303.35L348.75 300.35C349.403 299.989 349.948 299.461 350.33 298.82L353.89 292.88L362.3 298.67C362.3 298.67 359.8 300.21 360.3 302.31" stroke="black" stroke-linecap="round" stroke-linejoin="round"/>
</svg>
