<svg width="544" height="452" viewBox="0 0 544 452" fill="none" xmlns="http://www.w3.org/2000/svg">
<path d="M49.5898 222.79C49.5898 163.69 98.5898 62.6 247.14 101.38C365.67 132.32 418.6 182.13 395.46 230.23C372.32 278.33 352.46 375.35 262.26 368.31C172.06 361.27 189.68 294.79 142.51 316.47C95.3398 338.15 49.5898 291.94 49.5898 222.79Z" fill="#FFE500"/>
<path d="M87.0997 149.04C97.8251 149.04 106.52 140.345 106.52 129.62C106.52 118.895 97.8251 110.2 87.0997 110.2C76.3743 110.2 67.6797 118.895 67.6797 129.62C67.6797 140.345 76.3743 149.04 87.0997 149.04Z" fill="#020000" stroke="#020000" stroke-linecap="round" stroke-linejoin="round"/>
<path d="M96.0898 168.24L96.6898 188.56L99.8998 205.56C99.8998 205.56 79.8998 205.56 74.8998 175.17C66.6898 125.78 102.19 118.79 102.19 118.79L151.46 116.18C151.46 116.18 190.46 141.62 169.87 169.76" fill="#020000"/>
<path d="M96.0898 168.24L96.6898 188.56L99.8998 205.56C99.8998 205.56 79.8998 205.56 74.8998 175.17C66.6898 125.78 102.19 118.79 102.19 118.79L151.46 116.18C151.46 116.18 190.46 141.62 169.87 169.76" stroke="#020000" stroke-linecap="round" stroke-linejoin="round"/>
<path d="M100.26 241.73C100.26 241.73 110.78 255.82 128.68 254.59C146.58 253.36 144.24 243.2 144.24 243.2L146.7 214.69L101.42 207.94L100.26 241.73Z" fill="white" stroke="#020000" stroke-linecap="round" stroke-linejoin="round"/>
<path d="M117.49 222C127.75 227.88 141.33 232.24 155.08 229.53C182.31 224.16 167.52 162.42 166.21 155.74C153.34 151.69 150.1 123 120 129C93.7898 134.17 88.5698 148.28 92.7698 169.61L99.8698 205.61C100.143 207.059 100.897 208.373 102.01 209.34" fill="white"/>
<path d="M117.49 222C127.75 227.88 141.33 232.24 155.08 229.53C182.31 224.16 167.52 162.42 166.21 155.74C153.34 151.69 150.1 123 120 129C93.7898 134.17 88.5698 148.28 92.7698 169.61L99.8698 205.61C100.143 207.059 100.897 208.373 102.01 209.34" stroke="#020000" stroke-linecap="round" stroke-linejoin="round"/>
<path d="M96.0896 168.24L96.6897 188.56L99.8997 205.56C99.8997 205.56 80.1297 203.2 74.8997 175.17C65.6397 125.97 102.19 118.79 102.19 118.79L151.46 116.18C151.46 116.18 157.09 161.03 107.53 174.1" fill="#020000"/>
<path d="M96.0896 168.24L96.6897 188.56L99.8997 205.56C99.8997 205.56 80.1297 203.2 74.8997 175.17C65.6397 125.97 102.19 118.79 102.19 118.79L151.46 116.18C151.46 116.18 157.09 161.03 107.53 174.1" stroke="#020000" stroke-linecap="round" stroke-linejoin="round"/>
<path d="M157 175.35C157 175.35 161 185.22 161.11 189.76C161.22 194.3 153.2 193.08 153.2 193.08" stroke="#020000" stroke-linecap="round" stroke-linejoin="round"/>
<path d="M167.91 199.55L142.51 202.48C142.51 202.48 146.26 219.88 157.92 217.58C169.58 215.28 167.91 199.55 167.91 199.55Z" fill="white" stroke="#020000" stroke-linecap="round" stroke-linejoin="round"/>
<path d="M163.573 179.939C165.199 179.764 166.187 176.564 165.78 172.791C165.374 169.019 163.727 166.103 162.101 166.278C160.476 166.453 159.488 169.653 159.894 173.426C160.301 177.198 161.948 180.114 163.573 179.939Z" fill="#020000"/>
<path d="M145.724 181.502C147.349 181.327 148.337 178.127 147.931 174.355C147.525 170.582 145.877 167.666 144.252 167.841C142.627 168.016 141.639 171.216 142.045 174.989C142.452 178.761 144.099 181.677 145.724 181.502Z" fill="#020000"/>
<path d="M146.7 163C146.7 163 134.01 151.63 125.94 163.75" stroke="#020000" stroke-linecap="round" stroke-linejoin="round"/>
<path d="M169.83 159.8C169.83 159.8 162.83 153.03 155.83 162.99" stroke="#020000" stroke-linecap="round" stroke-linejoin="round"/>
<path d="M100.34 171.18C99.2496 165.92 93.7496 164.72 91.8396 164.95C86.7496 165.54 84.8397 171.52 86.4397 179.1C88.0397 186.68 93.1096 194.89 98.1996 194.3C99.1477 194.173 100.054 193.831 100.85 193.3" fill="white"/>
<path d="M100.34 171.18C99.2496 165.92 93.7496 164.72 91.8396 164.95C86.7496 165.54 84.8397 171.52 86.4397 179.1C88.0397 186.68 93.1096 194.89 98.1996 194.3C99.1477 194.173 100.054 193.831 100.85 193.3" stroke="#020000" stroke-linecap="round" stroke-linejoin="round"/>
<path d="M90.3596 179.47C90.3596 179.47 86.5096 171.13 92.5796 169.26C98.6496 167.39 98.9196 177.26 97.9396 178.8C96.9596 180.34 95.9396 182.42 98.4996 184.13C101.06 185.84 100.17 189.23 96.8196 189.13" stroke="#020000" stroke-linecap="round" stroke-linejoin="round"/>
<path d="M98.2999 174.87C98.2999 174.87 92.1799 173.75 92.9299 179.21C93.5499 183.81 94.6699 184.53 94.6699 184.53" stroke="#020000" stroke-linecap="round" stroke-linejoin="round"/>
<path d="M111.1 160.94C108.55 169.42 106.32 181.81 110.85 191.24C106.365 183.589 102.387 175.652 98.9399 167.48" fill="#020000"/>
<path d="M111.1 160.94C108.55 169.42 106.32 181.81 110.85 191.24C106.365 183.589 102.387 175.652 98.9399 167.48" stroke="#020000" stroke-linecap="round" stroke-linejoin="round"/>
<path d="M194.94 239.26C183.947 236.3 173.103 233.47 162.41 230.77C154.28 228.72 148.41 220.72 148.04 211.26C147.68 201.59 153.21 192.92 161.41 190.26C171.903 186.88 182.57 183.36 193.41 179.7C184.53 199.47 185.1 220.12 194.94 239.26Z" fill="#FFE500" stroke="black" stroke-linecap="round" stroke-linejoin="round"/>
<path d="M243.07 253.65C226.72 248.65 194.94 239.26 194.94 239.26C178.67 235.62 178.94 184.57 193.38 179.72C209.06 174.113 225.083 168.223 241.45 162.05L232.34 177.35C220.9 196.54 221.57 221.89 234.01 240.26L243.07 253.65Z" fill="white" stroke="black" stroke-linecap="round" stroke-linejoin="round"/>
<path d="M293 270.31C276.06 264.55 259.423 258.997 243.09 253.65C208.33 243.16 209.43 173.93 241.47 162.05C257.85 155.583 274.57 148.87 291.63 141.91L278.29 172.22C273.235 183.837 270.794 196.423 271.14 209.087C271.485 221.752 274.609 234.186 280.29 245.51L293 270.31Z" fill="#FFE500" stroke="black" stroke-linecap="round" stroke-linejoin="round"/>
<path d="M344.6 289C327.113 282.6 309.913 276.37 293 270.31C243.09 253.65 241.47 162.05 291.63 141.91C308.677 134.637 326.057 127.2 343.77 119.6L330.42 159.6C319.744 191.791 320.553 226.688 332.71 258.35L344.6 289Z" fill="white" stroke="black" stroke-linecap="round" stroke-linejoin="round"/>
<path d="M397.88 309.27L344.6 289C283.47 265.95 285.92 144.64 343.77 119.63C361.49 111.723 379.523 103.687 397.87 95.52C399.25 93.4 397.88 309.27 397.88 309.27Z" fill="#FFE500" stroke="black" stroke-linecap="round" stroke-linejoin="round"/>
<path d="M398.74 316.47C351.74 316.47 314.85 265.2 314.85 199.75C314.85 134.3 351.69 83 398.73 83H414.33L418.05 316.45L398.74 316.47Z" fill="#FFE500" stroke="black" stroke-linecap="round" stroke-linejoin="round"/>
<path d="M409.76 316.47C362.76 316.47 325.87 265.2 325.87 199.75C325.87 134.3 362.71 83 409.75 83C456.79 83 493.64 134.27 493.65 199.72C493.66 265.17 456.8 316.47 409.76 316.47Z" fill="#FFE500" stroke="black" stroke-linecap="round" stroke-linejoin="round"/>
<path d="M409.76 306.82C449.265 306.82 481.29 258.883 481.29 199.75C481.29 140.617 449.265 92.68 409.76 92.68C370.255 92.68 338.23 140.617 338.23 199.75C338.23 258.883 370.255 306.82 409.76 306.82Z" fill="black" stroke="#FFE500" stroke-linecap="round" stroke-linejoin="round"/>
<path d="M155.69 212L163.33 189.16L172.97 180.52L186.29 177.52C188.03 177.34 188.81 179.27 188.1 180.87C186.8 183.81 180.51 186.87 177.88 187.11L170.38 197.94L164.38 212.02" fill="white"/>
<path d="M155.69 212L163.33 189.16L172.97 180.52L186.29 177.52C188.03 177.34 188.81 179.27 188.1 180.87C186.8 183.81 180.51 186.87 177.88 187.11L170.38 197.94L164.38 212.02" stroke="black" stroke-linecap="round" stroke-linejoin="round"/>
<path d="M171.32 258.4C177.73 250.08 175.97 229.4 171.48 222.81L179.53 200L187.34 185.62C193.56 183.62 195.75 177.52 194.09 177.62C190.221 177.937 186.386 178.59 182.63 179.57C180.63 181.57 173.38 186.28 170.99 187.79C169.964 188.428 169.079 189.268 168.39 190.26C165.21 194.85 154.39 212.82 154.31 215.97L150.4 258L136 285.47C140.3 298.47 149.31 300.14 159.47 299.06L175.71 266.4C185.59 261.67 189.14 256.26 191.77 245.17C194.463 243.984 196.975 242.421 199.23 240.53L175 234" fill="white"/>
<path d="M171.32 258.4C177.73 250.08 175.97 229.4 171.48 222.81L179.53 200L187.34 185.62C193.56 183.62 195.75 177.52 194.09 177.62C190.221 177.937 186.386 178.59 182.63 179.57C180.63 181.57 173.38 186.28 170.99 187.79C169.964 188.428 169.079 189.268 168.39 190.26C165.21 194.85 154.39 212.82 154.31 215.97L150.4 258L136 285.47C140.3 298.47 149.31 300.14 159.47 299.06L175.71 266.4C185.59 261.67 189.14 256.26 191.77 245.17C194.463 243.984 196.975 242.421 199.23 240.53L175 234" stroke="#020000" stroke-linecap="round" stroke-linejoin="round"/>
<path d="M162.42 214.57L170.34 200L179.97 191.36L190.15 188.36C191.89 188.18 192.63 189.95 191.92 191.55C190.62 194.49 187.51 197.67 184.92 197.94L177.43 208.77L171.43 222.85" fill="white"/>
<path d="M162.42 214.57L170.34 200L179.97 191.36L190.15 188.36C191.89 188.18 192.63 189.95 191.92 191.55C190.62 194.49 187.51 197.67 184.92 197.94L177.43 208.77L171.43 222.85" stroke="black" stroke-linecap="round" stroke-linejoin="round"/>
<path d="M170.1 266.23C171.931 266.746 173.861 266.804 175.72 266.4" stroke="black" stroke-linecap="round" stroke-linejoin="round"/>
<path d="M281.77 277.52C282.57 282.305 282.455 287.198 281.43 291.94L295.24 311.69C295.24 311.69 287.5 333.57 268.83 318.5L254.76 291.94L236.36 282.94L227.14 271.94L222.54 258.68V237.68C222.539 236.969 222.798 236.282 223.267 235.748C223.737 235.214 224.385 234.87 225.09 234.78C225.794 234.692 226.442 234.35 226.912 233.818C227.382 233.285 227.641 232.6 227.64 231.89V226.89C227.643 226.425 227.829 225.98 228.159 225.652C228.489 225.324 228.935 225.14 229.4 225.14C231.077 225.142 232.702 225.725 233.998 226.79C235.294 227.854 236.182 229.335 236.51 230.98L236.74 232.15C236.87 232.813 237.226 233.41 237.748 233.838C238.27 234.267 238.925 234.501 239.6 234.5C241.44 234.499 243.24 235.042 244.773 236.059C246.307 237.077 247.506 238.524 248.22 240.22L251.86 248.81L261.86 260.75L262.81 253.75C262.837 253.48 262.924 253.219 263.065 252.987C263.206 252.756 263.397 252.558 263.625 252.411C263.853 252.263 264.111 252.168 264.38 252.133C264.649 252.098 264.922 252.125 265.18 252.21C267.28 252.97 270.27 256.8 269.45 260.82L272.07 263.24L276.41 266.64L283.47 267.07L290.93 269.6L283.81 276.85L277.81 278.85C275.66 280.31 273.22 280.28 270.63 279.37C268.06 280.85 264.07 280.79 259.7 280.32C257.534 281.487 255.117 282.11 252.657 282.134C250.197 282.159 247.768 281.584 245.58 280.46C245.58 280.46 242.27 282.52 239.8 281.88" fill="white"/>
<path d="M281.77 277.52C282.57 282.305 282.455 287.198 281.43 291.94L295.24 311.69C295.24 311.69 287.5 333.57 268.83 318.5L254.76 291.94L236.36 282.94L227.14 271.94L222.54 258.68V237.68C222.539 236.969 222.798 236.282 223.267 235.748C223.737 235.214 224.385 234.87 225.09 234.78V234.78C225.794 234.692 226.442 234.35 226.912 233.818C227.382 233.285 227.641 232.6 227.64 231.89V226.89C227.643 226.425 227.829 225.98 228.159 225.652C228.489 225.324 228.935 225.14 229.4 225.14V225.14C231.077 225.142 232.702 225.725 233.998 226.79C235.294 227.854 236.182 229.335 236.51 230.98L236.74 232.15C236.87 232.813 237.226 233.41 237.748 233.838C238.27 234.267 238.925 234.501 239.6 234.5V234.5C241.44 234.499 243.24 235.042 244.773 236.059C246.307 237.077 247.506 238.524 248.22 240.22L251.86 248.81L261.86 260.75L262.81 253.75C262.837 253.48 262.924 253.219 263.065 252.987C263.206 252.756 263.397 252.558 263.625 252.411C263.853 252.263 264.111 252.168 264.38 252.133C264.649 252.098 264.922 252.125 265.18 252.21C267.28 252.97 270.27 256.8 269.45 260.82L272.07 263.24L276.41 266.64L283.47 267.07L290.93 269.6L283.81 276.85L277.81 278.85C275.66 280.31 273.22 280.28 270.63 279.37C268.06 280.85 264.07 280.79 259.7 280.32C257.534 281.487 255.117 282.11 252.657 282.134C250.197 282.159 247.768 281.584 245.58 280.46C245.58 280.46 242.27 282.52 239.8 281.88" stroke="#020000" stroke-linecap="round" stroke-linejoin="round"/>
<path d="M238.05 234.03L239.94 250.28L249.28 264.63L256.24 271.21" stroke="black" stroke-linecap="round" stroke-linejoin="round"/>
<path d="M227.65 231.91L229.27 252.17L236.02 268.23L242.64 272.97" stroke="black" stroke-linecap="round" stroke-linejoin="round"/>
<path d="M268.83 271.86L264.21 268.15L261.82 260.73" stroke="black" stroke-linecap="round" stroke-linejoin="round"/>
<path d="M278 269.81C278 269.81 278 267.48 276.34 266.64L278 269.81Z" fill="white"/>
<path d="M278 269.81C278 269.81 278 267.48 276.34 266.64" stroke="black" stroke-linecap="round" stroke-linejoin="round"/>
<path d="M271.73 265.14C271.906 264.86 272.024 264.548 272.078 264.221C272.131 263.895 272.118 263.561 272.04 263.24" fill="white"/>
<path d="M271.73 265.14C271.906 264.86 272.024 264.548 272.078 264.221C272.131 263.895 272.118 263.561 272.04 263.24" stroke="black" stroke-linecap="round" stroke-linejoin="round"/>
<path d="M262.44 295.66L254.76 291.94" stroke="black" stroke-linecap="round" stroke-linejoin="round"/>
<path d="M276.93 295.66C278.713 294.809 280.259 293.532 281.43 291.94L276.93 295.66Z" fill="white"/>
<path d="M276.93 295.66C278.713 294.809 280.259 293.532 281.43 291.94" stroke="black" stroke-linecap="round" stroke-linejoin="round"/>
</svg>
